<?xml version="1.0" encoding="UTF-8"?>
<svg width="562px" height="351px" viewBox="0 0 562 351" version="1.1" xmlns="http://www.w3.org/2000/svg" xmlns:xlink="http://www.w3.org/1999/xlink">
    <!-- Generator: Sketch 49 (51002) - http://www.bohemiancoding.com/sketch -->
    <title>Group 4</title>
    <desc>Created with Sketch.</desc>
    <defs>
        <polygon id="path-1" points="22.2819851 0 77.2819851 0 55 70 0 70"></polygon>
        <polygon id="path-2" points="22.2819851 0 77.2819851 0 55 70 0 70"></polygon>
        <polygon id="path-3" points="22.2819851 0 77.2819851 0 55 70 0 70"></polygon>
        <polygon id="path-4" points="22.2819851 0 77.2819851 0 55 70 0 70"></polygon>
        <polygon id="path-5" points="22.2819851 0 77.2819851 0 55 70 0 70"></polygon>
        <rect id="path-6" x="0" y="0" width="96" height="90" rx="6"></rect>
        <rect id="path-7" x="0" y="0" width="92.3076923" height="74.2268041"></rect>
        <rect id="path-9" x="0" y="39.3836368" width="82.1763602" height="35.9289318" rx="5"></rect>
        <rect id="path-10" x="4.50281426" y="59.4209256" width="72.0450281" height="10.0946477" rx="2"></rect>
        <rect id="path-11" x="0" y="82.9129195" width="82.1763602" height="35.9289318" rx="5"></rect>
        <rect id="path-12" x="4.50281426" y="102.950208" width="72.0450281" height="10.0946477" rx="2"></rect>
        <rect id="path-13" x="0" y="0" width="82.1763602" height="31.7832858" rx="5"></rect>
        <rect id="path-14" x="4.50281426" y="15.8916429" width="72.0450281" height="10.0946477" rx="2"></rect>
        <rect id="path-15" x="1.84615385" y="1.8556701" width="93.2307692" height="13.9175258"></rect>
    </defs>
    <g id="Page-1" stroke="none" stroke-width="1" fill="none" fill-rule="evenodd">
        <g id="Tablet" transform="translate(-113.000000, -1074.000000)">
            <g id="Group-4" transform="translate(114.000000, 1076.000000)">
                <circle id="Oval-3" stroke="#1CA6DE" stroke-width="2" cx="73.5" cy="274.5" r="73.5"></circle>
                <circle id="Oval-3-Copy-3" stroke="#1CA6DE" stroke-width="2" cx="281.5" cy="274.5" r="73.5"></circle>
                <circle id="Oval-3-Copy-4" stroke="#1CA6DE" stroke-width="2" cx="486.5" cy="274.5" r="73.5"></circle>
                <g id="Group-8" transform="translate(458.000000, 233.000000)" stroke="#1CA6DE" stroke-width="2">
                    <path d="M0.083065735,77.88 L1.13686838e-13,77.88 L1.13686838e-13,11 L57,11 L57,77.88 L56.9169343,77.88 C55.7974874,82.9814603 43.5024652,87 28.5,87 C13.4975348,87 1.20251256,82.9814603 0.083065735,77.88 Z" id="Combined-Shape" fill="#E2F4FA"></path>
                    <ellipse id="Oval-3-Copy-2" fill="#F7FDFF" cx="28.5" cy="9.5" rx="28.5" ry="9.5"></ellipse>
                </g>
                <g id="Group-9" transform="translate(20.000000, 205.000000)">
                    <g id="Group-7" transform="translate(52.631728, 85.131728) rotate(-315.000000) translate(-52.631728, -85.131728) translate(13.631728, 50.131728)">
                        <g id="Rectangle-12">
                            <use fill="#F9FDFF" fill-rule="evenodd" xlink:href="#path-1"></use>
                            <path stroke="#1CA6DE" stroke-width="2" d="M23.0131108,1 L1.36775385,69 L54.2688743,69 L75.9142313,1 L23.0131108,1 Z"></path>
                        </g>
                        <path d="M20.8079405,28.2446485 L60.7397628,28.2446485" id="Line-Copy-59" stroke="#1CA6DE" stroke-width="1.3" stroke-linecap="square"></path>
                        <path d="M19.2533834,33.1283695 L59.1852057,33.1283695" id="Line-Copy-64" stroke="#1CA6DE" stroke-width="1.3" stroke-linecap="square"></path>
                        <path d="M22.3624976,23.3609276 L62.2943199,23.3609276" id="Line-Copy-60" stroke="#1CA6DE" stroke-width="1.3" stroke-linecap="square"></path>
                        <path d="M23.9170547,18.4772067 L63.848877,18.4772067" id="Line-Copy-61" stroke="#1CA6DE" stroke-width="1.3" stroke-linecap="square"></path>
                        <path d="M25.4716118,13.5934857 L65.4034341,13.5934857" id="Line-Copy-62" stroke="#1CA6DE" stroke-width="1.3" stroke-linecap="square"></path>
                        <path d="M27.0261689,8.7097648 L66.9579912,8.7097648" id="Line-Copy-63" stroke="#1CA6DE" stroke-width="1.3" stroke-linecap="square"></path>
                        <path d="M14.5897121,47.7795322 L54.5215344,47.7795322" id="Line-Copy-67" stroke="#1CA6DE" stroke-width="1.3" stroke-linecap="square"></path>
                        <path d="M16.1442692,42.8958113 L56.0760915,42.8958113" id="Line-Copy-66" stroke="#1CA6DE" stroke-width="1.3" stroke-linecap="square"></path>
                        <path d="M17.6988263,38.0120904 L57.6306486,38.0120904" id="Line-Copy-65" stroke="#1CA6DE" stroke-width="1.3" stroke-linecap="square"></path>
                        <path d="M13.035155,52.6632532 L52.9669773,52.6632532" id="Line-Copy-69" stroke="#1CA6DE" stroke-width="1.3" stroke-linecap="square"></path>
                        <path d="M11.4543941,57.6292944 L19.9488437,57.6292944" id="Line-Copy-68" stroke="#1CA6DE" stroke-width="1.3" stroke-linecap="square"></path>
                    </g>
                    <g id="Group-7-Copy" transform="translate(52.631728, 77.131728) rotate(-315.000000) translate(-52.631728, -77.131728) translate(13.631728, 42.131728)">
                        <g id="Rectangle-12">
                            <use fill="#F9FDFF" fill-rule="evenodd" xlink:href="#path-2"></use>
                            <path stroke="#1CA6DE" stroke-width="2" d="M23.0131108,1 L1.36775385,69 L54.2688743,69 L75.9142313,1 L23.0131108,1 Z"></path>
                        </g>
                        <path d="M20.8079405,28.2446485 L60.7397628,28.2446485" id="Line-Copy-59" stroke="#1CA6DE" stroke-width="1.3" stroke-linecap="square"></path>
                        <path d="M19.2533834,33.1283695 L59.1852057,33.1283695" id="Line-Copy-64" stroke="#1CA6DE" stroke-width="1.3" stroke-linecap="square"></path>
                        <path d="M22.3624976,23.3609276 L62.2943199,23.3609276" id="Line-Copy-60" stroke="#1CA6DE" stroke-width="1.3" stroke-linecap="square"></path>
                        <path d="M23.9170547,18.4772067 L63.848877,18.4772067" id="Line-Copy-61" stroke="#1CA6DE" stroke-width="1.3" stroke-linecap="square"></path>
                        <path d="M25.4716118,13.5934857 L65.4034341,13.5934857" id="Line-Copy-62" stroke="#1CA6DE" stroke-width="1.3" stroke-linecap="square"></path>
                        <path d="M27.0261689,8.7097648 L66.9579912,8.7097648" id="Line-Copy-63" stroke="#1CA6DE" stroke-width="1.3" stroke-linecap="square"></path>
                        <path d="M14.5897121,47.7795322 L54.5215344,47.7795322" id="Line-Copy-67" stroke="#1CA6DE" stroke-width="1.3" stroke-linecap="square"></path>
                        <path d="M16.1442692,42.8958113 L56.0760915,42.8958113" id="Line-Copy-66" stroke="#1CA6DE" stroke-width="1.3" stroke-linecap="square"></path>
                        <path d="M17.6988263,38.0120904 L57.6306486,38.0120904" id="Line-Copy-65" stroke="#1CA6DE" stroke-width="1.3" stroke-linecap="square"></path>
                        <path d="M13.035155,52.6632532 L52.9669773,52.6632532" id="Line-Copy-69" stroke="#1CA6DE" stroke-width="1.3" stroke-linecap="square"></path>
                        <path d="M11.4543941,57.6292944 L19.9488437,57.6292944" id="Line-Copy-68" stroke="#1CA6DE" stroke-width="1.3" stroke-linecap="square"></path>
                    </g>
                    <g id="Group-7-Copy-2" transform="translate(52.631728, 69.131728) rotate(-315.000000) translate(-52.631728, -69.131728) translate(13.631728, 34.131728)">
                        <g id="Rectangle-12">
                            <use fill="#F9FDFF" fill-rule="evenodd" xlink:href="#path-3"></use>
                            <path stroke="#1CA6DE" stroke-width="2" d="M23.0131108,1 L1.36775385,69 L54.2688743,69 L75.9142313,1 L23.0131108,1 Z"></path>
                        </g>
                        <path d="M20.8079405,28.2446485 L60.7397628,28.2446485" id="Line-Copy-59" stroke="#1CA6DE" stroke-width="1.3" stroke-linecap="square"></path>
                        <path d="M19.2533834,33.1283695 L59.1852057,33.1283695" id="Line-Copy-64" stroke="#1CA6DE" stroke-width="1.3" stroke-linecap="square"></path>
                        <path d="M22.3624976,23.3609276 L62.2943199,23.3609276" id="Line-Copy-60" stroke="#1CA6DE" stroke-width="1.3" stroke-linecap="square"></path>
                        <path d="M23.9170547,18.4772067 L63.848877,18.4772067" id="Line-Copy-61" stroke="#1CA6DE" stroke-width="1.3" stroke-linecap="square"></path>
                        <path d="M25.4716118,13.5934857 L65.4034341,13.5934857" id="Line-Copy-62" stroke="#1CA6DE" stroke-width="1.3" stroke-linecap="square"></path>
                        <path d="M27.0261689,8.7097648 L66.9579912,8.7097648" id="Line-Copy-63" stroke="#1CA6DE" stroke-width="1.3" stroke-linecap="square"></path>
                        <path d="M14.5897121,47.7795322 L54.5215344,47.7795322" id="Line-Copy-67" stroke="#1CA6DE" stroke-width="1.3" stroke-linecap="square"></path>
                        <path d="M16.1442692,42.8958113 L56.0760915,42.8958113" id="Line-Copy-66" stroke="#1CA6DE" stroke-width="1.3" stroke-linecap="square"></path>
                        <path d="M17.6988263,38.0120904 L57.6306486,38.0120904" id="Line-Copy-65" stroke="#1CA6DE" stroke-width="1.3" stroke-linecap="square"></path>
                        <path d="M13.035155,52.6632532 L52.9669773,52.6632532" id="Line-Copy-69" stroke="#1CA6DE" stroke-width="1.3" stroke-linecap="square"></path>
                        <path d="M11.4543941,57.6292944 L19.9488437,57.6292944" id="Line-Copy-68" stroke="#1CA6DE" stroke-width="1.3" stroke-linecap="square"></path>
                    </g>
                    <g id="Group-7-Copy-3" transform="translate(52.631728, 61.131728) rotate(-315.000000) translate(-52.631728, -61.131728) translate(13.631728, 26.131728)">
                        <g id="Rectangle-12">
                            <use fill="#F9FDFF" fill-rule="evenodd" xlink:href="#path-4"></use>
                            <path stroke="#1CA6DE" stroke-width="2" d="M23.0131108,1 L1.36775385,69 L54.2688743,69 L75.9142313,1 L23.0131108,1 Z"></path>
                        </g>
                        <path d="M20.8079405,28.2446485 L60.7397628,28.2446485" id="Line-Copy-59" stroke="#1CA6DE" stroke-width="1.3" stroke-linecap="square"></path>
                        <path d="M19.2533834,33.1283695 L59.1852057,33.1283695" id="Line-Copy-64" stroke="#1CA6DE" stroke-width="1.3" stroke-linecap="square"></path>
                        <path d="M22.3624976,23.3609276 L62.2943199,23.3609276" id="Line-Copy-60" stroke="#1CA6DE" stroke-width="1.3" stroke-linecap="square"></path>
                        <path d="M23.9170547,18.4772067 L63.848877,18.4772067" id="Line-Copy-61" stroke="#1CA6DE" stroke-width="1.3" stroke-linecap="square"></path>
                        <path d="M25.4716118,13.5934857 L65.4034341,13.5934857" id="Line-Copy-62" stroke="#1CA6DE" stroke-width="1.3" stroke-linecap="square"></path>
                        <path d="M27.0261689,8.7097648 L66.9579912,8.7097648" id="Line-Copy-63" stroke="#1CA6DE" stroke-width="1.3" stroke-linecap="square"></path>
                        <path d="M14.5897121,47.7795322 L54.5215344,47.7795322" id="Line-Copy-67" stroke="#1CA6DE" stroke-width="1.3" stroke-linecap="square"></path>
                        <path d="M16.1442692,42.8958113 L56.0760915,42.8958113" id="Line-Copy-66" stroke="#1CA6DE" stroke-width="1.3" stroke-linecap="square"></path>
                        <path d="M17.6988263,38.0120904 L57.6306486,38.0120904" id="Line-Copy-65" stroke="#1CA6DE" stroke-width="1.3" stroke-linecap="square"></path>
                        <path d="M13.035155,52.6632532 L52.9669773,52.6632532" id="Line-Copy-69" stroke="#1CA6DE" stroke-width="1.3" stroke-linecap="square"></path>
                        <path d="M11.4543941,57.6292944 L19.9488437,57.6292944" id="Line-Copy-68" stroke="#1CA6DE" stroke-width="1.3" stroke-linecap="square"></path>
                    </g>
                    <g id="Group-7-Copy-4" transform="translate(52.631728, 53.131728) rotate(-315.000000) translate(-52.631728, -53.131728) translate(13.631728, 18.131728)">
                        <g id="Rectangle-12">
                            <use fill="#F9FDFF" fill-rule="evenodd" xlink:href="#path-5"></use>
                            <path stroke="#1CA6DE" stroke-width="2" d="M23.0131108,1 L1.36775385,69 L54.2688743,69 L75.9142313,1 L23.0131108,1 Z"></path>
                        </g>
                        <path d="M20.8079405,28.2446485 L60.7397628,28.2446485" id="Line-Copy-59" stroke="#1CA6DE" stroke-width="1.3" stroke-linecap="square"></path>
                        <path d="M19.2533834,33.1283695 L59.1852057,33.1283695" id="Line-Copy-64" stroke="#1CA6DE" stroke-width="1.3" stroke-linecap="square"></path>
                        <path d="M22.3624976,23.3609276 L62.2943199,23.3609276" id="Line-Copy-60" stroke="#1CA6DE" stroke-width="1.3" stroke-linecap="square"></path>
                        <path d="M23.9170547,18.4772067 L63.848877,18.4772067" id="Line-Copy-61" stroke="#1CA6DE" stroke-width="1.3" stroke-linecap="square"></path>
                        <path d="M25.4716118,13.5934857 L65.4034341,13.5934857" id="Line-Copy-62" stroke="#1CA6DE" stroke-width="1.3" stroke-linecap="square"></path>
                        <path d="M27.0261689,8.7097648 L66.9579912,8.7097648" id="Line-Copy-63" stroke="#1CA6DE" stroke-width="1.3" stroke-linecap="square"></path>
                        <path d="M14.5897121,47.7795322 L54.5215344,47.7795322" id="Line-Copy-67" stroke="#1CA6DE" stroke-width="1.3" stroke-linecap="square"></path>
                        <path d="M16.1442692,42.8958113 L56.0760915,42.8958113" id="Line-Copy-66" stroke="#1CA6DE" stroke-width="1.3" stroke-linecap="square"></path>
                        <path d="M17.6988263,38.0120904 L57.6306486,38.0120904" id="Line-Copy-65" stroke="#1CA6DE" stroke-width="1.3" stroke-linecap="square"></path>
                        <path d="M13.035155,52.6632532 L52.9669773,52.6632532" id="Line-Copy-69" stroke="#1CA6DE" stroke-width="1.3" stroke-linecap="square"></path>
                        <path d="M11.4543941,57.6292944 L19.9488437,57.6292944" id="Line-Copy-68" stroke="#1CA6DE" stroke-width="1.3" stroke-linecap="square"></path>
                    </g>
                </g>
                <g id="Group-12" transform="translate(234.000000, 229.000000)">
                    <g id="Group-11">
                        <g id="Rectangle-6">
                            <use fill="#FFFFFF" fill-rule="evenodd" xlink:href="#path-6"></use>
                            <rect stroke="#1CA6DE" stroke-width="2" x="1" y="1" width="94" height="88" rx="6"></rect>
                        </g>
                        <g id="Group-6" transform="translate(2.769231, 15.773196)">
                            <mask id="mask-8" fill="white">
                                <use xlink:href="#path-7"></use>
                            </mask>
                            <g id="Mask"></g>
                            <g id="Group-5" mask="url(#mask-8)">
                                <g transform="translate(3.939962, -50.833516)">
                                    <g id="Rectangle-11-Copy" stroke="none">
                                        <use fill="#F9FDFF" fill-rule="evenodd" xlink:href="#path-9"></use>
                                        <rect stroke="#1CA6DE" stroke-width="1" x="0.5" y="39.8836368" width="81.1763602" height="34.9289318" rx="5"></rect>
                                    </g>
                                    <path d="M5.84979525,47.4100881 L74.5778925,47.4100881" id="Line-Copy-59" stroke="#1CA6DE" stroke-width="1.3" stroke-linecap="square"></path>
                                    <path d="M5.84979525,52.9376161 L41.2790737,52.9376161" id="Line-Copy-58" stroke="#1CA6DE" stroke-width="1.3" stroke-linecap="square"></path>
                                    <g id="Rectangle-5-Copy-5" stroke="none">
                                        <use fill="#FFFFFF" fill-rule="evenodd" xlink:href="#path-10"></use>
                                        <rect stroke="#1CA6DE" stroke-width="1" x="5.00281426" y="59.9209256" width="71.0450281" height="9.09464771" rx="2"></rect>
                                    </g>
                                    <path d="M8.60627206,67.2630891 L8.60627206,61.3485937" id="Line-Copy-49" stroke="#1CA6DE" stroke-width="0.5" stroke-linecap="square"></path>
                                    <g id="Rectangle-11-Copy" stroke="none">
                                        <use fill="#F9FDFF" fill-rule="evenodd" xlink:href="#path-11"></use>
                                        <rect stroke="#1CA6DE" stroke-width="1" x="0.5" y="83.4129195" width="81.1763602" height="34.9289318" rx="5"></rect>
                                    </g>
                                    <path d="M5.84979525,90.9393709 L74.5778925,90.9393709" id="Line-Copy-59" stroke="#1CA6DE" stroke-width="1.3" stroke-linecap="square"></path>
                                    <path d="M5.84979525,96.4668988 L16.8876621,96.4668988" id="Line-Copy-58" stroke="#1CA6DE" stroke-width="1.3" stroke-linecap="square"></path>
                                    <g id="Rectangle-5-Copy-5" stroke="none">
                                        <use fill="#FFFFFF" fill-rule="evenodd" xlink:href="#path-12"></use>
                                        <rect stroke="#1CA6DE" stroke-width="1" x="5.00281426" y="103.450208" width="71.0450281" height="9.09464771" rx="2"></rect>
                                    </g>
                                    <path d="M8.60627206,110.792372 L8.60627206,104.877876" id="Line-Copy-49" stroke="#1CA6DE" stroke-width="0.5" stroke-linecap="square"></path>
                                    <g id="Rectangle-11-Copy" stroke="none">
                                        <use fill="#F9FDFF" fill-rule="evenodd" xlink:href="#path-13"></use>
                                        <rect stroke="#1CA6DE" stroke-width="1" x="0.5" y="0.5" width="81.1763602" height="30.7832858" rx="5"></rect>
                                    </g>
                                    <path d="M5.84979525,8.71739236 L60.2262486,8.71739236" id="Line-Copy-59" stroke="#1CA6DE" stroke-width="2" stroke-linecap="square"></path>
                                    <g id="Rectangle-5-Copy-5" stroke="none">
                                        <use fill="#FFFFFF" fill-rule="evenodd" xlink:href="#path-14"></use>
                                        <rect stroke="#1CA6DE" stroke-width="1" x="5.00281426" y="16.3916429" width="71.0450281" height="9.09464771" rx="2"></rect>
                                    </g>
                                    <path d="M8.60627206,23.7338063 L8.60627206,17.8193109" id="Line-Copy-49" stroke="#1CA6DE" stroke-width="0.5" stroke-linecap="square"></path>
                                </g>
                            </g>
                        </g>
                        <g id="Rectangle-10-Copy">
                            <use fill-opacity="0.123584692" fill="#1CA6DE" fill-rule="evenodd" xlink:href="#path-15"></use>
                            <rect stroke="#1CA6DE" stroke-width="1" x="2.34615385" y="2.3556701" width="92.2307692" height="12.9175258"></rect>
                        </g>
                    </g>
                </g>
                <path d="M105.5,206.680147 L188,120" id="Line-3" stroke="#1CA6DE" stroke-width="2" stroke-linecap="square"></path>
                <path d="M456.5,206.680147 L374,120 L456.5,206.680147 Z" id="Line-3-Copy-4" stroke="#1CA6DE" stroke-width="2" stroke-linecap="square"></path>
                <path d="M282,202 L282,120 L282,202 Z" id="Line-3-Copy-5" stroke="#1CA6DE" stroke-width="2" stroke-linecap="square"></path>
                <g id="Group-10" transform="translate(151.000000, 0.000000)" fill="#FFFFFF" stroke="#1CA6DE" stroke-width="3">
                    <path d="M40,149.820628 C17.574,147.799713 0,128.95217 0,106 C0,84.6149467 15.256109,66.7931486 35.4783327,62.8245998 C42.1694061,47.058216 57.7933107,36 76,36 C82.104706,36 87.9190394,37.2432333 93.2036253,39.490325 C98.2278601,16.8944335 118.390977,0 142.5,0 C170.39038,0 193,22.6096201 193,50.5 C193,55.135384 192.375466,59.6249003 191.205953,63.8889947 C195.254545,62.6605682 199.550131,62 204,62 C228.300529,62 248,81.699471 248,106 C248,130.300529 228.300529,150 204,150 L40,150 L40,149.820628 Z" id="Combined-Shape"></path>
                </g>
                <g id="logo" transform="translate(190.000000, 74.000000)">
                    <path d="M52.547,19.964 L60.316,19.964 L60.316,21.494 L54.179,21.494 L54.179,25.081 L59.891,25.081 L59.891,26.611 L54.179,26.611 L54.179,30.47 L60.622,30.47 L60.622,32 L52.547,32 L52.547,19.964 Z M62.662,19.148 L64.192,19.148 L64.192,32 L62.662,32 L62.662,19.148 Z M67.864,27.971 C67.864,28.379002 67.9263327,28.7558316 68.051,29.1015 C68.1756673,29.4471684 68.3513322,29.7418321 68.578,29.9855 C68.8046678,30.2291679 69.0823317,30.4218326 69.411,30.5635 C69.7396683,30.7051674 70.107998,30.776 70.516,30.776 C70.924002,30.776 71.2923317,30.7051674 71.621,30.5635 C71.9496683,30.4218326 72.2273322,30.2291679 72.454,29.9855 C72.6806678,29.7418321 72.8563327,29.4471684 72.981,29.1015 C73.1056673,28.7558316 73.168,28.379002 73.168,27.971 C73.168,27.562998 73.1056673,27.1861684 72.981,26.8405 C72.8563327,26.4948316 72.6806678,26.2001679 72.454,25.9565 C72.2273322,25.7128321 71.9496683,25.5201674 71.621,25.3785 C71.2923317,25.2368326 70.924002,25.166 70.516,25.166 C70.107998,25.166 69.7396683,25.2368326 69.411,25.3785 C69.0823317,25.5201674 68.8046678,25.7128321 68.578,25.9565 C68.3513322,26.2001679 68.1756673,26.4948316 68.051,26.8405 C67.9263327,27.1861684 67.864,27.562998 67.864,27.971 Z M66.232,27.971 C66.232,27.3816637 66.3424989,26.8320025 66.5635,26.322 C66.7845011,25.8119974 67.0876647,25.3643353 67.473,24.979 C67.8583353,24.5936647 68.3116641,24.2905011 68.833,24.0695 C69.3543359,23.8484989 69.9153303,23.738 70.516,23.738 C71.1166697,23.738 71.6776641,23.8484989 72.199,24.0695 C72.7203359,24.2905011 73.1736647,24.5936647 73.559,24.979 C73.9443353,25.3643353 74.2474989,25.8119974 74.4685,26.322 C74.6895011,26.8320025 74.8,27.3816637 74.8,27.971 C74.8,28.5603363 74.6895011,29.1128308 74.4685,29.6285 C74.2474989,30.1441692 73.9443353,30.5918314 73.559,30.9715 C73.1736647,31.3511686 72.7203359,31.6514989 72.199,31.8725 C71.6776641,32.0935011 71.1166697,32.204 70.516,32.204 C69.9153303,32.204 69.3543359,32.0935011 68.833,31.8725 C68.3116641,31.6514989 67.8583353,31.3511686 67.473,30.9715 C67.0876647,30.5918314 66.7845011,30.1441692 66.5635,29.6285 C66.3424989,29.1128308 66.232,28.5603363 66.232,27.971 Z M84.796,35.876 L83.266,35.876 L83.266,30.844 L83.232,30.844 C82.9599986,31.2633354 82.5690025,31.5948321 82.059,31.8385 C81.5489975,32.0821679 81.0050029,32.204 80.427,32.204 C79.8036635,32.204 79.2398359,32.0963344 78.7355,31.881 C78.2311641,31.6656656 77.8005018,31.3681686 77.4435,30.9885 C77.0864982,30.6088314 76.8116676,30.1611692 76.619,29.6455 C76.4263324,29.1298308 76.33,28.5716697 76.33,27.971 C76.33,27.3816637 76.4263324,26.8291692 76.619,26.3135 C76.8116676,25.7978308 77.0864982,25.3473353 77.4435,24.962 C77.8005018,24.5766647 78.2311641,24.2763344 78.7355,24.061 C79.2398359,23.8456656 79.8036635,23.738 80.427,23.738 C80.9710027,23.738 81.5008308,23.8569988 82.0165,24.095 C82.5321692,24.3330012 82.9373319,24.6673312 83.232,25.098 L83.266,25.098 L83.266,23.942 L84.796,23.942 L84.796,35.876 Z M80.614,25.166 C80.205998,25.166 79.8376683,25.2368326 79.509,25.3785 C79.1803317,25.5201674 78.9026678,25.7128321 78.676,25.9565 C78.4493322,26.2001679 78.2736673,26.4948316 78.149,26.8405 C78.0243327,27.1861684 77.962,27.562998 77.962,27.971 C77.962,28.379002 78.0243327,28.7558316 78.149,29.1015 C78.2736673,29.4471684 78.4493322,29.7418321 78.676,29.9855 C78.9026678,30.2291679 79.1803317,30.4218326 79.509,30.5635 C79.8376683,30.7051674 80.205998,30.776 80.614,30.776 C81.022002,30.776 81.3903317,30.7051674 81.719,30.5635 C82.0476683,30.4218326 82.3253322,30.2291679 82.552,29.9855 C82.7786678,29.7418321 82.9543327,29.4471684 83.079,29.1015 C83.2036673,28.7558316 83.266,28.379002 83.266,27.971 C83.266,27.562998 83.2036673,27.1861684 83.079,26.8405 C82.9543327,26.4948316 82.7786678,26.2001679 82.552,25.9565 C82.3253322,25.7128321 82.0476683,25.5201674 81.719,25.3785 C81.3903317,25.2368326 81.022002,25.166 80.614,25.166 Z M94.248,32 L92.718,32 L92.718,30.759 L92.684,30.759 C92.4913324,31.1896688 92.1570024,31.5381653 91.681,31.8045 C91.2049976,32.0708347 90.6553364,32.204 90.032,32.204 C89.6353314,32.204 89.2613351,32.1445006 88.91,32.0255 C88.5586649,31.9064994 88.2498347,31.7223346 87.9835,31.473 C87.7171653,31.2236654 87.5046675,30.903502 87.346,30.5125 C87.1873325,30.121498 87.108,29.6596693 87.108,29.127 L87.108,23.942 L88.638,23.942 L88.638,28.702 C88.638,29.0760019 88.6889995,29.3961653 88.791,29.6625 C88.8930005,29.9288347 89.0289992,30.1441658 89.199,30.3085 C89.3690008,30.4728342 89.5644989,30.591833 89.7855,30.6655 C90.0065011,30.739167 90.2359988,30.776 90.474,30.776 C90.7913349,30.776 91.0859986,30.7250005 91.358,30.623 C91.6300014,30.5209995 91.867999,30.3595011 92.072,30.1385 C92.276001,29.9174989 92.4346661,29.6370017 92.548,29.297 C92.6613339,28.9569983 92.718,28.554669 92.718,28.09 L92.718,23.942 L94.248,23.942 L94.248,32 Z M97.716,28.532 C97.716,28.8833351 97.7924992,29.2034986 97.9455,29.4925 C98.0985008,29.7815014 98.2996654,30.027999 98.549,30.232 C98.7983346,30.436001 99.0873317,30.5946661 99.416,30.708 C99.7446683,30.8213339 100.084665,30.878 100.436,30.878 C100.912002,30.878 101.325665,30.7675011 101.677,30.5465 C102.028335,30.3254989 102.351332,30.0336685 102.646,29.671 L103.802,30.555 C102.951996,31.6543388 101.762008,32.204 100.232,32.204 C99.5973302,32.204 99.0221692,32.0963344 98.5065,31.881 C97.9908308,31.6656656 97.5545018,31.3681686 97.1975,30.9885 C96.8404982,30.6088314 96.5656676,30.1611692 96.373,29.6455 C96.1803324,29.1298308 96.084,28.5716697 96.084,27.971 C96.084,27.3703303 96.1888323,26.8121692 96.3985,26.2965 C96.6081677,25.7808308 96.8971648,25.3331686 97.2655,24.9535 C97.6338352,24.5738314 98.0729975,24.2763344 98.583,24.061 C99.0930025,23.8456656 99.6483303,23.738 100.249,23.738 C100.963004,23.738 101.566498,23.8626654 102.0595,24.112 C102.552502,24.3613346 102.957665,24.6871647 103.275,25.0895 C103.592335,25.4918353 103.821833,25.9451641 103.9635,26.4495 C104.105167,26.9538359 104.176,27.4666641 104.176,27.988 L104.176,28.532 L97.716,28.532 Z M102.544,27.308 C102.532667,26.9679983 102.478834,26.6563347 102.3825,26.373 C102.286166,26.0896652 102.141668,25.8431677 101.949,25.6335 C101.756332,25.4238323 101.515501,25.2595006 101.2265,25.1405 C100.937499,25.0214994 100.600335,24.962 100.215,24.962 C99.8409981,24.962 99.4981682,25.0328326 99.1865,25.1745 C98.8748318,25.3161674 98.6113344,25.5003322 98.396,25.727 C98.1806656,25.9536678 98.0135006,26.2058319 97.8945,26.4835 C97.7754994,26.7611681 97.716,27.0359986 97.716,27.308 L102.544,27.308 Z M106.012,23.942 L107.542,23.942 L107.542,25.183 L107.576,25.183 C107.768668,24.7523312 108.102998,24.4038347 108.579,24.1375 C109.055002,23.8711653 109.604664,23.738 110.228,23.738 C110.613335,23.738 110.984498,23.7974994 111.3415,23.9165 C111.698502,24.0355006 112.010165,24.2196654 112.2765,24.469 C112.542835,24.7183346 112.755333,25.038498 112.914,25.4295 C113.072667,25.820502 113.152,26.2823307 113.152,26.815 L113.152,32 L111.622,32 L111.622,27.24 C111.622,26.8659981 111.571001,26.5458347 111.469,26.2795 C111.366999,26.0131653 111.231001,25.7978342 111.061,25.6335 C110.890999,25.4691658 110.695501,25.350167 110.4745,25.2765 C110.253499,25.202833 110.024001,25.166 109.786,25.166 C109.468665,25.166 109.174001,25.2169995 108.902,25.319 C108.629999,25.4210005 108.392001,25.5824989 108.188,25.8035 C107.983999,26.0245011 107.825334,26.3049983 107.712,26.645 C107.598666,26.9850017 107.542,27.387331 107.542,27.852 L107.542,32 L106.012,32 L106.012,23.942 Z M119.782,25.268 L117.589,25.268 L117.589,28.923 C117.589,29.1496678 117.594667,29.3734989 117.606,29.5945 C117.617333,29.8155011 117.659833,30.0138325 117.7335,30.1895 C117.807167,30.3651675 117.920499,30.5068328 118.0735,30.6145 C118.226501,30.7221672 118.450332,30.776 118.745,30.776 C118.926334,30.776 119.113332,30.7590002 119.306,30.725 C119.498668,30.6909998 119.674333,30.6286671 119.833,30.538 L119.833,31.932 C119.651666,32.0340005 119.416501,32.1048331 119.1275,32.1445 C118.838499,32.1841669 118.614667,32.204 118.456,32.204 C117.866664,32.204 117.410502,32.1218342 117.0875,31.9575 C116.764498,31.7931658 116.526501,31.580668 116.3735,31.32 C116.220499,31.059332 116.129833,30.7675016 116.1015,30.4445 C116.073167,30.1214984 116.059,29.7956683 116.059,29.467 L116.059,25.268 L114.291,25.268 L114.291,23.942 L116.059,23.942 L116.059,21.681 L117.589,21.681 L117.589,23.942 L119.782,23.942 L119.782,25.268 Z M126.871,19.964 L128.503,19.964 L128.503,30.47 L134.028,30.47 L134.028,32 L126.871,32 L126.871,19.964 Z M135.337,24.928 C135.767669,24.5313314 136.26633,24.2338343 136.833,24.0355 C137.399669,23.8371657 137.96633,23.738 138.533,23.738 C139.122336,23.738 139.629498,23.8116659 140.0545,23.959 C140.479502,24.1063341 140.827999,24.3046654 141.1,24.554 C141.372001,24.8033346 141.573166,25.0894984 141.7035,25.4125 C141.833834,25.7355016 141.899,26.0726649 141.899,26.424 L141.899,30.538 C141.899,30.8213348 141.904667,31.0819988 141.916,31.32 C141.927333,31.5580012 141.944333,31.7846656 141.967,32 L140.607,32 C140.573,31.591998 140.556,31.184002 140.556,30.776 L140.522,30.776 C140.181998,31.2973359 139.779669,31.6656656 139.315,31.881 C138.850331,32.0963344 138.312003,32.204 137.7,32.204 C137.325998,32.204 136.969002,32.1530005 136.629,32.051 C136.288998,31.9489995 135.991501,31.796001 135.7365,31.592 C135.481499,31.387999 135.280334,31.1358348 135.133,30.8355 C134.985666,30.5351652 134.912,30.1866687 134.912,29.79 C134.912,29.2686641 135.028166,28.8323351 135.2605,28.481 C135.492834,28.1296649 135.810165,27.8435011 136.2125,27.6225 C136.614835,27.4014989 137.085164,27.2428338 137.6235,27.1465 C138.161836,27.0501662 138.736997,27.002 139.349,27.002 L140.471,27.002 L140.471,26.662 C140.471,26.457999 140.431334,26.254001 140.352,26.05 C140.272666,25.845999 140.153667,25.6618342 139.995,25.4975 C139.836333,25.3331658 139.638001,25.2028338 139.4,25.1065 C139.161999,25.0101662 138.878668,24.962 138.55,24.962 C138.255332,24.962 137.997501,24.9903331 137.7765,25.047 C137.555499,25.1036669 137.354334,25.1744996 137.173,25.2595 C136.991666,25.3445004 136.827334,25.4436661 136.68,25.557 C136.532666,25.6703339 136.391001,25.7779995 136.255,25.88 L135.337,24.928 Z M139.655,28.124 C139.292332,28.124 138.921169,28.1438331 138.5415,28.1835 C138.161831,28.2231669 137.816168,28.2996661 137.5045,28.413 C137.192832,28.5263339 136.937834,28.684999 136.7395,28.889 C136.541166,29.093001 136.442,29.3536651 136.442,29.671 C136.442,30.135669 136.597832,30.469999 136.9095,30.674 C137.221168,30.878001 137.643331,30.98 138.176,30.98 C138.595335,30.98 138.952332,30.9091674 139.247,30.7675 C139.541668,30.6258326 139.779666,30.4416678 139.961,30.215 C140.142334,29.9883322 140.272666,29.7361681 140.352,29.4585 C140.431334,29.1808319 140.471,28.9060014 140.471,28.634 L140.471,28.124 L139.655,28.124 Z M144.126,19.148 L145.656,19.148 L145.656,25.098 L145.69,25.098 C145.962001,24.6786646 146.352997,24.3471679 146.863,24.1035 C147.373003,23.8598321 147.916997,23.738 148.495,23.738 C149.118336,23.738 149.682164,23.8456656 150.1865,24.061 C150.690836,24.2763344 151.121498,24.5738314 151.4785,24.9535 C151.835502,25.3331686 152.110332,25.7808308 152.303,26.2965 C152.495668,26.8121692 152.592,27.3703303 152.592,27.971 C152.592,28.5716697 152.495668,29.1269974 152.303,29.637 C152.110332,30.1470026 151.835502,30.5946647 151.4785,30.98 C151.121498,31.3653353 150.690836,31.6656656 150.1865,31.881 C149.682164,32.0963344 149.118336,32.204 148.495,32.204 C147.950997,32.204 147.421169,32.0850012 146.9055,31.847 C146.389831,31.6089988 145.984668,31.2746688 145.69,30.844 L145.656,30.844 L145.656,32 L144.126,32 L144.126,19.148 Z M148.308,30.776 C148.716002,30.776 149.084332,30.7051674 149.413,30.5635 C149.741668,30.4218326 150.019332,30.2291679 150.246,29.9855 C150.472668,29.7418321 150.648333,29.4471684 150.773,29.1015 C150.897667,28.7558316 150.96,28.379002 150.96,27.971 C150.96,27.562998 150.897667,27.1861684 150.773,26.8405 C150.648333,26.4948316 150.472668,26.2001679 150.246,25.9565 C150.019332,25.7128321 149.741668,25.5201674 149.413,25.3785 C149.084332,25.2368326 148.716002,25.166 148.308,25.166 C147.899998,25.166 147.531668,25.2368326 147.203,25.3785 C146.874332,25.5201674 146.596668,25.7128321 146.37,25.9565 C146.143332,26.2001679 145.967667,26.4948316 145.843,26.8405 C145.718333,27.1861684 145.656,27.562998 145.656,27.971 C145.656,28.379002 145.718333,28.7558316 145.843,29.1015 C145.967667,29.4471684 146.143332,29.7418321 146.37,29.9855 C146.596668,30.2291679 146.874332,30.4218326 147.203,30.5635 C147.531668,30.7051674 147.899998,30.776 148.308,30.776 Z M158.797,25.965 C158.615666,25.7383322 158.391835,25.5485008 158.1255,25.3955 C157.859165,25.2424992 157.533335,25.166 157.148,25.166 C156.785332,25.166 156.470835,25.2424992 156.2045,25.3955 C155.938165,25.5485008 155.805,25.7723319 155.805,26.067 C155.805,26.3050012 155.881499,26.4976659 156.0345,26.645 C156.187501,26.7923341 156.368832,26.9113329 156.5785,27.002 C156.788168,27.0926671 157.011999,27.1606664 157.25,27.206 C157.488001,27.2513336 157.691999,27.2909998 157.862,27.325 C158.190668,27.4043337 158.499499,27.5006661 158.7885,27.614 C159.077501,27.7273339 159.326832,27.8746658 159.5365,28.056 C159.746168,28.2373342 159.910499,28.458332 160.0295,28.719 C160.148501,28.979668 160.208,29.2969981 160.208,29.671 C160.208,30.1243356 160.111668,30.5124984 159.919,30.8355 C159.726332,31.1585016 159.477002,31.421999 159.171,31.626 C158.864998,31.830001 158.516502,31.9773329 158.1255,32.068 C157.734498,32.1586671 157.340669,32.204 156.944,32.204 C156.27533,32.204 155.688836,32.102001 155.1845,31.898 C154.680164,31.693999 154.229669,31.3200027 153.833,30.776 L154.989,29.824 C155.238335,30.0733346 155.515998,30.2943324 155.822,30.487 C156.128002,30.6796676 156.501998,30.776 156.944,30.776 C157.136668,30.776 157.332166,30.7561669 157.5305,30.7165 C157.728834,30.6768331 157.904499,30.6145004 158.0575,30.5295 C158.210501,30.4444996 158.335166,30.336834 158.4315,30.2065 C158.527834,30.076166 158.576,29.9260009 158.576,29.756 C158.576,29.5293322 158.505167,29.3423341 158.3635,29.195 C158.221833,29.0476659 158.051834,28.9315004 157.8535,28.8465 C157.655166,28.7614996 157.445501,28.6935003 157.2245,28.6425 C157.003499,28.5914997 156.808001,28.5490002 156.638,28.515 C156.309332,28.4356663 155.997668,28.3450005 155.703,28.243 C155.408332,28.1409995 155.147668,28.0050009 154.921,27.835 C154.694332,27.6649991 154.513001,27.449668 154.377,27.189 C154.240999,26.928332 154.173,26.6053353 154.173,26.22 C154.173,25.8006646 154.260832,25.4351682 154.4365,25.1235 C154.612168,24.8118318 154.844499,24.554001 155.1335,24.35 C155.422501,24.145999 155.751165,23.9930005 156.1195,23.891 C156.487835,23.7889995 156.858998,23.738 157.233,23.738 C157.777003,23.738 158.298331,23.839999 158.797,24.044 C159.295669,24.248001 159.692332,24.5879976 159.987,25.064 L158.797,25.965 Z" id="Eloquent-Labs" fill="#1CA6DE"></path>
                    <path d="M38.9777401,46.0331345 C20.2566499,38.2941972 0,47 0,47 C0,47 36.529681,-4.00999281 42.0664998,0.253059658 C47.6033185,4.51611212 27.400104,40.199054 10.738078,36.8797649 C22.4065522,36.8820752 30.3340218,24.7587185 35.7935935,17.2314869 C32.0223726,17.4680503 26.5851114,18.0056645 26.5851114,18.0056645 C26.5851114,18.0056645 30.7464871,16.7763077 37.0416044,14.950072 C41.1835154,9.01444131 41.1965276,3.89002223 39.8317079,3.0041267 C35.8245324,0.40309533 4.31795176,43.3839908 4.31795176,43.3839908 C4.31795176,43.3839908 23.0179613,38.5382543 38.9777401,46.0331345 Z" fill="#29A7DC"></path>
                </g>
            </g>
        </g>
    </g>
</svg>