<?xml version="1.0" encoding="UTF-8"?>
<svg width="302px" height="273px" viewBox="0 0 302 273" version="1.1" xmlns="http://www.w3.org/2000/svg" xmlns:xlink="http://www.w3.org/1999/xlink">
    <!-- Generator: Sketch 49 (51002) - http://www.bohemiancoding.com/sketch -->
    <title>Earth</title>
    <desc>Created with Sketch.</desc>
    <defs>
        <path d="M15.3110331,11.96508 L15.6845547,11.96508 C19.2744055,11.96508 22.1845547,14.8752292 22.1845547,18.46508 C22.1845547,18.7130879 22.1703605,18.9608926 22.1420419,19.2072784 L20.4728479,33.7300792 C20.2004254,36.1002875 18.1938782,37.8894201 15.8080657,37.8894201 L15.8080657,37.8894201 C13.4025626,37.8894201 11.359973,36.1274798 11.0069994,33.7480146 L8.88139098,19.4188631 C8.35463116,15.8678698 10.8062568,12.5621977 14.3572501,12.0354379 C14.6730187,11.9885963 14.9918091,11.96508 15.3110331,11.96508 Z" id="path-1"></path>
        <rect id="path-2" x="11.838834" y="14.95635" width="7.08628955" height="12.96217" rx="3.54314477"></rect>
        <path d="M11.8960935,33.9260137 L28.1138441,37.1975795 C29.76586,37.5308365 31.2421888,38.4489115 32.2717006,39.7831988 L36.0432654,44.6712936 C37.5003218,46.5596954 37.1506473,49.271725 35.2622455,50.7287814 C34.5064214,51.3119615 33.5786682,51.6282744 32.6240116,51.6282744 L6.43429468,51.6282744 C3.07367077,51.6282744 0.349346819,48.9039505 0.349346819,45.5433266 C0.349346819,44.3954389 0.674034571,43.2709622 1.28591477,42.2997522 L4.58929349,37.0564475 C6.13871408,34.5971218 9.04677626,33.3512281 11.8960935,33.9260137 Z" id="path-3"></path>
        <path d="M14.8062303,25.2808814 C15.6962744,23.7624833 17.6675127,23.2422416 19.2091143,24.1188892 C19.297075,24.168909 19.3825861,24.222996 19.4653613,24.2809691 L25.9085374,28.7935691 C26.7263705,29.3663539 26.9678197,30.4577836 26.4660635,31.3137701 C25.9543949,32.1866668 24.8797164,32.5709582 23.9186632,32.224688 L16.3621542,29.5020563 C14.8175771,28.9455407 14.0234891,27.261115 14.588509,25.7397861 C14.6475116,25.5809203 14.7203569,25.4273796 14.8062303,25.2808814 Z" id="path-4"></path>
        <path d="M24.9676139,28.6663376 C25.5267067,27.712536 26.7649658,27.3857394 27.7333429,27.936417 L30.3634458,29.432052 C31.331823,29.9827296 31.6636135,31.202351 31.1045207,32.1561526 C30.5454279,33.1099542 29.3071688,33.4367507 28.3387917,32.8860731 L25.7086888,31.3904381 C24.7403116,30.8397605 24.4085211,29.6201391 24.9676139,28.6663376 Z" id="path-5"></path>
        <path d="M15.2979743,0.997107485 L15.3817782,0.997107485 C18.4567887,0.997107485 20.9495771,3.48989598 20.9495771,6.56490642 L20.9495771,10.1523014 C20.9495771,12.434579 19.0994256,14.2847305 16.8171481,14.2847305 C16.3272224,14.2847305 15.8412002,14.1976102 15.3817782,14.027438 L14.0562505,13.5364559 C11.5064572,12.5919997 9.81397928,10.1602463 9.81397928,7.44115765 L9.81397928,6.4811025 C9.81397928,3.45237568 12.2692475,0.997107485 15.2979743,0.997107485 Z" id="path-6"></path>
        <path d="M7.14858395,41.0787679 L14.2971679,41.0787679 C14.4766614,44.0507843 14.4766614,46.1122515 14.2971679,47.2631694 C13.5735224,51.9032069 12.2537181,54.5913732 12.2537181,55.9935752 C12.2537181,57.9174817 12.934868,62.8890841 14.2971679,70.9083824 L7.14858395,70.9083824 C5.59679871,63.0450941 4.82090608,58.0734916 4.82090608,55.9935752 C4.82090608,53.9136587 5.59679871,48.9420563 7.14858395,41.0787679 Z" id="path-7"></path>
        <path d="M12.9224007,17.9361438 C13.4647372,16.4253891 14.3157591,15.6700117 15.4754664,15.6700117 C16.6351737,15.6700117 17.4861956,16.4253891 18.0285321,17.9361438 L18.0285321,30.0250465 L7.99891555,36.1398625 L6.65042296,32.2303906 L13.2729197,27.8658936 L12.9224007,17.9361438 Z" id="path-8"></path>
        <path d="M7.14858395,16.2207559 C7.90785505,14.5648498 9.09928571,13.7368967 10.7228759,13.7368967 C12.3464661,13.7368967 13.5378968,14.5648498 14.2971679,16.2207559 L14.2971679,42.0730884 L7.14858395,42.0730884 L7.14858395,16.2207559 Z" id="path-9"></path>
        <path d="M7.0235205,17.3778274 C7.565857,15.8670727 8.4168789,15.1116953 9.5765862,15.1116953 C10.7362935,15.1116953 11.5873154,15.8670727 12.1296519,17.3778274 L12.1296519,29.4667301 L6.93817997,41.6283952 L2.08838814,39.6881902 L7.0235205,28.6212868 L7.0235205,17.3778274 Z" id="path-10"></path>
        <path d="M7.51065437,1.30602698 L7.65863625,1.30602698 C10.7606786,1.30602698 13.2753808,3.82072916 13.2753808,6.92277151 L13.2753808,10.3753492 C13.2753808,12.6837032 11.4040901,14.5549939 9.09573605,14.5549939 C8.60546457,14.5549939 8.11901628,14.4687359 7.65863625,14.3001644 L6.30697722,13.8052445 C3.74530764,12.8672705 2.04189172,10.4295373 2.04189172,7.70154424 L2.04189172,6.77478963 C2.04189172,3.75447541 4.49034016,1.30602698 7.51065437,1.30602698 Z" id="path-11"></path>
        <path d="M15.3110331,11.96508 L15.6845547,11.96508 C19.2744055,11.96508 22.1845547,14.8752292 22.1845547,18.46508 C22.1845547,18.7130879 22.1703605,18.9608926 22.1420419,19.2072784 L20.4728479,33.7300792 C20.2004254,36.1002875 18.1938782,37.8894201 15.8080657,37.8894201 L15.8080657,37.8894201 C13.4025626,37.8894201 11.359973,36.1274798 11.0069994,33.7480146 L8.88139098,19.4188631 C8.35463116,15.8678698 10.8062568,12.5621977 14.3572501,12.0354379 C14.6730187,11.9885963 14.9918091,11.96508 15.3110331,11.96508 Z" id="path-12"></path>
        <rect id="path-13" x="11.838834" y="14.95635" width="7.08628955" height="12.96217" rx="3.54314477"></rect>
        <path d="M11.8960935,33.9260137 L28.1138441,37.1975795 C29.76586,37.5308365 31.2421888,38.4489115 32.2717006,39.7831988 L36.0432654,44.6712936 C37.5003218,46.5596954 37.1506473,49.271725 35.2622455,50.7287814 C34.5064214,51.3119615 33.5786682,51.6282744 32.6240116,51.6282744 L6.43429468,51.6282744 C3.07367077,51.6282744 0.349346819,48.9039505 0.349346819,45.5433266 C0.349346819,44.3954389 0.674034571,43.2709622 1.28591477,42.2997522 L4.58929349,37.0564475 C6.13871408,34.5971218 9.04677626,33.3512281 11.8960935,33.9260137 Z" id="path-14"></path>
        <path d="M14.8062303,25.2808814 C15.6962744,23.7624833 17.6675127,23.2422416 19.2091143,24.1188892 C19.297075,24.168909 19.3825861,24.222996 19.4653613,24.2809691 L25.9085374,28.7935691 C26.7263705,29.3663539 26.9678197,30.4577836 26.4660635,31.3137701 C25.9543949,32.1866668 24.8797164,32.5709582 23.9186632,32.224688 L16.3621542,29.5020563 C14.8175771,28.9455407 14.0234891,27.261115 14.588509,25.7397861 C14.6475116,25.5809203 14.7203569,25.4273796 14.8062303,25.2808814 Z" id="path-15"></path>
        <path d="M24.9676139,28.6663376 C25.5267067,27.712536 26.7649658,27.3857394 27.7333429,27.936417 L30.3634458,29.432052 C31.331823,29.9827296 31.6636135,31.202351 31.1045207,32.1561526 C30.5454279,33.1099542 29.3071688,33.4367507 28.3387917,32.8860731 L25.7086888,31.3904381 C24.7403116,30.8397605 24.4085211,29.6201391 24.9676139,28.6663376 Z" id="path-16"></path>
        <path d="M15.2979743,0.997107485 L15.3817782,0.997107485 C18.4567887,0.997107485 20.9495771,3.48989598 20.9495771,6.56490642 L20.9495771,10.1523014 C20.9495771,12.434579 19.0994256,14.2847305 16.8171481,14.2847305 C16.3272224,14.2847305 15.8412002,14.1976102 15.3817782,14.027438 L14.0562505,13.5364559 C11.5064572,12.5919997 9.81397928,10.1602463 9.81397928,7.44115765 L9.81397928,6.4811025 C9.81397928,3.45237568 12.2692475,0.997107485 15.2979743,0.997107485 Z" id="path-17"></path>
        <path d="M7.14858395,41.0787679 L14.2971679,41.0787679 C14.4766614,44.0507843 14.4766614,46.1122515 14.2971679,47.2631694 C13.5735224,51.9032069 12.2537181,54.5913732 12.2537181,55.9935752 C12.2537181,57.9174817 12.934868,62.8890841 14.2971679,70.9083824 L7.14858395,70.9083824 C5.59679871,63.0450941 4.82090608,58.0734916 4.82090608,55.9935752 C4.82090608,53.9136587 5.59679871,48.9420563 7.14858395,41.0787679 Z" id="path-18"></path>
        <path d="M12.9224007,17.9361438 C13.4647372,16.4253891 14.3157591,15.6700117 15.4754664,15.6700117 C16.6351737,15.6700117 17.4861956,16.4253891 18.0285321,17.9361438 L18.0285321,30.0250465 L7.99891555,36.1398625 L6.65042296,32.2303906 L13.2729197,27.8658936 L12.9224007,17.9361438 Z" id="path-19"></path>
        <path d="M7.14858395,16.2207559 C7.90785505,14.5648498 9.09928571,13.7368967 10.7228759,13.7368967 C12.3464661,13.7368967 13.5378968,14.5648498 14.2971679,16.2207559 L14.2971679,42.0730884 L7.14858395,42.0730884 L7.14858395,16.2207559 Z" id="path-20"></path>
        <path d="M7.0235205,17.3778274 C7.565857,15.8670727 8.4168789,15.1116953 9.5765862,15.1116953 C10.7362935,15.1116953 11.5873154,15.8670727 12.1296519,17.3778274 L12.1296519,29.4667301 L6.93817997,41.6283952 L2.08838814,39.6881902 L7.0235205,28.6212868 L7.0235205,17.3778274 Z" id="path-21"></path>
        <path d="M7.51065437,1.30602698 L7.65863625,1.30602698 C10.7606786,1.30602698 13.2753808,3.82072916 13.2753808,6.92277151 L13.2753808,10.3753492 C13.2753808,12.6837032 11.4040901,14.5549939 9.09573605,14.5549939 C8.60546457,14.5549939 8.11901628,14.4687359 7.65863625,14.3001644 L6.30697722,13.8052445 C3.74530764,12.8672705 2.04189172,10.4295373 2.04189172,7.70154424 L2.04189172,6.77478963 C2.04189172,3.75447541 4.49034016,1.30602698 7.51065437,1.30602698 Z" id="path-22"></path>
        <path d="M16.6481956,39.9492817 L23.7876487,39.9492817 C23.9669129,42.9112196 23.9669129,44.9656961 23.7876487,46.1127112 C23.0649274,50.7370137 21.7468089,53.4160641 21.7468089,54.813511 C21.7468089,56.7308934 22.4270888,61.6856365 23.7876487,69.6777403 L16.6481956,69.6777403 C15.0983924,61.8411173 14.3234908,56.8863742 14.3234908,54.813511 C14.3234908,52.7406478 15.0983924,47.7859047 16.6481956,39.9492817 Z" id="path-23"></path>
        <path d="M15.53339,16.8452983 C16.0750337,15.3396667 16.9249686,14.5868509 18.0831946,14.5868509 C19.2414206,14.5868509 20.0913555,15.3396667 20.6329993,16.8452983 L20.6329993,28.893206 L15.4481584,41.0136294 L10.6045612,39.0800039 L15.53339,28.0506297 L15.53339,16.8452983 Z" id="path-24"></path>
        <path d="M16.6481956,15.1755663 C17.4064969,13.5252755 18.5964057,12.7001302 20.2179221,12.7001302 C21.8394385,12.7001302 23.0293474,13.5252755 23.7876487,15.1755663 L23.7876487,40.9402303 L16.6481956,40.9402303 L16.6481956,15.1755663 Z" id="path-25"></path>
        <path d="M11.3329535,12.8200566 C12.4970322,11.1807338 13.6581846,10.3610724 14.8164106,10.3610724 C15.9746366,10.3610724 16.9882304,11.2538102 17.857192,13.0392859 L17.857192,25.0871936 L7.84038633,31.1812735 L5.89412113,26.4833649 L12.5081589,22.1336684 L11.3329535,12.8200566 Z" id="path-26"></path>
        <path d="M21.0790929,1.30236984 L21.2384458,1.30236984 C24.3365259,1.30236984 26.8480161,3.81386 26.8480161,6.91194012 L26.8480161,10.3297865 C26.8480161,12.6362939 24.9782224,14.5060876 22.671715,14.5060876 C22.1827946,14.5060876 21.6976719,14.4202356 21.2384458,14.2524425 L19.8981336,13.7627161 C17.3342946,12.8259346 15.6288755,10.3871106 15.6288755,7.65748963 L15.6288755,6.75258725 C15.6288755,3.74251529 18.069021,1.30236984 21.0790929,1.30236984 Z" id="path-27"></path>
        <path d="M20.9202579,37.5192262 L27.8936771,37.5192262 C28.0687725,40.5243135 28.0687725,42.6087195 27.8936771,43.7724443 C27.1877634,48.4641135 12.949663,45.1498838 12.949663,46.5676887 C12.949663,48.5130034 12.9499872,53.2047988 12.9506358,60.6430748 L5.97721653,60.6430748 C5.79172565,50.6815188 5.69898021,44.6492104 5.69898021,42.5461498 C5.69898021,40.4430892 10.7727394,38.767448 20.9202579,37.5192262 Z" id="path-28"></path>
        <path d="M13.7596584,11.5162945 C14.2887058,9.98872892 15.1188747,9.22494614 16.2501653,9.22494614 C17.3814558,9.22494614 18.2116247,9.98872892 18.7406721,11.5162945 L18.7406721,23.7397157 L13.676409,36.0367089 L8.94545356,34.0749145 L13.7596584,22.8848648 L13.7596584,11.5162945 Z" id="path-29"></path>
        <path d="M20.9202579,16.406147 C21.6609242,14.7318149 22.8231608,13.8946489 24.4069675,13.8946489 C25.9907742,13.8946489 27.1530108,14.7318149 27.8936771,16.406147 L27.8936771,38.5246109 L20.9202579,38.5246109 L20.9202579,16.406147 Z" id="path-30"></path>
        <path d="M19.5470729,15.4072331 C20.0761203,13.8796675 20.9062893,13.1158848 22.0375798,13.1158848 C23.1688703,13.1158848 23.9990393,13.8796675 24.5280867,15.4072331 L24.5280867,27.6306543 L14.74423,33.8135125 L13.42878,29.8605383 L19.889003,25.4474756 L19.5470729,15.4072331 Z" id="path-31"></path>
        <path d="M21.4185533,1.32534904 L21.4185533,1.32534904 C24.4445851,1.32534904 26.8976685,3.77843245 26.8976685,6.80446419 L26.8976685,10.6831132 C26.8976685,12.9166189 25.0870543,14.7272331 22.8535486,14.7272331 C22.363219,14.7272331 21.8769767,14.638064 21.4185533,14.4640779 L20.1330107,13.9761739 C17.6086487,13.018099 15.9394382,10.5991934 15.9394382,7.89913583 L15.9394382,6.80446419 C15.9394382,3.77843245 18.3925216,1.32534904 21.4185533,1.32534904 Z" id="path-32"></path>
        <path d="M17.3369337,35.3573494 L24.4756711,35.3573494 C24.6549174,38.2929841 24.6549174,40.329216 24.4756711,41.4660451 C23.7530224,46.0492819 9.17738076,42.8116497 9.17738076,44.1966867 C9.17738076,46.0970419 9.17771273,50.680402 9.17837668,57.946767 L2.03963926,57.946767 C1.84975097,48.2154393 1.75480683,42.3225477 1.75480683,40.2680923 C1.75480683,38.213637 6.94884913,36.5767227 17.3369337,35.3573494 Z" id="path-33"></path>
        <path d="M12.8717359,13.7564016 C13.4133254,12.2641406 14.2631751,11.5180101 15.421285,11.5180101 C16.5793949,11.5180101 17.4292446,12.2641406 17.9708341,13.7564016 L17.9708341,25.697319 L7.95503248,31.737281 L6.60839732,27.8756666 L13.2217721,23.5645972 L12.8717359,13.7564016 Z" id="path-34"></path>
        <path d="M15.2972945,14.7322289 C16.0555197,13.0965934 17.2453093,12.2787757 18.8666632,12.2787757 C20.488017,12.2787757 21.6778066,13.0965934 22.4360319,14.7322289 L24.4756711,24.8539224 L24.4756711,36.339498 L17.3369337,36.339498 L17.3369337,24.687993 L15.2972945,14.7322289 Z" id="path-35"></path>
        <path d="M11.7262578,11.8184553 C12.2678472,10.3261944 13.1176969,9.5800639 14.2758068,9.5800639 C15.4339167,9.5800639 16.2837664,10.3261944 16.8253559,11.8184553 L19.2739911,24.8759809 L3.36687007,20.8020806 L4.55934342,15.8758761 L13.1005399,18.4735735 L11.7262578,11.8184553 Z" id="path-36"></path>
        <path d="M14.5798473,0.98216959 L14.787038,0.98216959 C17.8848076,0.98216959 20.396046,3.493408 20.396046,6.59117756 L20.396046,9.88313359 C20.396046,12.1939908 18.522726,14.0673108 16.2118688,14.0673108 C15.7260085,14.0673108 15.2438605,13.9826895 14.787038,13.8172404 L13.4645961,13.3382864 C10.8917667,12.4064748 9.17803004,9.9631343 9.17803004,7.22676369 L9.17803004,6.38398685 C9.17803004,3.40064556 11.596506,0.98216959 14.5798473,0.98216959 Z" id="path-37"></path>
        <polygon id="path-38" points="17.8706872 28.739841 26.3901325 24.9911661 34.7485585 28.739841 34.7485585 29.9893993 17.8706872 29.9893993"></polygon>
        <path d="M4.34935568,8.40939192 C7.46409451,7.50152488 9.83184583,7.04759136 11.4526096,7.04759136 C13.0733734,7.04759136 15.4411247,7.50152488 18.5558636,8.40939192 L22.9306541,19.1291765 L18.5558636,22.4217572 L18.5558636,31.2107617 L4.34935568,31.2107617 L4.34935568,22.4217572 L0,19.1291765 L4.34935568,8.40939192 Z" id="path-39"></path>
        <rect id="path-40" x="7.97587968" y="16.1087802" width="6.97889472" height="10.0679877"></rect>
        <path d="M10.9788947,0 L12.9487443,0 C15.1578833,-4.05812251e-16 16.9487443,1.790861 16.9487443,4 L16.9487443,7.07478642 C16.9487443,9.28392542 15.1578833,11.0747864 12.9487443,11.0747864 L10.9788947,11.0747864 C8.76975572,11.0747864 6.97889472,9.28392542 6.97889472,7.07478642 L6.97889472,4 C6.97889472,1.790861 8.76975572,4.05812251e-16 10.9788947,0 Z" id="path-41"></path>
        <path d="M8.47437216,30.203963 L17.2478398,30.203963 L19.4348451,45.2183417 L19.4412067,60.4079259 L11.7644225,60.4079259 L11.7727533,45.4206636 L11.465327,44.0023882 L11.1579008,45.4206636 L11.1662315,60.4079259 L3.48944736,60.4079259 L3.49580894,45.2183417 L5.68281427,30.203963 L8.47437216,30.203963 Z" id="path-42"></path>
        <path d="M5.42366396,7.23050648 L9.24231982,7.23050648 C11.4514588,7.23050648 13.2423198,9.02136748 13.2423198,11.2305065 C13.2423198,11.635672 13.1807622,12.0384861 13.0597541,12.4251593 L10.5027314,20.5959567 C10.0663182,21.9904863 8.77452371,22.9397973 7.31330185,22.9397973 L7.31330185,22.9397973 C5.85309642,22.9397973 4.56322665,21.988507 4.13187535,20.5934672 L1.6021749,12.4121246 C0.949585231,10.3015745 2.13149571,8.06160709 4.24204584,7.40901742 C4.62475778,7.29068152 5.02307462,7.23050648 5.42366396,7.23050648 Z" id="path-43"></path>
        <path d="M7.41485154,0.0868500725 L7.41485154,0.0868500725 C10.0135338,0.0868500725 12.1201821,2.19349831 12.1201821,4.79218062 C12.1201821,5.00313565 12.1059954,5.21385191 12.0777181,5.42290314 L11.8401658,7.17910312 C11.5377292,9.41498524 9.62894232,11.0829631 7.37269838,11.0829631 L7.37269838,11.0829631 C5.12070784,11.0829631 3.21970651,9.40911301 2.93466792,7.17523424 L2.71174865,5.42819139 C2.38031883,2.83073939 4.21729276,0.456411542 6.81474477,0.12498172 C7.01377202,0.0995862295 7.21421062,0.0868500725 7.41485154,0.0868500725 Z" id="path-44"></path>
        <path d="M12.727349,10.2294464 L12.727349,10.2294464 C13.7167483,10.2294464 14.518815,11.0315131 14.518815,12.0209124 C14.518815,12.0739484 14.5164598,12.1269582 14.5117564,12.1797852 L13.8366105,19.7628054 C13.7628876,20.5908376 13.0691432,21.2255595 12.2378356,21.2255595 L12.2378356,21.2255595 C11.4267832,21.2255595 10.7692953,20.5680716 10.7692953,19.7570192 L10.7692953,12.1875001 C10.7692953,11.1060969 11.6459458,10.2294464 12.727349,10.2294464 Z" id="path-45"></path>
        <path d="M2.12464139,10.2294464 L2.12464139,10.2294464 C3.11404074,10.2294464 3.91610738,11.0315131 3.91610738,12.0209124 C3.91610738,12.0739484 3.91375221,12.1269582 3.90904881,12.1797852 L3.23390294,19.7628054 C3.16018,20.5908376 2.46643562,21.2255595 1.63512797,21.2255595 L1.63512797,21.2255595 C0.824075571,21.2255595 0.166587698,20.5680716 0.166587698,19.7570192 L0.166587698,12.1875001 C0.166587698,11.1060969 1.0432382,10.2294464 2.12464139,10.2294464 Z" id="path-46"></path>
        <path d="M21.7773837,17.6720409 L21.7773837,34.9532613 L7.41885677,34.9532613 L7.41885677,26.225051 L7.35615046,26.3802546 L6.23177823,38.5758476 L0.599001664,37.7148299 L2.24254314,23.2355833 L7.41885677,12.7820833 L7.41885677,12.336109 C10.5669254,11.4355768 12.9600132,10.9853107 14.5981202,10.9853107 C16.0679131,10.9853107 18.14551,11.3478015 20.8309109,12.072783 L20.8685936,11.9746161 L43.4246891,20.6330899 L41.6352421,25.2947585 L21.7773837,17.6720409 Z" id="path-47"></path>
        <path d="M14.0757555,0.998611333 L16.1522891,0.998611333 C18.3614281,0.998611333 20.1522891,2.78947233 20.1522891,4.99861133 L20.1522891,9.06839322 C20.1522891,11.2775322 18.3614281,13.0683932 16.1522891,13.0683932 C15.9013953,13.0683932 15.6510579,13.0447879 15.4045864,12.9978895 L13.3280528,12.6027676 C11.4410922,12.2437177 10.0757555,10.5940882 10.0757555,8.67327139 L10.0757555,4.99861133 C10.0757555,2.78947233 11.8666165,0.998611333 14.0757555,0.998611333 Z" id="path-48"></path>
        <path d="M11.5880137,33.9545967 L20.4553632,33.9545967 L22.665771,48.8476709 L22.6722006,63.914535 L14.9132698,63.914535 L14.9216896,49.0483582 L14.6109737,47.6415414 L14.3002579,49.0483582 L14.3086777,63.914535 L6.54974685,63.914535 L6.5561765,48.8476709 L8.76658425,33.9545967 L11.5880137,33.9545967 Z" id="path-49"></path>
        <path d="M3.82251885,7.17393614 C6.55996981,6.38597049 8.64091575,5.99198766 10.0653567,5.99198766 C11.4897976,5.99198766 13.5707435,6.38597049 16.3081945,7.17393614 L20.1530672,16.4779661 L16.3081945,19.3356978 L16.3081945,26.9639445 L3.82251885,26.9639445 L3.82251885,19.3356978 L0,16.4779661 L3.82251885,7.17393614 Z" id="path-50"></path>
        <rect id="path-51" x="7.05357353" y="13.9813045" width="6.04592017" height="8.98798149"></rect>
        <path d="M10.0459202,0 L11.1148004,0 C13.3239394,-4.05812251e-16 15.1148004,1.790861 15.1148004,4 L15.1148004,5.9866461 C15.1148004,8.1957851 13.3239394,9.9866461 11.1148004,9.9866461 L10.0459202,9.9866461 C7.83678117,9.9866461 6.04592017,8.1957851 6.04592017,5.9866461 L6.04592017,4 C6.04592017,1.790861 7.83678117,4.05812251e-16 10.0459202,0 Z" id="path-52"></path>
        <path d="M7.43144354,25.9652799 L15.1903744,25.9652799 L17.1244812,38.8726108 L17.1301071,51.9305597 L10.3410426,51.9305597 L10.34841,39.0465398 L10.0765336,37.8272985 L9.80465721,39.0465398 L9.81202461,51.9305597 L3.02296008,51.9305597 L3.02858603,38.8726108 L4.96269281,25.9652799 L7.43144354,25.9652799 Z" id="path-53"></path>
    </defs>
    <g id="Page-1" stroke="none" stroke-width="1" fill="none" fill-rule="evenodd">
        <g id="Home" transform="translate(-241.000000, -275.000000)">
            <g id="Earth" transform="translate(237.000000, 271.000000)">
                <circle id="Oval-2-Copy-2" fill="#FEFAFE" cx="143.5" cy="138.5" r="124.5"></circle>
                <circle id="Oval-2-Copy" fill="#FFF4FE" cx="141" cy="135" r="102"></circle>
                <g id="Group-2" transform="translate(39.862181, 164.519369) rotate(-106.000000) translate(-39.862181, -164.519369) translate(21.362181, 138.519369)">
                    <g id="Rectangle-32">
                        <use fill="#E2F4FA" fill-rule="evenodd" xlink:href="#path-1"></use>
                        <path stroke="#1CA6DE" stroke-width="1" d="M15.3110331,12.46508 C15.0163648,12.46508 14.7220968,12.4867873 14.430618,12.5300257 C11.152778,13.0162656 8.889739,16.0676552 9.37597883,19.3454951 L11.5015873,33.6746466 C11.8181988,35.8089883 13.6503685,37.3894201 15.8080657,37.3894201 C17.9398248,37.3894201 19.7327046,35.7908035 19.9761181,33.672987 L21.6453121,19.1501862 C21.6714524,18.9227531 21.6845547,18.6940104 21.6845547,18.46508 C21.6845547,15.1513715 18.9982631,12.46508 15.6845547,12.46508 L15.3110331,12.46508 Z"></path>
                    </g>
                    <g id="Rectangle-32-Copy-2">
                        <use fill="#FFFFFF" fill-rule="evenodd" xlink:href="#path-2"></use>
                        <rect stroke="#1CA6DE" stroke-width="1" x="12.338834" y="15.45635" width="6.08628955" height="11.96217" rx="3.04314477"></rect>
                    </g>
                    <g id="Rectangle">
                        <use fill="#FFFFFF" fill-rule="evenodd" xlink:href="#path-3"></use>
                        <path stroke="#1CA6DE" stroke-width="1" d="M11.7972214,34.4161405 C9.15142687,33.882411 6.45108342,35.0393124 5.01233573,37.322972 L1.70895701,42.5662766 C1.14735499,43.4576823 0.849346819,44.4897608 0.849346819,45.5433266 C0.849346819,48.6278081 3.34981315,51.1282744 6.43429468,51.1282744 L32.6240116,51.1282744 C33.4681435,51.1282744 34.2884867,50.8485824 34.9568058,50.3329196 C36.6265791,49.0445529 36.9357703,46.6465067 35.6474037,44.9767334 L31.8758388,40.0886385 C30.9198636,38.8496575 29.5489868,37.9971592 28.014972,37.6877063 L11.7972214,34.4161405 Z"></path>
                    </g>
                    <g id="Rectangle-32-Copy-3">
                        <use fill="#FFFFFF" fill-rule="evenodd" xlink:href="#path-4"></use>
                        <path stroke="#1CA6DE" stroke-width="1" d="M15.2375856,25.5337303 C15.1664284,25.6551232 15.1060868,25.7823089 15.0572262,25.9138671 C14.589475,27.1732978 15.2474279,28.5689527 16.5316401,29.031658 L24.088149,31.7542897 C24.8234471,32.0192197 25.6452321,31.7253598 26.0347081,31.0609212 C26.4044113,30.4302147 26.2266823,29.6268215 25.6217049,29.2031141 L19.1785287,24.6905141 C19.1085811,24.641525 19.0363084,24.5958114 18.9619524,24.5535281 C17.6574473,23.8117079 15.9888569,24.2520759 15.2375856,25.5337303 Z"></path>
                    </g>
                    <g id="Rectangle-32-Copy-4" transform="translate(28.036067, 30.411245) rotate(-32.000000) translate(-28.036067, -30.411245) ">
                        <use fill="#FFFFFF" fill-rule="evenodd" xlink:href="#path-5"></use>
                        <path stroke="#1CA6DE" stroke-width="1" d="M25.3989693,28.9191865 C24.9812585,29.631793 25.2290024,30.5424695 25.9558506,30.9557992 L28.5859535,32.4514342 C29.3172342,32.8672844 30.2528453,32.6203615 30.6731653,31.9033037 C31.0908761,31.1906971 30.8431322,30.2800207 30.1162839,29.866691 L27.486181,28.371056 C26.7549004,27.9552057 25.8192893,28.2021286 25.3989693,28.9191865 Z"></path>
                    </g>
                    <ellipse id="Oval" stroke="#1CA6DE" fill="#E2F4FA" cx="8.29568926" cy="37.3908751" rx="2.5308177" ry="2.49272501"></ellipse>
                    <ellipse id="Oval-Copy" stroke="#1CA6DE" fill="#E2F4FA" cx="28.5422308" cy="40.3821451" rx="2.5308177" ry="2.49272501"></ellipse>
                    <ellipse id="Oval-Copy-2" stroke="#1CA6DE" fill="#E2F4FA" cx="5.25870802" cy="46.3646851" rx="4.55547185" ry="4.48690501"></ellipse>
                    <ellipse id="Oval-Copy-3" stroke="#1CA6DE" fill="#E2F4FA" cx="32.5915391" cy="47.3617751" rx="3.54314477" ry="3.48981501"></ellipse>
                    <g id="Rectangle-32-Copy" transform="translate(15.381778, 7.640919) rotate(-10.000000) translate(-15.381778, -7.640919) ">
                        <use fill="#FFFFFF" fill-rule="evenodd" xlink:href="#path-6"></use>
                        <path stroke="#1CA6DE" stroke-width="1" d="M15.2979743,1.49710749 C12.5453899,1.49710749 10.3139793,3.72851806 10.3139793,6.4811025 L10.3139793,7.44115765 C10.3139793,9.95108565 11.8762666,12.1957811 14.2299219,13.0675868 L15.5554497,13.5585689 C15.9592842,13.7081512 16.3865006,13.7847305 16.8171481,13.7847305 C18.8232833,13.7847305 20.4495771,12.1584366 20.4495771,10.1523014 L20.4495771,6.56490642 C20.4495771,3.76603835 18.1806463,1.49710749 15.3817782,1.49710749 L15.2979743,1.49710749 Z"></path>
                    </g>
                </g>
                <g id="Group" transform="translate(37.000000, 87.500000) rotate(-60.000000) translate(-37.000000, -87.500000) translate(26.000000, 52.000000)">
                    <g id="Rectangle-33">
                        <use fill="#E2F4FA" fill-rule="evenodd" xlink:href="#path-7"></use>
                        <path stroke="#1CA6DE" stroke-width="1" d="M7.55973772,41.5787679 C6.06791946,49.173388 5.32090608,53.9944877 5.32090608,55.9935752 C5.32090608,57.9926626 6.06791946,62.8137623 7.55973772,70.4083824 L13.7053581,70.4083824 C12.4034438,62.698647 11.7537181,57.9096682 11.7537181,55.9935752 C11.7537181,55.4973997 11.8764294,54.9220624 12.1646677,53.921459 C12.2379531,53.6670529 12.5266653,52.6941076 12.5665035,52.5581533 C12.7425584,51.9573364 12.885041,51.4487686 13.0223861,50.9215538 C13.3438247,49.6876759 13.601845,48.4768311 13.8031398,47.1861224 C13.9661695,46.140771 13.9750079,44.264687 13.825372,41.5787679 L7.55973772,41.5787679 Z"></path>
                    </g>
                    <g id="Rectangle-33-Copy-3" transform="translate(12.339478, 25.904937) rotate(-25.000000) translate(-12.339478, -25.904937) ">
                        <use fill="#FFFFFF" fill-rule="evenodd" xlink:href="#path-8"></use>
                        <path stroke="#1CA6DE" stroke-width="1" d="M13.4255445,18.0163834 L13.7825141,28.1288686 L7.24966117,32.4342867 L8.26902978,35.3895813 L17.5285321,29.7442855 L17.5285321,18.0247819 C17.0528558,16.7513886 16.3794596,16.1700117 15.4754664,16.1700117 C14.5734629,16.1700117 13.9010424,16.7488321 13.4255445,18.0163834 Z"></path>
                    </g>
                    <g id="Rectangle-33-Copy">
                        <use fill="#FFFFFF" fill-rule="evenodd" xlink:href="#path-9"></use>
                        <path stroke="#1CA6DE" stroke-width="1" d="M7.64858395,16.3321295 L7.64858395,41.5730884 L13.7971679,41.5730884 L13.7971679,16.3321295 C13.1169528,14.913933 12.1120714,14.2368967 10.7228759,14.2368967 C9.3336804,14.2368967 8.32879909,14.913933 7.64858395,16.3321295 Z"></path>
                    </g>
                    <g id="Rectangle-33-Copy-2" transform="translate(7.109020, 28.370045) rotate(5.000000) translate(-7.109020, -28.370045) ">
                        <use fill="#FFFFFF" fill-rule="evenodd" xlink:href="#path-10"></use>
                        <path stroke="#1CA6DE" stroke-width="1" d="M7.5235205,17.4664655 L7.5235205,28.6212868 L7.48017311,28.8249247 L2.75676081,39.4170515 L6.67018004,40.9826517 L11.6296519,29.3644756 L11.6296519,17.4664655 C11.1539757,16.1930722 10.4805794,15.6116953 9.5765862,15.6116953 C8.67259296,15.6116953 7.99919671,16.1930722 7.5235205,17.4664655 Z"></path>
                    </g>
                    <g id="Rectangle-32-Copy-5" transform="translate(7.658636, 7.930510) scale(-1, 1) rotate(16.000000) translate(-7.658636, -7.930510) ">
                        <use fill="#FFFFFF" fill-rule="evenodd" xlink:href="#path-11"></use>
                        <path stroke="#1CA6DE" stroke-width="1" d="M7.51065437,1.80602698 C4.76648254,1.80602698 2.54189172,4.03061779 2.54189172,6.77478963 L2.54189172,7.70154424 C2.54189172,10.2196917 4.11427564,12.4699069 6.47889372,13.3357291 L7.83055275,13.830649 C8.23585872,13.9790547 8.66411447,14.0549939 9.09573605,14.0549939 C11.1279477,14.0549939 12.7753808,12.4075608 12.7753808,10.3753492 L12.7753808,6.92277151 C12.7753808,4.09687153 10.4845362,1.80602698 7.65863625,1.80602698 L7.51065437,1.80602698 Z"></path>
                    </g>
                </g>
                <g id="Group-2" transform="translate(232.735040, 193.424024) rotate(-238.000000) translate(-232.735040, -193.424024) translate(214.235040, 167.424024)">
                    <g id="Rectangle-32">
                        <use fill="#E2F4FA" fill-rule="evenodd" xlink:href="#path-12"></use>
                        <path stroke="#1CA6DE" stroke-width="1" d="M15.3110331,12.46508 C15.0163648,12.46508 14.7220968,12.4867873 14.430618,12.5300257 C11.152778,13.0162656 8.889739,16.0676552 9.37597883,19.3454951 L11.5015873,33.6746466 C11.8181988,35.8089883 13.6503685,37.3894201 15.8080657,37.3894201 C17.9398248,37.3894201 19.7327046,35.7908035 19.9761181,33.672987 L21.6453121,19.1501862 C21.6714524,18.9227531 21.6845547,18.6940104 21.6845547,18.46508 C21.6845547,15.1513715 18.9982631,12.46508 15.6845547,12.46508 L15.3110331,12.46508 Z"></path>
                    </g>
                    <g id="Rectangle-32-Copy-2">
                        <use fill="#FFFFFF" fill-rule="evenodd" xlink:href="#path-13"></use>
                        <rect stroke="#1CA6DE" stroke-width="1" x="12.338834" y="15.45635" width="6.08628955" height="11.96217" rx="3.04314477"></rect>
                    </g>
                    <g id="Rectangle">
                        <use fill="#FFFFFF" fill-rule="evenodd" xlink:href="#path-14"></use>
                        <path stroke="#1CA6DE" stroke-width="1" d="M11.7972214,34.4161405 C9.15142687,33.882411 6.45108342,35.0393124 5.01233573,37.322972 L1.70895701,42.5662766 C1.14735499,43.4576823 0.849346819,44.4897608 0.849346819,45.5433266 C0.849346819,48.6278081 3.34981315,51.1282744 6.43429468,51.1282744 L32.6240116,51.1282744 C33.4681435,51.1282744 34.2884867,50.8485824 34.9568058,50.3329196 C36.6265791,49.0445529 36.9357703,46.6465067 35.6474037,44.9767334 L31.8758388,40.0886385 C30.9198636,38.8496575 29.5489868,37.9971592 28.014972,37.6877063 L11.7972214,34.4161405 Z"></path>
                    </g>
                    <g id="Rectangle-32-Copy-3">
                        <use fill="#FFFFFF" fill-rule="evenodd" xlink:href="#path-15"></use>
                        <path stroke="#1CA6DE" stroke-width="1" d="M15.2375856,25.5337303 C15.1664284,25.6551232 15.1060868,25.7823089 15.0572262,25.9138671 C14.589475,27.1732978 15.2474279,28.5689527 16.5316401,29.031658 L24.088149,31.7542897 C24.8234471,32.0192197 25.6452321,31.7253598 26.0347081,31.0609212 C26.4044113,30.4302147 26.2266823,29.6268215 25.6217049,29.2031141 L19.1785287,24.6905141 C19.1085811,24.641525 19.0363084,24.5958114 18.9619524,24.5535281 C17.6574473,23.8117079 15.9888569,24.2520759 15.2375856,25.5337303 Z"></path>
                    </g>
                    <g id="Rectangle-32-Copy-4" transform="translate(28.036067, 30.411245) rotate(-32.000000) translate(-28.036067, -30.411245) ">
                        <use fill="#FFFFFF" fill-rule="evenodd" xlink:href="#path-16"></use>
                        <path stroke="#1CA6DE" stroke-width="1" d="M25.3989693,28.9191865 C24.9812585,29.631793 25.2290024,30.5424695 25.9558506,30.9557992 L28.5859535,32.4514342 C29.3172342,32.8672844 30.2528453,32.6203615 30.6731653,31.9033037 C31.0908761,31.1906971 30.8431322,30.2800207 30.1162839,29.866691 L27.486181,28.371056 C26.7549004,27.9552057 25.8192893,28.2021286 25.3989693,28.9191865 Z"></path>
                    </g>
                    <ellipse id="Oval" stroke="#1CA6DE" fill="#E2F4FA" cx="8.29568926" cy="37.3908751" rx="2.5308177" ry="2.49272501"></ellipse>
                    <ellipse id="Oval-Copy" stroke="#1CA6DE" fill="#E2F4FA" cx="28.5422308" cy="40.3821451" rx="2.5308177" ry="2.49272501"></ellipse>
                    <ellipse id="Oval-Copy-2" stroke="#1CA6DE" fill="#E2F4FA" cx="5.25870802" cy="46.3646851" rx="4.55547185" ry="4.48690501"></ellipse>
                    <ellipse id="Oval-Copy-3" stroke="#1CA6DE" fill="#E2F4FA" cx="32.5915391" cy="47.3617751" rx="3.54314477" ry="3.48981501"></ellipse>
                    <g id="Rectangle-32-Copy" transform="translate(15.381778, 7.640919) rotate(-10.000000) translate(-15.381778, -7.640919) ">
                        <use fill="#FFFFFF" fill-rule="evenodd" xlink:href="#path-17"></use>
                        <path stroke="#1CA6DE" stroke-width="1" d="M15.2979743,1.49710749 C12.5453899,1.49710749 10.3139793,3.72851806 10.3139793,6.4811025 L10.3139793,7.44115765 C10.3139793,9.95108565 11.8762666,12.1957811 14.2299219,13.0675868 L15.5554497,13.5585689 C15.9592842,13.7081512 16.3865006,13.7847305 16.8171481,13.7847305 C18.8232833,13.7847305 20.4495771,12.1584366 20.4495771,10.1523014 L20.4495771,6.56490642 C20.4495771,3.76603835 18.1806463,1.49710749 15.3817782,1.49710749 L15.2979743,1.49710749 Z"></path>
                    </g>
                </g>
                <g id="Group" transform="translate(188.000000, 244.500000) rotate(-198.000000) translate(-188.000000, -244.500000) translate(177.000000, 209.000000)">
                    <g id="Rectangle-33">
                        <use fill="#E2F4FA" fill-rule="evenodd" xlink:href="#path-18"></use>
                        <path stroke="#1CA6DE" stroke-width="1" d="M7.55973772,41.5787679 C6.06791946,49.173388 5.32090608,53.9944877 5.32090608,55.9935752 C5.32090608,57.9926626 6.06791946,62.8137623 7.55973772,70.4083824 L13.7053581,70.4083824 C12.4034438,62.698647 11.7537181,57.9096682 11.7537181,55.9935752 C11.7537181,55.4973997 11.8764294,54.9220624 12.1646677,53.921459 C12.2379531,53.6670529 12.5266653,52.6941076 12.5665035,52.5581533 C12.7425584,51.9573364 12.885041,51.4487686 13.0223861,50.9215538 C13.3438247,49.6876759 13.601845,48.4768311 13.8031398,47.1861224 C13.9661695,46.140771 13.9750079,44.264687 13.825372,41.5787679 L7.55973772,41.5787679 Z"></path>
                    </g>
                    <g id="Rectangle-33-Copy-3" transform="translate(12.339478, 25.904937) rotate(-25.000000) translate(-12.339478, -25.904937) ">
                        <use fill="#FFFFFF" fill-rule="evenodd" xlink:href="#path-19"></use>
                        <path stroke="#1CA6DE" stroke-width="1" d="M13.4255445,18.0163834 L13.7825141,28.1288686 L7.24966117,32.4342867 L8.26902978,35.3895813 L17.5285321,29.7442855 L17.5285321,18.0247819 C17.0528558,16.7513886 16.3794596,16.1700117 15.4754664,16.1700117 C14.5734629,16.1700117 13.9010424,16.7488321 13.4255445,18.0163834 Z"></path>
                    </g>
                    <g id="Rectangle-33-Copy">
                        <use fill="#FFFFFF" fill-rule="evenodd" xlink:href="#path-20"></use>
                        <path stroke="#1CA6DE" stroke-width="1" d="M7.64858395,16.3321295 L7.64858395,41.5730884 L13.7971679,41.5730884 L13.7971679,16.3321295 C13.1169528,14.913933 12.1120714,14.2368967 10.7228759,14.2368967 C9.3336804,14.2368967 8.32879909,14.913933 7.64858395,16.3321295 Z"></path>
                    </g>
                    <g id="Rectangle-33-Copy-2" transform="translate(7.109020, 28.370045) rotate(5.000000) translate(-7.109020, -28.370045) ">
                        <use fill="#FFFFFF" fill-rule="evenodd" xlink:href="#path-21"></use>
                        <path stroke="#1CA6DE" stroke-width="1" d="M7.5235205,17.4664655 L7.5235205,28.6212868 L7.48017311,28.8249247 L2.75676081,39.4170515 L6.67018004,40.9826517 L11.6296519,29.3644756 L11.6296519,17.4664655 C11.1539757,16.1930722 10.4805794,15.6116953 9.5765862,15.6116953 C8.67259296,15.6116953 7.99919671,16.1930722 7.5235205,17.4664655 Z"></path>
                    </g>
                    <g id="Rectangle-32-Copy-5" transform="translate(7.658636, 7.930510) scale(-1, 1) rotate(16.000000) translate(-7.658636, -7.930510) ">
                        <use fill="#FFFFFF" fill-rule="evenodd" xlink:href="#path-22"></use>
                        <path stroke="#1CA6DE" stroke-width="1" d="M7.51065437,1.80602698 C4.76648254,1.80602698 2.54189172,4.03061779 2.54189172,6.77478963 L2.54189172,7.70154424 C2.54189172,10.2196917 4.11427564,12.4699069 6.47889372,13.3357291 L7.83055275,13.830649 C8.23585872,13.9790547 8.66411447,14.0549939 9.09573605,14.0549939 C11.1279477,14.0549939 12.7753808,12.4075608 12.7753808,10.3753492 L12.7753808,6.92277151 C12.7753808,4.09687153 10.4845362,1.80602698 7.65863625,1.80602698 L7.51065437,1.80602698 Z"></path>
                    </g>
                </g>
                <g id="Group-Copy-3" transform="translate(259.500000, 125.000000) scale(-1, 1) rotate(-81.000000) translate(-259.500000, -125.000000) translate(245.000000, 90.000000)">
                    <g id="Rectangle-33">
                        <use fill="#E2F4FA" fill-rule="evenodd" xlink:href="#path-23"></use>
                        <path stroke="#1CA6DE" stroke-width="1" d="M17.0591815,40.4492817 C15.5694604,48.0172794 14.8234908,52.8215524 14.8234908,54.813511 C14.8234908,56.8054696 15.5694604,61.6097426 17.0591815,69.1777403 L23.1956303,69.1777403 C21.8955918,61.4952334 21.2468089,56.7231439 21.2468089,54.813511 C21.2468089,54.3186769 21.3693981,53.745129 21.6573367,52.7476813 C21.7305318,52.4941264 22.0188777,51.5244724 22.0586625,51.3889877 C22.2344859,50.7902307 22.37678,50.2834108 22.5139424,49.7580117 C22.8349496,48.5283979 23.0926222,47.3217439 23.2936455,46.0355046 C23.4563986,44.9941352 23.4652519,43.1250862 23.3159071,40.4492817 L17.0591815,40.4492817 Z"></path>
                    </g>
                    <g id="Rectangle-33-Copy-2" transform="translate(15.618780, 27.800240) rotate(10.000000) translate(-15.618780, -27.800240) ">
                        <use fill="#FFFFFF" fill-rule="evenodd" xlink:href="#path-24"></use>
                        <path stroke="#1CA6DE" stroke-width="1" d="M16.03339,16.9341217 L16.03339,28.0506297 L15.9898818,28.2546277 L11.2734702,38.8086704 L15.1803656,40.3683527 L20.1329993,28.790752 L20.1329993,16.9341217 C19.658134,15.665868 18.9859367,15.0868509 18.0831946,15.0868509 C17.1804526,15.0868509 16.5082552,15.665868 16.03339,16.9341217 Z"></path>
                    </g>
                    <g id="Rectangle-33-Copy">
                        <use fill="#FFFFFF" fill-rule="evenodd" xlink:href="#path-25"></use>
                        <path stroke="#1CA6DE" stroke-width="1" d="M17.1481956,15.2871654 L17.1481956,40.4402303 L23.2876487,40.4402303 L23.2876487,15.2871654 C22.6085209,13.8745735 21.6051946,13.2001302 20.2179221,13.2001302 C18.8306496,13.2001302 17.8273234,13.8745735 17.1481956,15.2871654 Z"></path>
                    </g>
                    <g id="Rectangle-33-Copy-3" transform="translate(11.875657, 20.771173) rotate(45.000000) translate(-11.875657, -20.771173) ">
                        <use fill="#FFFFFF" fill-rule="evenodd" xlink:href="#path-26"></use>
                        <path stroke="#1CA6DE" stroke-width="1" d="M11.8536898,12.9529729 L13.0432331,22.380214 L6.51428696,26.6739503 L8.07899183,30.450846 L17.357192,24.806123 L17.357192,13.155859 C16.5767156,11.5943112 15.7250237,10.8610724 14.8164106,10.8610724 C13.8852702,10.8610724 12.8923981,11.5389656 11.8536898,12.9529729 Z"></path>
                    </g>
                    <g id="Rectangle-32-Copy-5" transform="translate(21.238446, 7.904229) scale(-1, 1) rotate(-16.000000) translate(-21.238446, -7.904229) ">
                        <use fill="#FFFFFF" fill-rule="evenodd" xlink:href="#path-27"></use>
                        <path stroke="#1CA6DE" stroke-width="1" d="M21.0790929,1.80236984 C18.3451634,1.80236984 16.1288755,4.01865767 16.1288755,6.75258725 L16.1288755,7.65748963 C16.1288755,10.1771397 17.7031085,12.4283619 20.0697292,13.2930833 L21.4100413,13.7828097 C21.8142874,13.9305141 22.2413297,14.0060876 22.671715,14.0060876 C24.70208,14.0060876 26.3480161,12.3601515 26.3480161,10.3297865 L26.3480161,6.91194012 C26.3480161,4.09000238 24.0603835,1.80236984 21.2384458,1.80236984 L21.0790929,1.80236984 Z"></path>
                    </g>
                </g>
                <g id="Group-Copy" transform="translate(226.500000, 63.500000) rotate(51.000000) translate(-226.500000, -63.500000) translate(212.000000, 33.000000)">
                    <g id="Rectangle-33">
                        <use fill="#E2F4FA" fill-rule="evenodd" xlink:href="#path-28"></use>
                        <path stroke="#1CA6DE" stroke-width="1" d="M20.9509212,38.0192262 C11.1712383,39.2243341 6.19898021,40.8681887 6.19898021,42.5461498 C6.19898021,44.6100008 6.288672,50.4778181 6.46800892,60.1430748 L12.4505923,60.1430748 C12.4499728,52.9941823 12.449663,48.469064 12.449663,46.5676887 C12.449663,45.8712154 13.0346256,45.713438 14.2339354,45.6859221 C14.9084271,45.6704471 15.2926609,45.6857571 17.4459381,45.7943133 C18.7409167,45.8595989 19.57133,45.8916718 20.4411375,45.9019281 C24.7667213,45.9529333 27.1584535,45.2983915 27.3992425,43.6980511 C27.5586573,42.6385423 27.567218,40.7388413 27.4209259,38.0192262 L20.9509212,38.0192262 Z"></path>
                    </g>
                    <g id="Rectangle-33-Copy-2" transform="translate(13.843063, 22.630828) rotate(54.000000) translate(-13.843063, -22.630828) ">
                        <use fill="#FFFFFF" fill-rule="evenodd" xlink:href="#path-29"></use>
                        <path stroke="#1CA6DE" stroke-width="1" d="M14.2596584,11.6019212 L14.2596584,22.8848648 L14.218956,23.0824647 L9.60497576,33.807116 L13.4049438,35.3828561 L18.2406721,23.6407888 L18.2406721,11.6019212 C17.7764463,10.311507 17.1218671,9.72494614 16.2501653,9.72494614 C15.3784634,9.72494614 14.7238843,10.311507 14.2596584,11.6019212 Z"></path>
                    </g>
                    <g id="Rectangle-33-Copy">
                        <use fill="#FFFFFF" fill-rule="evenodd" xlink:href="#path-30"></use>
                        <path stroke="#1CA6DE" stroke-width="1" d="M21.4202579,16.5138624 L21.4202579,38.0246109 L27.3936771,38.0246109 L27.3936771,16.5138624 C26.7301882,15.0773684 25.7537709,14.3946489 24.4069675,14.3946489 C23.0601641,14.3946489 22.0837468,15.0773684 21.4202579,16.5138624 Z"></path>
                    </g>
                    <g id="Rectangle-33-Copy-3" transform="translate(18.978433, 23.464699) rotate(27.000000) translate(-18.978433, -23.464699) ">
                        <use fill="#FFFFFF" fill-rule="evenodd" xlink:href="#path-31"></use>
                        <path stroke="#1CA6DE" stroke-width="1" d="M20.0500021,15.4847337 L20.3980716,25.7052494 L14.0223171,30.0606106 L15.0169991,33.0496659 L24.0280867,27.3551552 L24.0280867,15.4928598 C23.5638608,14.2024456 22.9092816,13.6158848 22.0375798,13.6158848 C21.1677099,13.6158848 20.5140509,14.1999829 20.0500021,15.4847337 Z"></path>
                    </g>
                    <g id="Rectangle-32-Copy-5" transform="translate(21.418553, 8.026291) scale(-1, 1) rotate(16.000000) translate(-21.418553, -8.026291) ">
                        <use fill="#FFFFFF" fill-rule="evenodd" xlink:href="#path-32"></use>
                        <path stroke="#1CA6DE" stroke-width="1" d="M21.4185533,1.82534904 C18.668664,1.82534904 16.4394382,4.05457483 16.4394382,6.80446419 L16.4394382,7.89913583 C16.4394382,10.3914966 17.9802479,12.6243326 20.3104282,13.5087095 L21.5959708,13.9966134 C21.9977164,14.1490885 22.4238416,14.2272331 22.8535486,14.2272331 C24.810912,14.2272331 26.3976685,12.6404766 26.3976685,10.6831132 L26.3976685,6.80446419 C26.3976685,4.05457483 24.1684427,1.82534904 21.4185533,1.82534904 Z"></path>
                    </g>
                </g>
                <g id="Group-Copy-2" transform="translate(181.500000, 32.000000) scale(-1, 1) rotate(-21.000000) translate(-181.500000, -32.000000) translate(169.000000, 3.000000)">
                    <g id="Rectangle-33">
                        <use fill="#E2F4FA" fill-rule="evenodd" xlink:href="#path-33"></use>
                        <path stroke="#1CA6DE" stroke-width="1" d="M17.3662029,35.8573494 C7.3610182,37.0337287 2.25480683,38.6445304 2.25480683,40.2680923 C2.25480683,42.2831525 2.3465533,48.0116548 2.52999509,57.446767 L8.67833113,57.446767 C8.67769755,50.4697814 8.67738076,46.0530953 8.67738076,44.1966867 C8.67738076,43.5007813 9.26040542,43.3507186 10.4928955,43.3237347 C11.1821014,43.3086453 11.5754694,43.3236024 13.7785032,43.4295876 C15.1045951,43.4933842 15.9550601,43.5247292 16.8460456,43.5347548 C21.274629,43.5845863 23.7368446,42.9415727 23.9817727,41.388171 C24.1443089,40.357322 24.1532278,38.5066964 24.0041627,35.8573494 L17.3662029,35.8573494 Z"></path>
                    </g>
                    <g id="Rectangle-33-Copy-3" transform="translate(12.289616, 21.627646) rotate(27.000000) translate(-12.289616, -21.627646) ">
                        <use fill="#FFFFFF" fill-rule="evenodd" xlink:href="#path-34"></use>
                        <path stroke="#1CA6DE" stroke-width="1" d="M13.3749489,13.8375105 L13.7315319,23.8291528 L7.20943459,28.0807211 L8.22432011,30.9910094 L17.4708341,25.4149611 L17.4708341,13.8459917 C16.9964999,12.5911688 16.3248499,12.0180101 15.421285,12.0180101 C14.5197583,12.0180101 13.8491014,12.5885859 13.3749489,13.8375105 Z"></path>
                    </g>
                    <g id="Rectangle-33-Copy">
                        <use fill="#FFFFFF" fill-rule="evenodd" xlink:href="#path-35"></use>
                        <path stroke="#1CA6DE" stroke-width="1" d="M15.8208893,14.7967073 L17.8267599,24.5876422 L17.8369337,24.687993 L17.8369337,35.839498 L23.9761038,35.839498 L23.9855238,24.9526928 L21.9577861,14.8900604 C21.2789585,13.4612002 20.2692927,12.7787757 18.8666632,12.7787757 C17.4949355,12.7787757 16.4990473,13.4314619 15.8208893,14.7967073 Z"></path>
                    </g>
                    <g id="Rectangle-33-Copy-2" transform="translate(11.320431, 17.228022) rotate(54.000000) translate(-11.320431, -17.228022) ">
                        <use fill="#FFFFFF" fill-rule="evenodd" xlink:href="#path-36"></use>
                        <path stroke="#1CA6DE" stroke-width="1" d="M12.2451269,11.858745 L13.7604544,19.1968917 L4.92067453,16.508384 L3.9689263,20.4401333 L18.6383582,24.1970548 L16.355353,11.9890345 C15.8794862,10.6778617 15.1985888,10.0800639 14.2758068,10.0800639 C13.3841588,10.0800639 12.7183487,10.6382038 12.2451284,11.8587524 Z"></path>
                    </g>
                    <g id="Rectangle-32-Copy-5" transform="translate(14.787038, 7.524740) scale(-1, 1) rotate(7.000000) translate(-14.787038, -7.524740) ">
                        <use fill="#FFFFFF" fill-rule="evenodd" xlink:href="#path-37"></use>
                        <path stroke="#1CA6DE" stroke-width="1" d="M14.5798473,1.48216959 C11.8726484,1.48216959 9.67803004,3.67678793 9.67803004,6.38398685 L9.67803004,7.22676369 C9.67803004,9.75264425 11.2599408,12.0080355 13.6348602,12.8681693 L14.9573022,13.3471232 C15.3595354,13.4928016 15.7840677,13.5673108 16.2118688,13.5673108 C18.2465837,13.5673108 19.896046,11.9178485 19.896046,9.88313359 L19.896046,6.59117756 C19.896046,3.76955037 17.6086652,1.48216959 14.787038,1.48216959 L14.5798473,1.48216959 Z"></path>
                    </g>
                </g>
                <g id="Group-3" transform="translate(225.500000, 77.000000) rotate(54.000000) translate(-225.500000, -77.000000) translate(216.000000, 56.000000)" stroke-linecap="square">
                    <path d="M0.496040268,27.8886926 L14.3851678,27.8886926" id="Line" stroke="#1CA6DE"></path>
                    <path d="M18.3534899,0.507067138 L14.3851678,18.7614841" id="Line-Copy" stroke="#1CA6DE"></path>
                    <path d="M4.46436242,28.9028269 L0.496040268,41.0724382" id="Line-Copy-2" stroke="#87D2F0"></path>
                    <path d="M14.3851678,28.9028269 L10.4168456,41.0724382" id="Line-Copy-3" stroke="#87D2F0" transform="translate(12.401007, 34.987633) scale(-1, 1) translate(-12.401007, -34.987633) "></path>
                    <path d="M14.3851678,18.7614841 L14.3851678,27.8886926" id="Line-Copy-4" stroke="#1CA6DE" transform="translate(14.385168, 23.325088) scale(-1, 1) translate(-14.385168, -23.325088) "></path>
                </g>
                <g id="Group-3-Copy" transform="translate(168.500000, 38.000000) scale(-1, 1) rotate(-10.000000) translate(-168.500000, -38.000000) translate(159.000000, 17.000000)" stroke-linecap="square">
                    <path d="M0.496040268,27.8886926 L14.3851678,27.8886926" id="Line" stroke="#1CA6DE"></path>
                    <path d="M18.3534899,0.507067138 L14.3851678,18.7614841" id="Line-Copy" stroke="#1CA6DE"></path>
                    <path d="M4.46436242,28.9028269 L0.496040268,41.0724382" id="Line-Copy-2" stroke="#87D2F0"></path>
                    <path d="M14.3851678,28.9028269 L10.4168456,41.0724382" id="Line-Copy-3" stroke="#87D2F0" transform="translate(12.401007, 34.987633) scale(-1, 1) translate(-12.401007, -34.987633) "></path>
                    <path d="M14.3851678,18.7614841 L14.3851678,27.8886926" id="Line-Copy-4" stroke="#1CA6DE" transform="translate(14.385168, 23.325088) scale(-1, 1) translate(-14.385168, -23.325088) "></path>
                </g>
                <g id="Group-4" transform="translate(196.000000, 58.000000) rotate(33.000000) translate(-196.000000, -58.000000) translate(169.000000, 43.000000)">
                    <path d="M0.496407978,1.49946996 L53.1998819,1.49946996" id="Line-2" stroke="#1CA6DE" stroke-linecap="square"></path>
                    <path d="M26.3096228,28.4899293 L26.3096228,2.99893993" id="Line-2-Copy-2" stroke="#1CA6DE" stroke-width="2" stroke-linecap="square"></path>
                    <g id="Rectangle-34">
                        <use fill="#E2F4FA" fill-rule="evenodd" xlink:href="#path-38"></use>
                        <path stroke="#1CA6DE" stroke-width="1" d="M18.3706872,29.0660968 L18.3706872,29.4893993 L34.2485585,29.4893993 L34.2485585,29.0635792 L26.3881959,25.538281 L18.3706872,29.0660968 Z"></path>
                    </g>
                </g>
                <g id="Group-5" transform="translate(91.500000, 38.500000) rotate(-24.000000) translate(-91.500000, -38.500000) translate(80.000000, 8.000000)">
                    <g id="Rectangle-2">
                        <use fill="#FFFFFF" fill-rule="evenodd" xlink:href="#path-39"></use>
                        <path stroke="#27ABE0" stroke-width="1" d="M4.72145916,8.82218671 L0.607449506,18.9619179 L4.84935568,22.1731563 L4.84935568,30.7107617 L18.0558636,30.7107617 L18.0558636,22.1722815 L22.3221381,18.9613728 L18.1843632,8.82236016 C15.2256885,7.97141355 12.9764849,7.54759136 11.4526096,7.54759136 C9.9288379,7.54759136 7.67983638,7.97135596 4.72145916,8.82218671 Z"></path>
                    </g>
                    <path d="M4.58613082,21.8139733 L9.37165862,24.49877" id="Line-3" stroke="#27ABE0" stroke-linecap="square"></path>
                    <path d="M5.58311577,17.7867782 L10.3686436,20.4715749" id="Line-3-Copy-3" stroke="#27ABE0" stroke-linecap="square"></path>
                    <path d="M13.5589955,21.8139733 L18.3445233,24.49877" id="Line-3-Copy" stroke="#27ABE0" stroke-linecap="square" transform="translate(15.951759, 23.156372) scale(-1, 1) translate(-15.951759, -23.156372) "></path>
                    <path d="M12.5620105,17.7867782 L17.3475383,20.4715749" id="Line-3-Copy-4" stroke="#27ABE0" stroke-linecap="square" transform="translate(14.954774, 19.129177) scale(-1, 1) translate(-14.954774, -19.129177) "></path>
                    <g id="Rectangle-3">
                        <use fill="#E2F4FA" fill-rule="evenodd" xlink:href="#path-40"></use>
                        <rect stroke="#27ABE0" stroke-width="1" x="8.47587968" y="16.6087802" width="5.97889472" height="9.06798765"></rect>
                    </g>
                    <g id="Rectangle-35">
                        <use fill="#FFFFFF" fill-rule="evenodd" xlink:href="#path-41"></use>
                        <path stroke="#27ABE0" stroke-width="1" d="M10.9788947,0.5 C9.04589809,0.5 7.47889472,2.06700338 7.47889472,4 L7.47889472,7.07478642 C7.47889472,9.00778304 9.04589809,10.5747864 10.9788947,10.5747864 L12.9487443,10.5747864 C14.8817409,10.5747864 16.4487443,9.00778304 16.4487443,7.07478642 L16.4487443,4 C16.4487443,2.06700338 14.8817409,0.5 12.9487443,0.5 L10.9788947,0.5 Z"></path>
                    </g>
                    <g id="Combined-Shape">
                        <use fill="#E2F4FA" fill-rule="evenodd" xlink:href="#path-42"></use>
                        <path stroke="#1CA6DE" stroke-width="1" d="M6.11511009,30.703963 L3.9958089,45.2185511 L3.98965681,59.9079259 L10.6659535,59.9079259 L10.6579009,45.4209416 L10.6692487,45.3147431 L11.465327,41.6421278 L12.2614053,45.3147431 L12.2727532,45.4209416 L12.2647005,59.9079259 L18.941169,59.9079259 L18.9400665,45.2904115 L16.8153937,30.703963 L6.11511009,30.703963 Z"></path>
                    </g>
                </g>
                <g id="Group-6" transform="translate(294.500000, 138.500000) rotate(96.000000) translate(-294.500000, -138.500000) translate(287.000000, 127.000000)">
                    <g id="Rectangle-37">
                        <use fill="#E2F4FA" fill-rule="evenodd" xlink:href="#path-43"></use>
                        <path stroke="#1CA6DE" stroke-width="1" d="M5.42366396,7.73050648 C5.07314829,7.73050648 4.72462105,7.78315964 4.3897481,7.88670355 C2.54301674,8.45771951 1.50884507,10.417691 2.07986103,12.2644223 L4.60956149,20.4457649 C4.97614607,21.6313417 6.07234394,22.4397973 7.31330185,22.4397973 C8.55590631,22.4397973 9.65443192,21.6325153 10.0255522,20.4466251 L12.5825748,12.2758277 C12.6884569,11.9374886 12.7423198,11.5850264 12.7423198,11.2305065 C12.7423198,9.29750985 11.1753164,7.73050648 9.24231982,7.73050648 L5.42366396,7.73050648 Z"></path>
                    </g>
                    <g id="Rectangle-32-Copy">
                        <use fill="#FFFFFF" fill-rule="evenodd" xlink:href="#path-44"></use>
                        <path stroke="#1CA6DE" stroke-width="1" d="M7.41485154,0.586850073 C7.23536977,0.586850073 7.05606897,0.598243103 6.87803069,0.620960442 C4.55450017,0.917438415 2.9112494,3.04137495 3.20772737,5.36490547 L3.43064664,7.11194832 C3.68383031,9.09617663 5.37238241,10.5829631 7.37269838,10.5829631 C9.37870186,10.5829631 11.0757848,9.09998099 11.3446781,7.11208099 L11.5822304,5.35588102 C11.6075029,5.16904408 11.6201821,4.98071905 11.6201821,4.79218062 C11.6201821,2.46964069 9.73739147,0.586850073 7.41485154,0.586850073 Z"></path>
                    </g>
                    <g id="Rectangle-38">
                        <use fill="#FFFFFF" fill-rule="evenodd" xlink:href="#path-45"></use>
                        <path stroke="#1CA6DE" stroke-width="1" d="M12.727349,10.7294464 C11.9220882,10.7294464 11.2692953,11.3822393 11.2692953,12.1875001 L11.2692953,19.7570192 C11.2692953,20.2919292 11.7029256,20.7255595 12.2378356,20.7255595 C12.8101849,20.7255595 13.2878229,20.2885581 13.3385806,19.7184639 L14.0137265,12.1354436 C14.0171171,12.0973607 14.018815,12.059146 14.018815,12.0209124 C14.018815,11.3076554 13.440606,10.7294464 12.727349,10.7294464 Z"></path>
                    </g>
                    <g id="Rectangle-38-Copy" transform="translate(2.041348, 15.727503) scale(-1, 1) translate(-2.041348, -15.727503) ">
                        <use fill="#FFFFFF" fill-rule="evenodd" xlink:href="#path-46"></use>
                        <path stroke="#1CA6DE" stroke-width="1" d="M2.12464139,10.7294464 C1.31938057,10.7294464 0.666587698,11.3822393 0.666587698,12.1875001 L0.666587698,19.7570192 C0.666587698,20.2919292 1.10021795,20.7255595 1.63512797,20.7255595 C2.20747729,20.7255595 2.68511528,20.2885581 2.73587299,19.7184639 L3.41101887,12.1354436 C3.41440954,12.0973607 3.41610738,12.059146 3.41610738,12.0209124 C3.41610738,11.3076554 2.83789836,10.7294464 2.12464139,10.7294464 Z"></path>
                    </g>
                </g>
                <g id="Group-8" transform="translate(100.820816, 240.966790) rotate(-159.000000) translate(-100.820816, -240.966790) translate(78.820816, 208.966790)">
                    <g id="Group-5-Copy-2">
                        <g id="Combined-Shape">
                            <use fill="#FFFFFF" fill-rule="evenodd" xlink:href="#path-47"></use>
                            <path stroke="#1CA6DE" stroke-width="1" d="M41.3476359,24.6487843 L42.7787149,20.9206961 L21.1561999,12.6205902 L21.1360569,12.6730644 L20.7005908,12.555501 C18.0540001,11.8409971 16.015402,11.4853107 14.5981202,11.4853107 C13.0784496,11.4853107 10.8470723,11.8939244 7.91885677,12.7141996 L7.91885677,12.8990971 L2.7294764,23.3789851 L1.1500653,37.293257 L5.78262055,38.0013824 L6.85826198,26.3343518 L6.89255853,26.1929513 L7.91885677,23.652774 L7.91885677,34.4532613 L21.2773837,34.4532613 L21.2773837,16.9445364 L41.3476359,24.6487843 Z"></path>
                        </g>
                        <g id="Rectangle-35" transform="translate(15.114022, 7.033502) rotate(10.000000) translate(-15.114022, -7.033502) ">
                            <use fill="#FFFFFF" fill-rule="evenodd" xlink:href="#path-48"></use>
                            <path stroke="#27ABE0" stroke-width="1" d="M14.0757555,1.49861133 C12.1427588,1.49861133 10.5757555,3.06561471 10.5757555,4.99861133 L10.5757555,8.67327139 C10.5757555,10.3539861 11.7704251,11.7974119 13.4215156,12.1115806 L15.4980492,12.5067024 C15.7137118,12.5477386 15.932757,12.5683932 16.1522891,12.5683932 C18.0852857,12.5683932 19.6522891,11.0013898 19.6522891,9.06839322 L19.6522891,4.99861133 C19.6522891,3.06561471 18.0852857,1.49861133 16.1522891,1.49861133 L14.0757555,1.49861133 Z"></path>
                        </g>
                        <g id="Combined-Shape">
                            <use fill="#E2F4FA" fill-rule="evenodd" xlink:href="#path-49"></use>
                            <path stroke="#1CA6DE" stroke-width="1" d="M9.19769526,34.4545967 L7.05617646,48.8478843 L7.04996027,63.414535 L13.8083945,63.414535 L13.8002579,49.0486414 L13.8120244,48.9405248 L14.6109737,45.3231512 L15.4099231,48.9405248 L15.4216896,49.0486414 L15.413553,63.414535 L22.1721669,63.414535 L22.1711887,48.9210761 L20.0240955,34.4545967 L9.19769526,34.4545967 Z"></path>
                        </g>
                    </g>
                    <g id="Group-5-Copy" transform="translate(22.168374, 11.983975)">
                        <g id="Rectangle-2">
                            <use fill="#FFFFFF" fill-rule="evenodd" xlink:href="#path-50"></use>
                            <path stroke="#27ABE0" stroke-width="1" d="M4.19290428,7.58812701 L0.609752077,16.3095373 L4.32251885,19.0852179 L4.32251885,26.4639445 L15.8081945,26.4639445 L15.8081945,19.0843435 L19.5422282,16.3089938 L15.9384178,7.5882996 C13.3565471,6.8563626 11.3937047,6.49198766 10.0653567,6.49198766 C8.73711308,6.49198766 6.7744748,6.85630532 4.19290428,7.58812701 Z"></path>
                        </g>
                        <path d="M3.52678677,18.4752953 L7.55740021,20.4726245" id="Line-3" stroke="#27ABE0" stroke-linecap="square"></path>
                        <path d="M4.53444013,15.4793015 L8.56505357,17.4766307" id="Line-3-Copy-3" stroke="#27ABE0" stroke-linecap="square"></path>
                        <path d="M11.5880137,18.4752953 L15.6186271,20.4726245" id="Line-3-Copy" stroke="#27ABE0" stroke-linecap="square" transform="translate(13.603320, 19.473960) scale(-1, 1) translate(-13.603320, -19.473960) "></path>
                        <path d="M10.5803603,15.4793015 L14.6109737,17.4766307" id="Line-3-Copy-4" stroke="#27ABE0" stroke-linecap="square" transform="translate(12.595667, 16.477966) scale(-1, 1) translate(-12.595667, -16.477966) "></path>
                        <g id="Rectangle-3">
                            <use fill="#E2F4FA" fill-rule="evenodd" xlink:href="#path-51"></use>
                            <rect stroke="#27ABE0" stroke-width="1" x="7.55357353" y="14.4813045" width="5.04592017" height="7.98798149"></rect>
                        </g>
                        <g id="Rectangle-35">
                            <use fill="#FFFFFF" fill-rule="evenodd" xlink:href="#path-52"></use>
                            <path stroke="#27ABE0" stroke-width="1" d="M10.0459202,0.5 C8.11292355,0.5 6.54592017,2.06700338 6.54592017,4 L6.54592017,5.9866461 C6.54592017,7.91964272 8.11292355,9.4866461 10.0459202,9.4866461 L11.1148004,9.4866461 C13.047797,9.4866461 14.6148004,7.91964272 14.6148004,5.9866461 L14.6148004,4 C14.6148004,2.06700338 13.047797,0.5 11.1148004,0.5 L10.0459202,0.5 Z"></path>
                        </g>
                        <g id="Combined-Shape">
                            <use fill="#E2F4FA" fill-rule="evenodd" xlink:href="#path-53"></use>
                            <path stroke="#1CA6DE" stroke-width="1" d="M5.39316808,26.4652799 L3.52858599,38.8728262 L3.52317555,51.4305597 L9.31173861,51.4305597 L9.30465729,39.0468257 L9.31664297,38.9377184 L10.0765336,35.5299566 L10.8364243,38.9377184 L10.8484099,39.0468257 L10.8413286,51.4305597 L16.6301031,51.4305597 L16.6300018,38.9467064 L14.759715,26.4652799 L5.39316808,26.4652799 Z"></path>
                        </g>
                    </g>
                </g>
                <circle id="Oval-2" fill="#FFFFFF" cx="141.5" cy="135.5" r="81.5"></circle>
                <g id="np_earth_559861_000000" transform="translate(60.000000, 54.000000)" fill="#1CA6DE" fill-rule="nonzero">
                    <path d="M115.33605,27.8886926 L115.65028,25.5611348 L114.853753,25.3544085 L114.247218,22.8508383 L114.444526,22.6594278 L113.72107,21.8554943 C113.53838,21.7023655 113.289918,21.5032931 113.026854,21.3042306 C112.617627,20.997973 112.19379,20.7070234 111.748028,20.4467093 L110.103808,19.1451194 L109.687267,17.3152376 L111.550702,16.9324205 L112.588387,17.6597749 L113.830677,18.1344791 L114.415286,19.298258 L117.56488,21.5799506 L118.690248,22.9504559 L120.129845,23.2567135 L120.655994,26.1201485 L118.843705,26.5642171 L115.33605,27.8886926 Z M115.613744,24.5428895 L116.687966,24.8261754 L116.476048,26.4187149 L118.580641,25.6224451 L119.567161,25.3774391 L119.333318,24.0758491 L118.200635,23.8308431 L116.907181,22.2536115 L113.655257,19.8494159 L113.180255,18.9076713 L112.179105,18.5171904 L111.367967,17.9659267 L110.834504,18.0731159 L110.944117,18.5707918 L112.274107,19.6273757 C112.697944,19.8723817 113.151021,20.1863031 113.582173,20.5078687 C113.859867,20.714595 114.122931,20.9289656 114.36409,21.1356919 L115.789077,22.7052597 L115.284854,23.187608 L115.613744,24.5428895 Z" id="Shape"></path>
                    <path d="M112.205665,25.8966431 L110.991196,25.8966431 L109.741218,25.1381288 L110.011104,23.759026 L108.69011,22.5637854 L109.798054,21.8205896 L109.71993,21.1540259 L111.609168,20.9165194 L112.702894,22.0504662 L113.271066,23.1537562 L113.675895,24.6861035 L112.205665,25.8966431 Z M111.232664,24.9159409 L111.893161,24.9159409 L112.631785,24.303002 L112.425825,23.5138505 L111.935779,22.586773 L111.289481,21.9355279 L110.73551,22.004483 L110.77102,22.3186216 L110.231248,22.6787158 L111.005379,23.3836054 L110.763911,24.6401203 L111.232664,24.9159409 Z" id="Shape"></path>
                    <path d="M99.015633,12.9483216 L95.2682687,12.9483216 L92.7355984,9.96024735 L98.7431043,10.0059856 L101.710011,11.4162271 L99.015633,12.9483216 Z M95.6953434,11.972592 L98.7800446,11.972592 L99.6193238,11.4923574 L98.4413814,10.9358793 L94.8118113,10.9358793 L95.6953434,11.972592 Z" id="Shape"></path>
                    <path d="M82.2701851,1.00816291e-14 C36.896392,1.00816291e-14 0,36.8526056 0,82.1616356 C0,127.468774 36.8944981,164.344081 82.275867,164.344081 C127.634508,164.344081 164.5309,127.476341 164.5309,82.1616356 C164.523501,36.8544974 127.636402,0 82.2682912,0 L82.2701851,1.00816291e-14 Z M146.858284,35.8480505 L147.879247,35.8480505 C149.070382,37.532941 150.209775,39.2548355 151.267745,41.0284145 L149.225858,38.2128224 L148.900323,40.769803 L148.767154,40.8437012 L146.799132,37.9320048 L146.858284,35.8480505 Z M111.442975,8.06103453 L111.89427,7.55113295 C124.885755,12.6946065 136.235548,21.1559496 144.868254,31.8780147 L142.271435,29.0033979 L138.527817,28.3752577 L139.54878,29.5502467 C140.000074,30.0601483 141.176418,31.405117 141.420551,31.7080538 C141.723888,32.557896 142.974191,34.16893 142.996389,34.16893 L144.172713,36.6445624 L143.45507,37.0436224 L145.630103,41.4479628 L145.208392,41.1301943 L143.203437,38.2555775 L141.331667,35.8908056 L139.378607,34.4497703 L137.373652,33.4447423 L134.000116,30.170952 L132.727597,31.8041203 L136.382387,35.639402 L140.510669,38.7062274 L140.621644,39.3861088 L139.578485,38.3810807 L138.047041,37.7381654 L135.775795,35.5063883 L132.010018,32.4616971 L130.685718,35.1516725 L128.621671,35.4916132 L129.013779,37.9524894 L127.74126,39.8073598 L128.629058,43.0071799 L127.252976,45.0467484 L124.582102,45.7266298 L123.257802,45.0615424 L120.890342,44.2855946 L119.277514,42.2829165 L119.506855,39.4820807 L118.582068,36.6664886 L124.071545,36.4521835 L124.811367,34.959426 L123.46487,31.3679996 L119.565947,29.3062968 L120.246601,28.552521 L121.437737,28.552521 L122.858213,27.5105458 L123.598034,25.2197439 L122.880391,23.7639336 L124.471021,22.8771441 L123.768189,21.6208637 L122.673248,20.5641134 L124.811348,22.3598644 L126.512965,22.5519974 L127.42296,21.9090821 L129.339087,22.1381623 L128.961771,20.0024895 L127.445119,18.7535872 L128.717638,18.3397522 L125.9729,16.6918088 L125.610375,16.5957404 L126.083868,15.7458982 L124.16774,14.5709092 L123.331724,15.3468571 L122.38474,14.8147834 L121.533931,13.5289339 L120.224423,12.6421445 L119.277439,11.6223413 L117.494438,10.6542604 L115.940797,10.5951411 L117.427865,12.9377788 L118.293465,14.0536485 L119.454998,15.36167 L121.141804,16.3666981 L122.33294,17.2534876 L122.784234,18.0516075 L119.88419,16.2558565 L118.389736,16.8544465 L118.582087,17.4604146 L116.836076,16.1154458 L114.831121,14.3196948 L114.505586,12.8860565 L114.720135,11.8588563 L113.166494,10.210913 L112.863156,9.33889863 L111.44268,8.37081776 L111.442975,8.06103453 Z M125.07803,19.0719801 L123.731533,17.7861307 L123.087887,16.7072082 L121.66741,15.5913386 L120.11377,14.682377 L119.033621,13.4556468 L118.182812,12.3988965 L117.901672,11.9259421 L118.641493,12.3250021 L119.56628,13.3226331 L120.794405,14.1355282 L121.645213,15.4213777 L123.443006,16.5003001 L124.279022,15.7613184 L124.811701,16.079087 L124.168054,17.2171287 L125.551541,17.5422943 L126.439339,18.066971 L125.492355,18.3699645 L128.089174,20.5056373 L128.185352,21.037711 L127.179181,20.9268618 L126.269187,21.5697771 L125.211235,21.4589279 L124.0719,20.5130192 L125.780903,20.3356613 L125.07803,19.0719801 Z M90.7195555,2.96939681 L90.660369,3.64927819 L92.2288018,5.44502924 L91.8588909,7.17426397 L92.1252207,7.95021185 L88.714563,8.51185465 L86.3101706,10.0637315 L84.053697,10.3445529 L81.3458908,12.3693652 L80.0363824,14.4681476 L79.488912,13.766113 L76.7441734,13.766113 L75.5160488,10.8175262 L76.8625464,8.17200854 L78.4753739,4.19616481 L76.8625464,3.62714393 L79.7775527,3.11724235 L85.6888165,2.64428796 L90.7195555,2.96939681 Z M62.0297271,5.6962626 L62.5771976,6.07315049 L61.2306999,6.35397189 L62.0297271,5.6962626 Z M63.59816,6.77518506 L63.7905114,6.90820254 L64.2640034,6.90820254 L63.124668,7.62503112 L63.9976736,8.02409111 L62.9767112,8.54876779 L61.3268945,8.22360219 L58.463783,10.2484145 L61.3787893,10.4405475 L61.7043245,11.4972978 L64.2197035,12.7831473 L60.7942728,14.7858254 L60.2319916,14.6454184 L61.8004244,12.8274953 L60.0766104,11.0686915 L57.6129368,10.7287508 L55.3195308,12.8275331 L52.3085004,14.0542633 L53.3294628,14.7932451 L51.7758219,16.1382138 L48.5649778,17.4831826 L47.825156,18.953768 L45.3986041,20.6977779 L45.3986041,19.7518691 L48.7871024,16.3672183 L46.6120694,16.3672183 L46.5158919,15.0222496 L45.6650835,14.5271231 L47.2927218,12.6353056 L51.9314284,10.9134489 L55.741524,9.73845995 L53.5441422,11.9407247 L57.8796245,10.4257951 L60.5726577,8.55614966 L63.59816,6.77518506 Z M66.0396742,10.5957106 L65.4182254,10.876532 L63.6944114,10.0636369 L63.6944114,11.4455529 L62.503276,10.8395848 L62.1037624,9.53156322 L61.2159648,9.47983336 L61.5562919,9.25075317 L63.1099329,9.53895266 L66.1802445,7.98707581 L65.1000956,7.49194933 L67.637634,5.84400599 L65.0629738,5.91790416 L64.9889917,5.91790416 L64.0789968,5.95485514 L63.8718346,5.82183578 L63.7978524,5.76271648 L66.6757369,4.55078033 L68.9322105,4.83160172 L69.2651322,6.31698118 L67.3342317,7.45502294 L69.2281998,8.8369389 L68.014886,9.16210449 L67.2158587,8.17924853 L65.1518123,8.9699715 L66.0396742,10.5957106 Z M57.1395395,9.68674901 L59.055667,7.77279721 L60.5501214,7.46980371 L57.5019692,9.55382991 L57.1395395,9.68674901 Z M59.1297211,5.2824086 L56.6143421,6.33915896 L54.5724551,6.81211334 C56.0595231,6.26526457 57.5984479,5.75536298 59.1297211,5.2824086 Z M50.3034511,8.51174114 L50.2664581,8.70387413 L46.9889464,10.0488429 C48.0690953,9.5167692 49.1863281,9.00686762 50.3033905,8.51174114 L50.3034511,8.51174114 Z M46.0050906,10.5364778 L43.733844,12.3544766 L41.1739568,13.9211285 L37.3490883,15.7538268 L35.04072,17.6677786 L33.7682007,18.1998523 C37.5930692,15.3031012 41.6844191,12.7313645 46.004939,10.5364778 L46.0050906,10.5364778 Z M1.89646811,82.1588736 C1.89646811,70.2241535 4.50806069,58.8951933 9.20604849,48.7115395 L8.79174297,50.2781915 L7.26029933,54.9337652 L5.98778006,59.1682204 L5.62525563,63.1217407 L6.60922887,65.6787213 L7.89654003,66.4916164 L8.25906445,66.3438181 L8.65857808,67.5779264 L9.1912566,70.7187219 L11.1962112,73.4824781 L12.1801844,75.9581105 L11.7066924,78.8919412 L14.6955634,84.2200561 L16.4193774,85.8310522 L17.6105129,84.1683149 L18.0840049,85.0033821 L18.9421997,89.082519 L18.3355428,92.3192297 L16.818891,93.7233177 L16.7597045,95.0313393 L15.4871853,95.8442344 L15.0876716,99.2879098 L15.154256,99.4135397 C15.5167804,100.093402 15.9088886,100.891522 16.10124,101.305357 C15.8570886,101.549231 15.4945831,102.007392 14.9470938,102.761168 L14.8361186,102.931134 L15.4797647,105.842831 L16.330573,107.239522 L20.4957876,116.329137 L22.8263153,120.755612 L24.8534294,123.482478 L27.331876,125.448265 L29.7362685,127.547048 L30.6092741,129.778825 L31.0827661,132.786436 L32.2369124,134.656082 L32.8583612,138.875781 L34.241848,142.001631 L35.8546755,144.573368 L37.0310001,146.97503 L40.2122983,149.532011 L41.9583096,151.401656 L42.0692829,151.667684 C18.0689194,137.759798 1.89632606,111.807088 1.89632606,82.1585236 L1.89646811,82.1588736 Z M43.4671733,152.443679 L42.786538,150.950921 L40.8556376,148.830005 L37.8446071,146.465233 L36.6682825,144.122595 L35.0776524,141.565614 L33.7903412,138.668863 L33.1466951,134.412274 L32.0073597,132.542628 L31.5116703,129.535017 L30.5646863,127.11122 L27.9383208,124.709558 L25.5708607,122.854688 L23.6399602,120.260817 L21.3242055,115.908123 L17.1589909,106.788995 L16.3821609,105.562265 L15.8494824,103.138468 C16.1528203,102.702461 16.5153258,102.229506 16.7224881,102.022598 L16.7964702,102.044767 L17.0036325,101.800892 C17.2329731,101.534865 17.2847731,101.460952 16.0566484,99.0961609 L16.3821837,96.3914293 L17.6916921,95.5563622 L17.7656743,94.1522741 L19.2083477,92.8147023 L19.9111803,89.090092 L19.3637099,86.2523657 L19.0011854,84.7226609 L17.691677,82.4169137 L16.2712009,84.4195918 L15.4721737,83.7027632 L12.6903134,78.7293641 L13.1638054,75.8547473 L12.0466673,73.0612895 L10.1157668,70.4526623 L9.58308829,67.3710807 L8.86544485,65.1024132 L7.9924392,65.4423538 L7.38578229,65.065466 L6.58675504,63.0037632 L6.91229027,59.3678791 L8.14041493,55.2221501 L9.69405588,50.5665763 L10.6780291,46.8938018 L12.1724836,43.1691914 L13.955484,39.9175354 L14.1034503,39.6515081 C18.3648785,32.8823957 23.5954501,26.7708792 29.6324733,21.5462467 L32.4143336,19.7874428 L35.4624858,18.5163685 L37.8594918,16.5505809 L41.6252686,14.7548298 L44.28118,13.1290397 L46.6486401,11.2150879 L51.0801466,9.38238962 L51.2503082,8.53254735 L56.8952801,7.22452578 L60.5500703,5.70959613 L57.7460505,8.03747761 L58.767013,7.83055061 L51.6277003,10.010492 L46.7227018,11.8210181 L44.2073228,14.7696049 L45.6056016,15.5898781 L45.7387702,17.3117347 L46.5156002,17.3117347 L44.4515538,19.3734375 L44.4515538,22.5511234 L48.4688495,19.639427 L49.2456794,18.2205639 L52.2197775,16.9864556 L54.8535295,14.7325442 L54.2468726,14.303934 L55.7561378,13.6757938 L57.9311708,11.7249516 L59.6179766,11.9540318 L60.5057741,12.8629934 L58.522979,15.131661 L60.9125985,15.8115423 L63.5241911,14.3039908 L63.5241911,15.8189204 L62.6881746,18.2797967 L64.9815806,19.7725542 L64.3601128,20.92539 L65.3588779,21.0953584 L64.7892102,22.0929895 L62.3107636,22.588116 L60.7571226,23.7039857 L57.5017703,23.7039857 L55.2822291,22.8319713 L46.6853187,26.6008502 L53.9356178,25.7510079 L54.5422748,25.957916 L53.5583015,26.756036 L52.670504,28.3226879 L54.0687827,29.3794383 L55.814794,29.3794383 L57.4276215,28.8104174 L57.5977831,29.320319 L54.0392065,30.6431156 L50.7469218,32.0398067 L50.7099307,31.4707858 L53.9503207,29.726757 L50.4286765,29.1060139 L46.7369539,31.0347219 L44.9835561,31.3672655 L43.9256045,32.5570485 L43.9256045,33.7320375 L41.535985,34.3527806 L38.7467382,35.224795 L36.2313592,37.9885512 L34.6629264,39.8803688 L34.3373912,41.8682907 L31.8589445,42.4520866 L29.0179924,44.0187575 L26.3101863,46.1544303 L25.1708508,49.0661267 L24.4162182,52.4136978 L23.6171909,55.2514241 L23.4840204,55.3844416 L23.2028798,54.7119572 L23.2028798,52.10333 L24.2830287,50.4923339 L24.2238422,49.0956428 L24.6751369,46.9007561 L22.9513229,47.5436714 L22.2854795,46.3908356 L19.9032465,46.4647338 L18.6751218,47.3736954 L18.1424433,46.0508987 L16.396432,46.0508987 L14.1030261,47.3219731 L13.4815772,49.5168598 L10.3964927,54.2242693 L9.24234639,57.4906815 L8.63568948,61.0304613 L9.33852209,63.4542579 L11.5949956,64.0971732 L13.5037367,61.045104 L13.9402395,60.2100368 L15.1683642,60.3504456 L15.1683642,61.6362951 L14.1474017,63.3211856 L13.104242,65.3607541 L11.5875902,67.7033917 L12.4605959,69.4474205 L14.3323666,69.9203749 L15.4569102,71.531371 L14.5839045,73.9551676 L13.7848962,77.3619527 L14.3397721,80.4804247 L15.8712157,82.7861719 L17.6912054,82.0841373 L18.5790029,82.5201445 L19.5481843,85.0918813 L21.8934849,83.4069907 L22.537131,81.4930389 L23.3361583,81.1309261 L24.6826559,81.7516693 L26.1179239,80.7392442 L26.2880856,82.8601609 L28.4631185,81.9364242 L28.7294483,81.4265226 L29.6024539,83.0153467 L31.2300922,84.8332698 L33.2793657,84.8258804 L35.025377,86.3925323 L36.8971477,85.5057429 L39.3015402,87.1019639 L40.3225026,88.0109255 L40.4556732,89.71061 L43.0155604,91.4102946 L44.0735121,93.9449517 L46.1375585,95.4377093 L50.4211461,96.176691 L52.2781249,97.3147328 L54.2978525,99.3026546 L55.3558041,100.551557 L55.9402637,102.953219 L56.4507449,104.675076 L56.2583935,107.172843 L58.3817211,108.140923 L59.0475646,109.921899 L61.0377462,108.998163 L63.9749119,110.06231 L66.0982395,111.954128 L69.4867378,113.129117 L74.6582176,114.451913 L76.8925317,116.284612 L79.9035622,117.614786 L81.3832247,118.028621 L82.1600547,119.691359 L82.1600547,122.477438 L80.7987651,123.970196 L78.7347187,125.595986 L77.573186,127.221776 L76.6631912,128.093791 L75.2057259,127.886864 L74.1847635,129.889542 L74.24395,130.05951 C74.4881014,130.872405 74.7396393,131.818314 74.7544312,131.91438 C74.7544312,132.084349 74.4881014,133.274124 74.2587419,134.375257 L73.1416037,136.436959 L72.5201549,137.914942 L71.3808195,139.34858 L69.767992,140.745271 L65.6175504,140.686152 L61.5262006,142.008949 L59.9725596,143.124818 L60.7123814,145.090606 L60.1057245,145.829588 L58.1229294,147.071093 L56.5544965,148.342167 L55.5853152,149.251129 L54.0760499,149.568897 L51.4051761,149.458048 L52.2189953,151.157733 L51.9748438,151.630687 L50.6283462,151.630687 L48.4902456,151.024719 L46.1006261,151.608515 L47.1585777,153.522467 L48.2387267,154.882211 C46.6110884,154.128435 45.0204961,153.315559 43.4668741,152.443469 L43.4671733,152.443679 Z M139.224305,138.728002 C124.679199,153.367453 104.52681,162.449502 82.2726852,162.449502 C70.8497849,162.449502 59.9598473,160.047839 50.1131073,155.732036 L47.9602338,152.990414 L47.523731,152.236638 L48.470715,152.007558 L50.4237749,152.554407 L52.5618754,152.576577 L53.2795189,151.157714 L52.9391918,150.455679 L54.1525245,150.49263 L56.0464926,150.115742 L57.1784416,149.03682 L58.672896,147.847037 L60.6778506,146.598135 L61.8023942,145.275338 L61.1217399,143.457415 L61.8985699,142.888394 L65.7827196,141.639492 L70.1182019,141.698611 L72.0491023,140.013721 L73.2994243,138.439672 L74.0022569,136.828675 L75.119395,134.774351 L75.1711837,134.641331 C75.7038622,132.180455 75.7038622,132.01057 75.7038622,131.9366 C75.7038622,131.877481 75.7038622,131.70752 75.2081729,129.985758 L75.7408514,128.906835 L76.9911734,129.098968 L78.2784845,127.850066 L79.3734254,126.298189 L81.4450476,124.672399 L83.1096751,122.854476 L83.1096751,119.580685 L82.0665154,117.238048 L80.2317338,116.728146 L77.4498735,115.51621 L75.1712405,113.66134 L69.7556282,112.220305 L66.6705436,111.178329 L64.547216,109.308684 L61.0034124,107.963715 L59.5829363,108.628802 L59.1464335,107.439019 L57.2746627,106.589177 L57.422629,104.586499 L56.8529613,102.716854 L56.2685016,100.241221 L54.9811905,98.6745504 L52.8578629,96.5905242 L50.8529083,95.3416219 L46.5914801,94.6247934 L44.8454688,93.3389439 L43.7727064,90.7893414 L41.3683139,89.1783453 L41.2573387,87.5525551 L39.8960492,86.340619 L36.9960053,84.4266672 L35.1982129,85.2617343 L33.6371665,83.8798184 L31.6469849,83.8798184 L30.3744656,82.4831273 L28.6876598,79.3646553 L27.7850703,81.2121286 L27.1266134,81.478156 L26.934262,78.9803893 L24.5889613,80.6652799 L23.3386394,80.1184311 L21.7702065,80.8204656 L21.1043631,82.8231437 L20.0094223,83.5990916 L19.3287681,81.8181156 L17.7381379,81.0643398 L16.236278,81.6333607 L15.2523048,80.2144976 L14.7566155,77.3989055 L15.4964373,74.2359758 L16.5173997,71.3982495 L14.9267696,69.1074476 L13.1289772,68.6344932 L12.6924744,67.7624789 L13.920599,65.8337709 L14.9785507,63.7942024 L16.1178861,61.9023849 L16.1178861,59.5154787 L13.41008,59.1903131 L12.6924365,60.572229 L11.1609929,62.9960257 L10.1030412,62.6930322 L9.60735192,60.9711755 L10.1770196,57.7344649 L11.2349713,54.630749 L14.3200559,49.9602299 L14.9045155,47.9575519 L16.6505267,46.989471 L17.5013351,46.989471 L18.278165,48.8591164 L20.2312249,47.4107031 L21.7626685,47.3515838 L22.5246877,48.6965526 L23.4124852,48.371387 L23.2793146,49.0143022 L23.3163076,50.2262573 L22.258356,51.8150813 L22.258356,54.7858024 L23.1683508,57.1505743 L24.3964755,55.8277777 L25.3212622,52.6500918 L26.0758948,49.3615453 L27.0968573,46.7529181 L29.545758,44.7945086 L32.1425776,43.3534734 L35.1759569,42.6366448 L35.5532732,40.2718729 L36.9367601,38.6091355 L39.2820607,36.059533 L41.8048262,35.261413 L44.8751378,34.463293 L44.8751378,32.9114162 L45.4744083,32.2389318 L46.9688627,31.9729044 L50.5643717,30.103259 L51.0748529,30.1993274 L49.6913661,30.9383092 L49.8837175,33.4360759 L54.3892781,31.5442583 L58.7838522,29.896315 L58.0144277,27.5831897 L55.7431812,28.4330319 L54.3818916,28.4330319 L53.8862023,28.0561441 L54.2487267,27.4132288 L56.5052003,25.5805305 L54.0415266,24.7824106 L52.7838182,24.9302088 L55.2991972,23.8512863 L57.2522571,24.6050621 L61.0845121,24.6494007 L62.6011638,23.4965649 L64.4951319,23.119677 L64.5543184,23.0975087 L64.6283025,23.0753385 L64.687489,23.0531683 L64.7540733,23.0383894 L65.4347276,22.8462564 L66.8774009,20.3853801 L65.8194493,20.2006328 L66.2337548,19.461651 L63.8072029,17.872827 L64.4286517,16.0401288 L64.4656428,12.8993333 L64.6432023,12.9954017 L64.6432023,11.5543664 L65.397835,11.9164792 L67.3732437,11.0296897 L66.500238,9.45564079 L66.9145435,9.30784255 L67.6691762,10.2168041 L71.4201799,9.23394816 L69.0527199,7.53426361 L70.3252391,6.78788484 L69.7037903,3.98704897 L66.5372651,3.57321389 L62.5792506,5.23595124 L64.1106943,3.95010177 C69.9479039,2.61253002 76.0294353,1.88839902 82.2734693,1.88839902 L83.2574425,1.88839902 L79.6619335,2.19139252 L73.1440318,3.32943428 L77.2130328,4.77046953 L76.0071055,7.79302641 L74.4756618,10.7785037 L76.1033001,14.7098897 L79.0404658,14.7098897 L80.1354255,16.1287528 L81.9924044,13.0840617 L84.4189563,11.2513635 L86.5348974,10.9927142 L88.9614493,9.42606223 L93.3929558,8.70923364 L92.8232881,7.1130126 L93.2819883,5.18430462 L91.65435,3.30726218 L91.7135365,2.4352478 C98.4164789,3.23336778 104.860326,4.83691016 110.956252,7.16479164 L110.504957,7.69686533 L110.504957,8.87185428 L112.07339,9.95077674 L112.302731,10.6306581 L113.70101,12.1603629 L113.553043,12.8771915 L113.967349,14.8280337 L116.238595,16.8307117 L117.918015,18.2200247 L120.00441,18.86294 L119.553115,17.4071296 L119.797267,17.3110612 L122.734432,19.1289844 L123.910757,20.3778866 L122.682632,19.3359114 L120.344718,18.4269498 L120.759024,20.0748932 L122.978565,22.1589194 L123.185727,22.5210321 L121.632086,23.3708744 L122.57907,25.2995824 L122.068589,26.9253726 L121.143802,27.6052539 L119.834294,27.6052539 L118.036501,29.5710415 L122.71233,32.046674 L123.792479,34.9065345 L123.466943,35.5272777 L117.289388,35.7711519 L118.561907,39.5916774 L118.317756,42.5771547 L120.32271,45.0749214 L122.89737,45.9247637 L124.488001,46.7228836 L127.846764,45.8582663 L129.666753,43.1682909 L128.793748,39.9684707 L130.007061,38.1727197 L129.703723,36.2587679 L131.316551,35.9927405 L132.337513,33.9310377 L135.156306,36.1997053 L137.464674,38.4683729 L138.996118,39.1334603 L142.029497,42.0302113 L141.385851,38.1726062 L137.013436,34.9358956 L133.980057,31.7213192 L134.091032,31.5882998 L136.761906,34.1674147 L138.885234,35.2611122 L140.631245,36.5100145 L142.451235,38.8008164 L144.470962,41.734647 L148.236739,44.550239 L144.692935,37.433789 L145.395768,37.0569011 L143.805138,33.6722504 C143.368635,33.0662823 142.495629,31.8026049 142.310683,31.4404732 C142.273692,31.2483402 142.007345,30.9083995 140.964186,29.7186166 L141.778005,29.8664148 L146.327884,34.8990278 L145.950568,34.8990278 L145.839593,38.1875742 L148.451185,42.0746917 L149.775486,41.3948103 L149.871663,40.6927758 L152.372269,44.114317 L153.866724,49.0729599 L153.755749,50.3218622 L149.738453,48.1861894 L148.414153,49.6050525 L149.057799,52.4427788 L147.186028,51.7407443 L144.818568,49.7380662 L141.674202,48.9399462 L140.919569,46.1022199 L139.092193,43.6784233 L136.991025,44.7203986 L134.090981,44.7795179 L131.464616,45.6293601 L129.873986,47.1221177 L128.490499,48.2379873 L124.702563,46.966913 L122.73454,51.0757515 L121.654391,54.371676 L122.224059,57.6823567 L120.559432,59.345094 L118.458263,60.1579891 L116.971195,63.261705 L116.231374,66.4025004 L115.114236,67.7252971 L114.145054,71.3167235 L115.780079,75.5216663 L116.00942,78.832347 L115.062435,83.4657865 L115.898452,87.5524908 L119.212896,91.0109224 L121.432437,92.710607 L121.905929,95.5483333 L128.290685,100.336902 L132.759313,98.2159852 L136.724904,98.6224233 L139.395777,95.858667 L143.464778,94.3289623 L146.157812,96.523849 L148.976604,94.8019923 L149.242934,98.8663731 L148.221972,102.480123 L147.807666,105.886908 L149.553677,108.746769 L149.627662,112.95909 L147.829869,119.166521 L144.138147,125.314928 L143.605468,128.529505 L139.224305,138.728002 Z M144.491809,128.79596 L145.00229,125.729134 L148.67924,119.602861 L150.595367,113.09236 L150.49919,108.473677 L148.797573,105.672841 L149.160098,102.66523 L150.195871,98.9629429 L149.818555,93.1766297 L146.237819,95.3715164 L143.640999,93.2505998 L138.980133,95.0094037 L136.36854,97.6401651 L132.580604,97.2632772 L128.378268,99.2290648 L122.770418,95.024122 L122.296926,92.1863957 L119.833252,90.3167503 L116.76294,87.1021739 L116.023119,83.4662898 L116.970103,78.8844969 L116.725951,75.3889856 L115.157518,71.2653909 L115.912151,68.2577794 L117.029289,66.9128106 L117.865306,63.5652395 L119.152617,60.8973984 L120.987398,60.1953639 L123.221712,58.0004771 L122.637253,54.4459412 L123.599029,51.4160062 L125.189659,48.1274598 L128.69653,49.3024487 L130.494323,47.8244663 L131.855612,46.4794975 L134.16398,45.7257217 L137.115919,45.6666024 L138.802725,44.8684825 L140.016039,46.4351344 L140.903836,49.7236808 L144.299721,50.5291789 L146.630249,52.5171008 L150.359093,53.958136 L149.434306,49.8863771 L149.944788,49.3543035 L154.568721,51.8151797 L154.812873,48.9774534 L153.79191,45.5706684 C159.436882,56.5447236 162.64034,68.9894777 162.64034,82.1584195 C162.64034,103.248401 154.457829,122.471159 141.088877,136.81492 L144.491809,128.79596 Z" id="Shape"></path>
                    <path d="M66.5051554,24.2874825 L64.6577547,24.2874825 L64.6789902,24.0180915 L66.5619075,21.9125442 L65.1674687,22.2953611 L64.5091816,22.4725885 L64.4383969,22.4938545 L64.3817698,22.5151223 L64.3109869,22.5363902 L64.2543599,22.557658 L63.0935145,22.8837619 L58.8322614,27.0734418 L64.9409152,27.8886926 L66.8095172,26.5984686 L66.5051554,24.2874825 Z M64.7143273,26.9387445 L60.7999035,26.4141543 L63.5745382,23.6706998 L63.8435212,23.5998095 L63.7019535,25.1948678 L65.712259,25.1948678 L65.8396707,26.1589878 L64.7143273,26.9387445 Z" id="Shape"></path>
                    <polygon id="Shape" points="65.6421339 29.880742 62.8208893 28.8811181 65.8123602 27.8886926"></polygon>
                    <path d="M25.3382267,66.7336572 L23.0462833,64.9635609 L20.9924689,62.5466166 L19.697638,60.5560634 L17.5841961,60.8688595 L16.9516685,59.5039711 L19.9802876,57.7694346 L22.5551281,59.8167671 L23.9839017,61.8640996 L25.9260813,63.705243 L25.3382267,66.7336572 Z M20.1738769,59.5679935 L21.7663689,62.0206068 L23.7159781,64.3238104 L24.6908208,65.0702405 L24.8991931,64.003917 L23.2546176,62.4257603 L21.803517,60.3642329 L19.8984855,58.8642753 L18.1720507,59.8523998 L20.1738769,59.5679935 Z" id="Shape"></path>
                    <path d="M28.4492377,71.7137809 L27.1423703,69.6577064 L23.9317673,68.6332207 L26.7873127,67.3455014 L27.6409401,65.7376325 L30.8287235,67.0253518 L33.2008025,68.7755195 L33.9033371,70.7532778 L31.304609,71.2868663 L29.4765069,69.9635769 L28.4492377,71.7137809 Z M29.1593337,68.5977052 L31.5238707,70.3123027 L32.6343347,70.0846392 L32.3699367,69.3305084 L30.2774945,67.7795555 L28.0943541,66.9044716 L27.4975827,68.0285647 L26.4853203,68.4838917 L27.7846456,68.8965272 L28.4116434,69.8783214 L29.1593337,68.5977052 Z" id="Shape"></path>
                    <polygon id="Shape" points="37.891965 71.7137809 35.3668811 71.7137809 33.9033371 70.8076445 33.9033371 69.7217314 35.656362 69.7217314"></polygon>
                    <path d="M135.449513,41.8330389 L133.619034,39.1535817 L133.619034,38.6696023 L134.723028,37.8489399 L135.770042,38.8239197 L136.610505,40.4862893 L135.449513,41.8330389 Z M134.63042,39.034351 L135.506493,40.3109449 L134.993671,39.2938752 L134.673159,39.0062852 L134.63042,39.034351 Z" id="Shape"></path>
                    <polygon id="Shape" points="142.115941 43.8250883 138.604819 41.9319198 140.54524 40.8370141 141.792642 41.2184689 142.593447 42.7230758"></polygon>
                </g>
            </g>
        </g>
    </g>
</svg>