<?xml version="1.0" encoding="UTF-8"?>
<svg width="58px" height="67px" viewBox="0 0 58 67" version="1.1" xmlns="http://www.w3.org/2000/svg" xmlns:xlink="http://www.w3.org/1999/xlink">
    <!-- Generator: Sketch 49 (51002) - http://www.bohemiancoding.com/sketch -->
    <title>np_security_1274660_000000</title>
    <desc>Created with Sketch.</desc>
    <defs></defs>
    <g id="Page-1" stroke="none" stroke-width="1" fill="none" fill-rule="evenodd">
        <g id="Tablet" transform="translate(-149.000000, -3079.000000)" fill="#939393" fill-rule="nonzero">
            <g id="np_security_1274660_000000" transform="translate(149.000000, 3079.000000)">
                <path d="M29.0000154,67 C28.9708748,67 28.9417334,67 28.9125905,66.9942071 C3.98541561,63.9213017 0.153162741,13.1032532 0.00172273098,10.9397261 C-0.0157615031,10.6906462 0.100800306,10.4502559 0.307706153,10.3054449 C0.511695101,10.1606339 0.77978868,10.1403555 1.01000734,10.2388308 C15.6914822,16.7525451 28.2975576,0.431780471 28.4258713,0.267180397 C28.6968818,-0.0890601323 29.3001203,-0.0890601323 29.5711457,0.267180397 C29.696453,0.432269822 42.3025507,16.7523968 56.9899937,10.2388308 C57.2202049,10.1403599 57.4883059,10.16353 57.6922948,10.3054449 C57.8991932,10.4502559 58.0157573,10.6906462 57.9982783,10.9397261 C57.8467487,13.1032532 54.0147346,63.920931 29.0874105,66.9942071 C29.0582691,67 29.0291277,67 28.9999856,67 L29.0000154,67 Z M1.53193078,11.9968834 C2.26045422,19.6544941 7.31641697,62.7826792 28.9970314,65.5690174 C50.6865233,62.7828275 55.7370103,19.6544941 56.465116,11.9968834 C43.0429058,17.0334974 31.6371604,4.92708782 28.9970314,1.82504373 C26.3597372,4.92983116 14.9451888,17.0364632 1.53193078,11.9968834 Z" id="Shape"></path>
                <path d="M29,50 C20.1779373,50 13,42.8220627 13,34 C13,25.1779373 20.1779373,18 29,18 C37.8220627,18 45,25.1779373 45,34 C45,42.825085 37.8220627,50 29,50 Z M29,19.45221 C20.9780884,19.45221 14.45221,25.9778617 14.45221,34 C14.45221,42.0219116 20.9778617,48.54779 29,48.54779 C37.0221383,48.54779 43.54779,42.0221383 43.54779,34 C43.54779,25.9780884 37.0221383,19.45221 29,19.45221 Z" id="Shape"></path>
                <path d="M27.5287235,38 C27.3562278,38 27.1866585,37.9417357 27.0492502,37.8279793 L22.2398482,33.7577669 C21.9445615,33.5080637 21.9182459,33.0752383 22.1813761,32.7922234 C22.4445019,32.5119999 22.897667,32.4842567 23.1988216,32.7367334 L27.5170147,36.3934966 L36.788088,28.1834652 C37.0775293,27.9282077 37.5336135,27.9393093 37.8055335,28.2167585 C38.0774311,28.4914348 38.0628138,28.9242531 37.7704491,29.1823019 L28.0203665,37.8163656 C27.8829582,37.93567 27.7075361,37.9994808 27.529195,37.9994808 L27.5287235,38 Z" id="Shape"></path>
            </g>
        </g>
    </g>
</svg>