<?xml version="1.0" encoding="UTF-8"?>
<svg width="49px" height="52px" viewBox="0 0 49 52" version="1.1" xmlns="http://www.w3.org/2000/svg" xmlns:xlink="http://www.w3.org/1999/xlink">
    <!-- Generator: Sketch 49 (51002) - http://www.bohemiancoding.com/sketch -->
    <title>np_monthly-calendar_972037_000000</title>
    <desc>Created with Sketch.</desc>
    <defs></defs>
    <g id="Page-1" stroke="none" stroke-width="1" fill="none" fill-rule="evenodd">
        <g id="Tablet" transform="translate(-536.000000, -3086.000000)" fill="#939393" fill-rule="nonzero">
            <g id="np_monthly-calendar_972037_000000" transform="translate(536.000000, 3086.000000)">
                <polygon id="Shape" points="11 24 14 24 14 26 11 26"></polygon>
                <polygon id="Shape" points="11 34 14 34 14 36 11 36"></polygon>
                <polygon id="Shape" points="11 42 14 42 14 44 11 44"></polygon>
                <polygon id="Shape" points="23 24 26 24 26 26 23 26"></polygon>
                <polygon id="Shape" points="23 42 26 42 26 44 23 44"></polygon>
                <polygon id="Shape" points="36 24 39 24 39 26 36 26"></polygon>
                <polygon id="Shape" points="36 42 39 42 39 44 36 44"></polygon>
                <path d="M44.2318401,3.82140228 L44.2318401,1.82797433 C44.2318401,0.819075249 43.3966553,0 42.374055,0 L40.8359912,0 C39.8106389,0 38.9782061,0.821783051 38.9782061,1.82797433 L38.9782061,3.78071582 L27.0015322,3.78342779 L27.0015322,1.8306863 C27.0015322,0.821787217 26.1663475,0.00271196739 25.1437471,0.00271196739 L23.6056834,0.00271196739 C22.580331,0.00271196739 21.7478982,0.824495018 21.7478982,1.8306863 L21.7478982,3.78342779 L9.77404689,3.78342779 L9.77404689,1.8306863 C9.77404689,0.821787217 8.93886212,0.00271196739 7.91626177,0.00271196739 L6.37819802,0.00271196739 C5.35284571,0.00271196739 4.52041289,0.824495018 4.52041289,1.8306863 L4.52041289,3.85938509 C1.93766255,4.27163052 0,6.45491701 0,9.09925879 L0,46.6842384 C0,49.6160932 2.42285438,52 5.40245156,52 L43.5975484,52 C46.5772162,52 49,49.6160238 49,46.6842384 L48.9972438,9.09648156 C49,6.37889028 46.9106931,4.13328963 44.231483,3.82133701 L44.2318401,3.82140228 Z M40.389468,1.83068213 C40.389468,1.58659118 40.5906857,1.39131703 40.8359983,1.39131703 L42.374062,1.39131703 C42.6221336,1.39131703 42.8205923,1.58930593 42.8205923,1.83068213 L42.8205923,7.12478129 C42.8205923,7.36887224 42.6193746,7.56414639 42.374062,7.56414639 L40.8359983,7.56414639 C40.5879267,7.56414639 40.389468,7.3661575 40.389468,7.12478129 L40.389468,1.83068213 Z M23.1593718,1.83068213 C23.1593718,1.58659118 23.3605895,1.39131703 23.6059021,1.39131703 L25.1439658,1.39131703 C25.3920375,1.39131703 25.5904962,1.58930593 25.5904962,1.83068213 L25.5904962,7.12478129 C25.5904962,7.36887224 25.3892784,7.56414639 25.1439658,7.56414639 L23.6059021,7.56414639 C23.3578305,7.56414639 23.1593718,7.3661575 23.1593718,7.12478129 L23.1593718,1.83068213 Z M5.92927562,1.83068213 C5.92927562,1.58659118 6.13049334,1.39131703 6.37580593,1.39131703 L7.91386968,1.39131703 C8.16194129,1.39131703 8.36039999,1.58930593 8.36039999,1.83068213 L8.36039999,7.12478129 C8.36039999,7.36887224 8.15918227,7.56414639 7.91386968,7.56414639 L6.37580593,7.56414639 C6.12773432,7.56414639 5.92927562,7.3661575 5.92927562,7.12478129 L5.92927562,1.83068213 Z M4.51801375,5.26965951 L4.51801375,7.12207349 C4.51801375,8.13097257 5.35319852,8.95004782 6.37579888,8.95004782 L7.91386262,8.95004782 C8.93921494,8.95004782 9.77164775,8.12826477 9.77164775,7.12207349 L9.77164775,5.169332 L21.7483216,5.169332 L21.7483216,7.12207349 C21.7483216,8.13097257 22.5835064,8.95004782 23.6061067,8.95004782 L25.1441705,8.95004782 C26.1695228,8.95004782 27.0019556,8.12826477 27.0019556,7.12207349 L27.0019556,5.169332 L38.9786295,5.169332 L38.9786295,7.12207349 C38.9786295,8.13097257 39.8138142,8.95004782 40.8364146,8.95004782 L42.3744783,8.95004782 C43.3998306,8.95004782 44.2322635,8.12826477 44.2322635,7.12207349 L44.2322635,5.22355746 C46.1313986,5.5246025 47.5895143,7.1437359 47.5895143,9.09647739 L47.5895143,15.8524422 L1.40949779,15.8551542 L1.40949779,9.09918936 C1.40949779,7.22240517 2.72705187,5.66562758 4.51864882,5.26966368 L4.51801375,5.26965951 Z M43.5979718,50.6086719 L5.40287494,50.6086719 C3.20328219,50.6086719 1.41168525,48.848462 1.41168525,46.6815265 L1.40892905,17.2442522 L47.5861262,17.2442522 L47.5861231,46.6815265 C47.5888793,48.8458236 45.7972075,50.6086719 43.5976853,50.6086719 L43.5979718,50.6086719 Z" id="Shape"></path>
                <polygon id="Shape" points="25.6389535 32.009458 24.004743 33.6388359 22.3610465 32 22 32.3599788 23.6436965 33.9988147 22 35.6376506 22.3610465 36 24.004743 34.3611641 25.6389535 35.9881775 26 35.6281987 24.368161 33.9988208 26 32.3718074"></polygon>
                <polygon id="Shape" points="38.6367924 32.009458 37.0059252 33.6388359 35.3632076 32 35 32.3599788 36.6427176 33.9988147 35 35.6376506 35.3632076 36 37.0059252 34.3611641 38.6367924 35.9881775 39 35.6281987 37.3667628 33.9988208 39 32.3718074"></polygon>
            </g>
        </g>
    </g>
</svg>