<?xml version="1.0" encoding="UTF-8"?>
<svg width="81px" height="74px" viewBox="0 0 81 74" version="1.1" xmlns="http://www.w3.org/2000/svg" xmlns:xlink="http://www.w3.org/1999/xlink">
    <!-- Generator: Sketch 49 (51002) - http://www.bohemiancoding.com/sketch -->
    <title>np_graph_648713_000000</title>
    <desc>Created with Sketch.</desc>
    <defs></defs>
    <g id="Page-1" stroke="none" stroke-width="1" fill="none" fill-rule="evenodd">
        <g id="Tablet" transform="translate(-345.000000, -3072.000000)" fill="#939393" fill-rule="nonzero">
            <g id="np_graph_648713_000000" transform="translate(345.000000, 3072.000000)">
                <path d="M13.5625,53 C13.2504925,53 13,53.267192 13,53.6 L13,67.4 C13,67.732808 13.2504925,68 13.5625,68 L21.4375,68 C21.7495075,68 22,67.732808 22,67.4 L22,53.6 C22,53.267192 21.7495075,53 21.4375,53 L13.5625,53 Z M20.875,66.8 L14.125,66.8 L14.125,54.2 L20.875,54.2 L20.875,66.8 Z" id="Shape"></path>
                <path d="M28.5625,41 C28.2504925,41 28,41.257296 28,41.5777778 L28,66.4222222 C28,66.742704 28.2504925,67 28.5625,67 L36.4375,67 C36.7495075,67 37,66.742704 37,66.4222222 L37,41.5777778 C37,41.257296 36.7495075,41 36.4375,41 L28.5625,41 Z M35.875,65.8444444 L29.125,65.8444444 L29.125,42.1555556 L35.875,42.1555556 L35.875,65.8444444 Z" id="Shape"></path>
                <path d="M44.5625,30 C44.2504925,30 44,30.267192 44,30.6 L44,68.4 C44,68.732808 44.2504925,69 44.5625,69 L52.4375,69 C52.7495075,69 53,68.732808 53,68.4 L53,30.6 C53,30.267192 52.7495075,30 52.4375,30 L44.5625,30 Z M51.875,67.8 L45.125,67.8 L45.125,31.2 L51.875,31.2 L51.875,67.8 Z" id="Shape"></path>
                <path d="M60,17.6117647 L60,68.3882353 C60,68.7275689 60.2504925,69 60.5625,69 L68.4375,69 C68.7495075,69 69,68.7275689 69,68.3882353 L69,17.6117647 C69,17.2724311 68.7495075,17 68.4375,17 L60.5625,17 C60.2504925,17 60,17.2772028 60,17.6117647 Z M61.125,18.2235294 L67.875,18.2235294 L67.875,67.7764706 L61.125,67.7764706 L61.125,18.2235294 Z" id="Shape"></path>
                <path d="M0.606178531,73.9998903 L80.3938215,73.9998903 C80.7300566,73.9998903 81,73.7284928 81,73.3904465 C81,73.0524001 80.7300566,72.7810026 80.3938215,72.7810026 L1.21235706,72.7810026 L1.21235706,0.609443843 C1.21235706,0.271397532 0.942413638,0 0.606178531,0 C0.269943423,0 0,0.271397532 0,0.609443843 L0,73.395322 C0,73.7286147 0.269943423,74 0.606178531,74 L0.606178531,73.9998903 Z" id="Shape"></path>
                <path d="M8.58722443,48.9990262 C8.67437477,48.9990262 8.76152981,48.979816 8.84868249,48.9365893 C9.01839656,48.8501383 25.7977782,40.0993159 36.9531343,29.9034078 C46.2599891,21.3974938 54.0161321,7.78163776 56.4057268,3.34793929 L56.8323076,6.21521185 C56.8781772,6.51778779 57.1258696,6.73391522 57.4102607,6.73391522 C57.4377827,6.73391522 57.4698914,6.72911266 57.502,6.72431011 C57.8230864,6.67147827 58.0432579,6.35928615 57.9928004,6.02309475 L57.3368773,1.60931473 C57.313943,1.46043049 57.2313793,1.34035423 57.1212971,1.24909824 C57.0708408,1.17705495 57.0066235,1.10981667 56.9240586,1.06179108 C56.8185595,1.00415669 56.7084784,0.994551575 56.6029722,1.00415669 C56.5020609,0.994551575 56.4057338,0.999354133 56.3094102,1.04257962 L52.2637736,2.86769942 C51.9656203,3.00218582 51.8280219,3.36239 51.9564494,3.6745809 C52.0848886,3.9867718 52.4288963,4.13084856 52.7270497,3.99637446 L55.3370507,2.81967384 C52.9334825,7.26714308 45.2962908,20.6331579 36.1780202,28.9718553 C25.1373882,39.0626383 8.49160072,47.7468347 8.32603175,47.832902 C8.03706106,47.9817863 7.91779269,48.3516177 8.05999412,48.6590011 C8.16549209,48.8751286 8.37189788,49 8.58748981,49 L8.58722443,48.9990262 Z" id="Shape"></path>
            </g>
        </g>
    </g>
</svg>