<?xml version="1.0" encoding="UTF-8"?>
<svg width="30px" height="33px" viewBox="0 0 30 33" version="1.1" xmlns="http://www.w3.org/2000/svg" xmlns:xlink="http://www.w3.org/1999/xlink">
    <!-- Generator: Sketch 49 (51002) - http://www.bohemiancoding.com/sketch -->
    <title>logo</title>
    <desc>Created with Sketch.</desc>
    <defs></defs>
    <g id="Page-1" stroke="none" stroke-width="1" fill="none" fill-rule="evenodd">
        <g id="Home" transform="translate(-58.000000, -18.000000)" fill="#29A7DC">
            <g id="logo" transform="translate(58.000000, 18.000000)">
                <path d="M27.1937721,32.321137 C14.1325465,26.8874151 0,33 0,33 C0,33 25.485824,-2.81552687 29.3487208,0.177680185 C33.2116176,3.17088724 19.1163516,28.2248677 7.49168236,25.894303 C15.6324782,25.8959252 21.1632711,17.3837811 24.9722745,12.0987036 C22.3411902,12.2648013 18.5477522,12.6422751 18.5477522,12.6422751 C18.5477522,12.6422751 21.4510375,11.7791096 25.8429798,10.4968591 C28.7326851,6.32928858 28.7417634,2.73129221 27.7895636,2.10928045 C24.9938598,0.283024381 3.01252449,30.4610999 3.01252449,30.4610999 C3.01252449,30.4610999 16.0590428,27.0587743 27.1937721,32.321137 Z"></path>
            </g>
        </g>
    </g>
</svg>