<?xml version="1.0" encoding="UTF-8"?>
<svg width="27px" height="82px" viewBox="0 0 27 82" version="1.1" xmlns="http://www.w3.org/2000/svg" xmlns:xlink="http://www.w3.org/1999/xlink">
    <!-- Generator: Sketch 49 (51002) - http://www.bohemiancoding.com/sketch -->
    <title>Group 7</title>
    <desc>Created with Sketch.</desc>
    <defs></defs>
    <g id="Page-1" stroke="none" stroke-width="1" fill="none" fill-rule="evenodd">
        <g id="Research" transform="translate(-67.000000, -599.000000)">
            <g id="Group-6" transform="translate(55.000000, 599.000000)">
                <g id="Group-7" transform="translate(12.000000, 0.000000)">
                    <polygon id="Rectangle-8" fill="#C40E15" points="0 0 27 0 27 82 13.5 68.4902344 0 82"></polygon>
                    <path d="M-8.736,28.672 L-6.064,28.672 L-0.576,37.088 L-0.544,37.088 L-0.544,28.672 L1.472,28.672 L1.472,40 L-1.088,40 L-6.688,31.312 L-6.72,31.312 L-6.72,40 L-8.736,40 L-8.736,28.672 Z M7.3019999,28.672 L9.3179999,28.672 L9.3179999,40 L7.3019999,40 L7.3019999,28.672 Z M15.1479998,28.672 L18.9559998,28.672 C19.5000025,28.672 20.0253306,28.7253328 20.5319998,28.832 C21.038669,28.9386672 21.4839979,29.1173321 21.8679998,29.368 C22.2520017,29.6186679 22.5586653,29.9546646 22.7879998,30.376 C23.0173343,30.7973354 23.1319998,31.3226635 23.1319998,31.952 C23.1319998,32.6666702 23.0093344,33.2426645 22.7639998,33.68 C22.5186652,34.1173355 22.1880019,34.4559988 21.7719998,34.696 C21.3559977,34.9360012 20.8733359,35.0986662 20.3239998,35.184 C19.7746637,35.2693338 19.2013361,35.312 18.6039998,35.312 L17.1639998,35.312 L17.1639998,40 L15.1479998,40 L15.1479998,28.672 Z M18.3799998,33.584 C18.6680012,33.584 18.9666649,33.5733334 19.2759998,33.552 C19.5853347,33.5306666 19.8706652,33.4666672 20.1319998,33.36 C20.3933344,33.2533328 20.6066656,33.0933344 20.7719998,32.88 C20.937334,32.6666656 21.0199998,32.3680019 21.0199998,31.984 C21.0199998,31.6319982 20.9453339,31.352001 20.7959998,31.144 C20.6466657,30.935999 20.4546676,30.7760006 20.2199998,30.664 C19.985332,30.5519994 19.7240012,30.4800002 19.4359998,30.448 C19.1479984,30.4159998 18.8706678,30.4 18.6039998,30.4 L17.1639998,30.4 L17.1639998,33.584 L18.3799998,33.584 Z M33.8259997,31.104 C33.6126653,30.7946651 33.3273348,30.5680007 32.9699997,30.424 C32.6126646,30.2799993 32.2366684,30.208 31.8419997,30.208 C31.6073319,30.208 31.3806675,30.2346664 31.1619997,30.288 C30.943332,30.3413336 30.7460006,30.4266661 30.5699997,30.544 C30.3939988,30.6613339 30.2526669,30.8133324 30.1459997,31 C30.0393325,31.1866676 29.9859997,31.4079987 29.9859997,31.664 C29.9859997,32.0480019 30.1193317,32.3413323 30.3859997,32.544 C30.6526677,32.7466677 30.9833311,32.9226659 31.3779997,33.072 C31.7726684,33.2213341 32.204664,33.3653326 32.6739997,33.504 C33.1433354,33.6426674 33.5753311,33.8346654 33.9699997,34.08 C34.3646684,34.3253346 34.6953317,34.6506646 34.9619997,35.056 C35.2286677,35.4613354 35.3619997,35.9999966 35.3619997,36.672 C35.3619997,37.280003 35.2500008,37.8106644 35.0259997,38.264 C34.8019986,38.7173356 34.5006683,39.0933318 34.1219997,39.392 C33.7433312,39.6906682 33.3033356,39.9146659 32.8019997,40.064 C32.3006639,40.2133341 31.7726692,40.288 31.2179997,40.288 C30.5139962,40.288 29.8366696,40.1706678 29.1859997,39.936 C28.5353298,39.7013322 27.9753354,39.3066694 27.5059997,38.752 L29.0259997,37.28 C29.2713343,37.6533352 29.5939977,37.943999 29.9939997,38.152 C30.3940017,38.360001 30.8179975,38.464 31.2659997,38.464 C31.5006676,38.464 31.7353319,38.4320003 31.9699997,38.368 C32.2046676,38.3039997 32.4179988,38.2080006 32.6099997,38.08 C32.8020007,37.9519994 32.9566658,37.7893343 33.0739997,37.592 C33.1913336,37.3946657 33.2499997,37.1680013 33.2499997,36.912 C33.2499997,36.4959979 33.1166677,36.1760011 32.8499997,35.952 C32.5833317,35.7279989 32.2526684,35.5386674 31.8579997,35.384 C31.4633311,35.2293326 31.0313354,35.0826674 30.5619997,34.944 C30.092664,34.8053326 29.6606684,34.6160012 29.2659997,34.376 C28.8713311,34.1359988 28.5406677,33.816002 28.2739997,33.416 C28.0073317,33.015998 27.8739997,32.4800034 27.8739997,31.808 C27.8739997,31.2213304 27.9939985,30.7146688 28.2339997,30.288 C28.4740009,29.8613312 28.7886644,29.5066681 29.1779997,29.224 C29.567335,28.9413319 30.0126639,28.7306674 30.5139997,28.592 C31.0153356,28.4533326 31.5273304,28.384 32.0499997,28.384 C32.647336,28.384 33.2259969,28.4746658 33.7859997,28.656 C34.3460025,28.8373342 34.8499975,29.1359979 35.2979997,29.552 L33.8259997,31.104 Z" id="NIPS" fill="#FFFFFF" transform="translate(13.313000, 34.336000) rotate(-270.000000) translate(-13.313000, -34.336000) "></path>
                </g>
            </g>
        </g>
    </g>
</svg>