<?xml version="1.0" encoding="UTF-8"?>
<svg width="415px" height="302px" viewBox="0 0 415 302" version="1.1" xmlns="http://www.w3.org/2000/svg" xmlns:xlink="http://www.w3.org/1999/xlink">
    <!-- Generator: Sketch 49 (51002) - http://www.bohemiancoding.com/sketch -->
    <title>Group 13</title>
    <desc>Created with Sketch.</desc>
    <defs></defs>
    <g id="Page-1" stroke="none" stroke-width="1" fill="none" fill-rule="evenodd">
        <g id="Home" transform="translate(-162.000000, -970.000000)">
            <g id="Group-11" transform="translate(0.000000, 842.000000)">
                <g id="Group-13" transform="translate(162.000000, 128.000000)">
                    <g id="np_desktop_311394_000000" transform="translate(0.000000, 227.000000)" fill="#454545" fill-rule="nonzero">
                        <path d="M89.898,0.5 L4,0.5 C2.3008,0.5 0.8984,1.8984 0.8984,3.6016 L0.8984,60.4026 C0.8984,62.1018 2.2968,63.5042 4,63.5042 L36.699,63.5042 L36.699,68.1058 L32.8006,73.305 C32.60138,73.50422 32.60138,73.90656 32.69904,74.10578 C32.8006,74.40656 33.09748,74.50422 33.39826,74.50422 L59.59726,74.50422 C59.89804,74.50422 60.19882,74.305 60.29648,74.10578 C60.39804,73.805 60.39804,73.50422 60.19492,73.305 L56.29652,68.1058 L56.29652,63.5042 L89.79652,63.5042 C91.49572,63.5042 92.89812,62.1058 92.89812,60.4026 L92.89812,3.5006 C92.99968,1.8014 91.60122,0.5006 89.89812,0.5006 L89.898,0.5 Z M4,2.1016 L89.898,2.1016 C90.69878,2.1016 91.398,2.80082 91.398,3.6016 L91.398,52.9996 L2.5,52.9996 L2.5,3.4996 C2.5,2.69882 3.19922,2.1012 4,2.1012 L4,2.1016 Z M55,68.6996 L58.1016,72.8012 L34.9996,72.8012 L38.1012,68.6996 C38.20276,68.59804 38.30042,68.39882 38.30042,68.1996 L38.30042,63.3988 L54.90242,63.3988 L54.90242,68.1996 C54.898514,68.39882 54.898514,68.50038 55.000076,68.6996 L55,68.6996 Z M89.898,61.8012 L4,61.8012 C3.19922,61.8012 2.5,61.10198 2.5,60.3012 L2.5,54.602 L91.398,54.602 L91.398,60.3012 C91.398,61.10198 90.69878,61.8012 89.898,61.8012 Z" id="Shape"></path>
                        <path d="M48.602,58.199 C48.602,60.3318 45.3989,60.3318 45.3989,58.199 C45.3989,56.0662 48.602,56.0662 48.602,58.199" id="Shape"></path>
                        <path d="M89.801,3.699 L4.102,3.699 L4.102,51.398 L89.801,51.398 L89.801,3.699 Z M88.1994,49.801 L5.6994,49.801 L5.6994,5.301 L88.1994,5.301 L88.1994,49.801 Z" id="Shape"></path>
                    </g>
                    <g id="np_chat_896272_000000" transform="translate(340.000000, 230.000000)" fill="#585858" fill-rule="nonzero">
                        <path d="M31.0715795,0 C28.120958,0 25.7144106,2.39489259 25.7144106,5.33122432 L25.7144106,21.3248973 L5.35716888,21.3248973 C2.4065474,21.3248973 0,23.7197899 0,26.6561216 L0,47.9810189 C0,50.9173506 2.4065474,53.3122432 5.35716888,53.3122432 L9.64290398,53.3122432 L9.64290398,62.908447 C9.63453394,63.3457779 9.89402663,63.7497781 10.2999929,63.9163789 C10.7059699,64.0871487 11.1789007,63.9913498 11.4844629,63.6748104 L21.8975135,53.3121899 L43.9283348,53.3121899 C46.8789563,53.3121899 49.2855037,50.9172973 49.2855037,47.9809656 L49.2855037,31.9872926 L53.1024865,31.9872926 L63.5155371,42.3499132 C63.8210671,42.66646 64.293998,42.7622514 64.7000071,42.5914816 C65.1059841,42.4248809 65.3654639,42.02087 65.357096,41.5835497 L65.357096,31.9873459 L69.6428311,31.9873459 C72.5934526,31.9873459 75,29.5924533 75,26.6561216 L75,5.33122432 C75,2.39489259 72.5934526,0 69.6428311,0 L31.0715795,0 Z M31.0715795,2.13248973 L69.6431954,2.13248973 C71.4428827,2.13248973 72.8574967,3.54025282 72.8574967,5.33122432 L72.8574967,26.6561216 C72.8574967,28.4470931 71.4428827,29.8548562 69.6431954,29.8548562 L64.2860265,29.8548562 C63.6959022,29.8548562 63.2145928,30.3338347 63.2145928,30.921101 L63.2145928,38.9845778 L54.3418354,30.1547909 C54.1367522,29.9548699 53.8563473,29.8465821 53.5717423,29.8549095 L31.0716331,29.8549095 C29.2719457,29.8549095 27.8573317,28.4471464 27.8573317,26.6561749 L27.8573317,5.33127763 C27.8573317,3.54030613 29.2719457,2.13254304 31.0716331,2.13254304 L31.0715795,2.13248973 Z M5.35716888,23.457387 L25.7144106,23.457387 L25.7144106,26.6561216 C25.7144106,29.5924533 28.120958,31.9873459 31.0715795,31.9873459 L47.1430861,31.9873459 L47.1430861,47.9810189 C47.1430861,49.7719904 45.7284721,51.1797535 43.9287848,51.1797535 L21.4286755,51.1797535 C21.1440813,51.1714239 20.8636656,51.2797139 20.6585825,51.4796348 L11.7858251,60.3094218 L11.7858251,52.245945 C11.7858251,51.6586787 11.3045156,51.1797001 10.7143913,51.1797001 L5.35722245,51.1797001 C3.55753514,51.1797001 2.14292112,49.771937 2.14292112,47.9809656 L2.14292112,26.6560683 C2.14292112,24.8650968 3.55753514,23.4573337 5.35722245,23.4573337 L5.35716888,23.457387 Z" id="Shape"></path>
                    </g>
                    <path d="M220.5,238.5 L220.5,261.5" id="Line-2" stroke="#979797" stroke-linecap="square"></path>
                    <path d="M220.5,121.5 L220.5,99.5" id="Line-2-Copy-2" stroke="#979797" stroke-linecap="square"></path>
                    <path d="M315.5,262.5 L123.438735,262.5" id="Line-2-Copy" stroke="#979797" stroke-linecap="square" transform="translate(219.500000, 262.500000) scale(-1, 1) translate(-219.500000, -262.500000) "></path>
                    <g id="np_brain_291205_000000" transform="translate(183.000000, 129.000000)" fill="#9F9F9F" fill-rule="nonzero">
                        <path d="M46.433428,0.000674611867 C46.0255311,0.000674611867 45.6497503,0.217349829 45.4506242,0.571052012 L31.7392248,1.07769613 C31.5240325,0.838710592 31.2189135,0.701691783 30.8945546,0.701691783 C30.4320539,0.701691783 30.0145288,0.982100283 29.8443285,1.41226935 L11.9543892,9.59815821 L11.9576016,9.59497196 C11.8194927,9.53761527 11.6717473,9.50893651 11.5240102,9.50893651 C10.916979,9.50893651 10.4223952,9.98371807 10.3966596,10.5827685 L5.30915153,15.9870051 L4.29099215,16.9429635 L4.28778054,16.9397773 C4.21390869,16.9238443 4.13361363,16.9174718 4.05653018,16.9174718 C3.75783282,16.9174718 3.46877192,17.0353698 3.25678625,17.2456742 C3.0448088,17.4559785 2.92597284,17.7395765 2.92597284,18.0391058 C2.92597284,18.3418165 3.05123037,18.6349749 3.2728525,18.8452792 L0.558857104,28.48399 C0.21519234,28.684734 0,29.0511779 0,29.4494926 C0,29.9911888 0.388632169,30.453253 0.921794788,30.5520384 L4.99114343,40.3596061 L4.99435586,40.3596061 C4.83055249,40.56035 4.74383257,40.8057146 4.74383257,41.0638128 C4.74383257,41.3601526 4.86266854,41.6437506 5.07464598,41.8540549 C5.28662343,42.0643593 5.57247766,42.1822573 5.87117502,42.1822573 C6.22447624,42.1822573 6.55528965,42.0197468 6.76723421,41.7425278 L16.3576493,43.9125429 C16.4315212,44.4701704 16.9100849,44.8844082 17.47538,44.8875895 C17.8318879,44.8844033 18.1691311,44.7187082 18.3811414,44.4319288 L25.3346857,46.3470271 C25.5209687,46.7389627 25.9192373,46.9875086 26.3560518,46.9875086 C26.979141,46.9875086 27.4866091,46.4872354 27.4866091,45.869056 C27.4833967,45.8308177 27.4833967,45.7925809 27.4769735,45.7543393 L30.5795517,43.0617652 L30.5827633,43.0585789 C30.7401451,43.1414248 30.9167916,43.1828478 31.096653,43.1860373 C31.4627974,43.1828511 31.8064621,43.0075955 32.0184478,42.7112558 L35.7602226,43.969933 C35.8983315,44.454275 36.3415593,44.7856669 36.849011,44.7856669 C36.929306,44.7856669 37.0095995,44.7761081 37.0898978,44.7601752 L44.4127849,52.2802621 C44.4031493,52.3439921 44.3967261,52.4077205 44.3967261,52.4746351 C44.3967261,53.0928064 44.9009793,53.5962691 45.5272834,53.5962691 C45.6043669,53.5962691 45.6814503,53.5867096 45.7585338,53.5707775 L49.2754304,56.6043284 C49.2529476,56.6935533 49.2401003,56.7859597 49.2401003,56.878366 C49.2401003,57.4997268 49.7443536,58 50.3706577,58 C50.9680524,58 51.4626527,57.5347788 51.4948016,56.9388935 L54.7130667,56.250618 C54.9282591,56.5342161 55.2622874,56.6999079 55.6156215,56.6999079 C55.9143188,56.6999079 56.2033797,56.5820099 56.4153654,56.3717056 C56.6273429,56.1614012 56.7461788,55.8746137 56.7461788,55.5782739 C56.7461788,54.9569132 56.2387107,54.4566399 55.6156215,54.4566399 C55.4742977,54.4566399 55.336197,54.4821316 55.2045097,54.533115 L53.2260755,50.3907371 L53.2292871,50.3907371 C53.351338,50.2059244 53.4155701,49.9924306 53.4155701,49.7725658 C53.4155701,49.6897199 53.4059344,49.6100553 53.3898756,49.5303908 L54.6649798,47.6344622 L54.6617682,47.6344622 C54.7741826,47.6695135 54.8930186,47.6886318 55.0118545,47.6886318 C55.3844205,47.6886318 55.7377217,47.5038192 55.946476,47.1947295 L60.022238,47.4974401 C60.1956778,47.9148675 60.6067896,48.1889051 61.0628441,48.1889051 C61.6891482,48.1889051 62.1934014,47.6886318 62.1934014,47.0672711 C62.1934014,47.0354061 62.1934014,47.0035411 62.1901898,46.9684939 L64.4769579,43.3677632 C64.7339027,43.3263394 64.968368,43.1988819 65.1417996,43.0045088 L67.293723,43.0045088 L67.2905114,43.0045088 C67.4703728,43.4155652 67.8782696,43.6832238 68.3279108,43.6832238 C68.9542149,43.6832238 69.4584681,43.1829506 69.4584681,42.5647712 C69.4584681,42.2461292 69.3235741,41.9434104 69.0826873,41.7299492 L72.9946624,35.8668624 L72.997874,35.8668624 C73.5663675,35.8031332 74,35.3251662 74,34.7547725 C74,34.2417493 73.6466988,33.7956326 73.1456275,33.6713964 L72.0246902,26.4126706 L72.0279018,26.4126706 C72.3747815,26.2119266 72.5867589,25.8422932 72.5867589,25.447168 C72.5867589,24.8258073 72.0825057,24.325534 71.4562016,24.325534 C71.4144483,24.325534 71.3726966,24.3287211 71.3309441,24.3319074 L63.8377745,11.3217687 L63.8377745,11.324955 C63.9501889,11.1465132 64.0112143,10.9425797 64.0112143,10.7322754 C64.0112143,10.1109146 63.5037462,9.61064139 62.8806569,9.61064139 C62.678316,9.61064139 62.4823965,9.66481101 62.3089567,9.766781 L47.5377112,0.882623991 C47.4220901,0.366419474 46.9660109,0 46.4328072,0 L46.433428,0.000674611867 Z M45.3446396,1.41548335 C45.4666905,1.85521282 45.8424713,2.17704428 46.2985833,2.23121716 L48.0008327,9.67796961 L32.0159852,1.96993762 L32.0159852,1.97312469 C32.0191969,1.95081927 32.0191969,1.92851384 32.0224085,1.90620842 L45.3448961,1.41230606 L45.3446396,1.41548335 Z M47.3616361,1.75962513 L61.1305912,10.0409548 L49.9631513,10.120617 C49.7704386,9.74461262 49.3818146,9.5088166 48.9578186,9.5088166 C48.9160653,9.5088166 48.8743136,9.51200286 48.8325611,9.51837618 L47.1174851,2.01427765 C47.2106266,1.94098886 47.2941316,1.85495668 47.3615786,1.75936083 L47.3616361,1.75962513 Z M29.8828085,2.32044213 C29.9470448,2.44471102 30.0337606,2.55942766 30.1397534,2.65183399 L24.2782042,11.6632455 L24.2749925,11.6664317 C24.165793,11.6313805 24.0501637,11.6122621 23.9345427,11.6122621 C23.5105878,11.6122621 23.1251623,11.8448768 22.9324166,12.2176916 L12.6291337,10.40456 C12.6162865,10.3472033 12.6002276,10.2898515 12.5809564,10.2356787 L29.8862948,2.32053186 L29.8828085,2.32044213 Z M31.6236202,2.71874864 L46.5584882,9.92012835 L34.5754026,11.2266076 L31.6269913,2.71850392 L31.6236202,2.71874864 Z M30.8592072,3.09793434 L33.7113361,11.3188998 L24.9620557,12.2716769 C24.95242,12.2493714 24.9427852,12.2302523 24.9299372,12.2079468 L30.8592072,3.09793434 Z M47.6506559,10.6466535 L36.86555,17.1024525 C36.7724085,17.0419104 36.6696306,16.9941149 36.5636378,16.9622524 L34.8581817,12.0391356 L47.6536241,10.6466535 L47.6506559,10.6466535 Z M61.7600115,10.8792682 L61.7632239,10.8792682 C61.79213,11.092762 61.8820599,11.2903246 62.0201688,11.4560165 L59.7430208,17.3764494 L50.0333832,10.9684524 C50.0333832,10.9652661 50.0365956,10.9652661 50.0365956,10.9620798 L61.7631475,10.8792339 L61.7600115,10.8792682 Z M12.4751115,11.2329622 L22.8523946,13.0588192 C22.8877247,13.1735277 22.9423294,13.2818735 23.012983,13.3774611 L14.6526143,21.9263516 L14.6494027,21.9263516 C14.617285,21.9231653 14.5819549,21.9199782 14.5498396,21.9199782 C14.4791802,21.9199782 14.4085241,21.9263516 14.3378622,21.9422837 C14.2768376,21.6204522 14.2190262,21.3177415 14.1323063,20.8939026 C13.8849979,19.6639391 13.5573912,18.0611037 13.2297516,16.4710754 C12.8025818,14.3934829 12.4492806,12.6983065 12.2019722,11.5225077 C12.3111717,11.4428456 12.4043131,11.3408764 12.474975,11.2293493 L12.4751115,11.2329622 Z M47.8726563,11.4974394 L42.8365372,26.6619311 L42.8397488,26.6587448 C42.7273344,26.6874228 42.6213498,26.7320336 42.5217785,26.7893928 L37.0553077,18.8168999 C37.2576487,18.6097769 37.373278,18.3293684 37.373278,18.0394077 C37.373278,17.9565617 37.3636423,17.8768972 37.3475835,17.7972326 L47.8761556,11.4943837 L47.8726563,11.4974394 Z M49.488161,11.6185269 L59.4321323,18.1826554 L56.451572,25.9289453 L56.4226659,25.9289453 C56.284557,25.9289453 56.1464482,25.954437 56.0147691,26.0022341 L49.4691299,11.6281885 L49.4723423,11.6313748 C49.4755539,11.6281885 49.4819779,11.6250022 49.4884011,11.6218152 L49.488161,11.6185269 Z M11.1265005,11.6790699 C11.2100055,11.7109349 11.2935106,11.7300533 11.3834454,11.7427991 C11.6307538,12.9281419 11.9808401,14.6042302 12.4016047,16.6435647 C12.7292115,18.2335931 13.0568182,19.8332471 13.3041595,21.0600292 C13.3748189,21.4105419 13.4197806,21.6431484 13.4743844,21.923565 L5.17486023,17.8480773 L5.1684362,17.844891 C5.14916575,17.7238035 5.10419999,17.6059055 5.04317867,17.4975679 L5.90717114,16.5798673 L11.1231927,11.6791017 L11.1265005,11.6790699 Z M63.1485826,11.8192782 L70.4008407,24.409314 L60.4667361,17.8547296 L62.7792398,11.8482368 C62.8113583,11.851423 62.8466884,11.8546101 62.8820177,11.8546101 C62.9719525,11.8546101 63.0618791,11.8418643 63.148599,11.8227451 L63.1485826,11.8192782 Z M48.6470264,11.860702 L55.3693614,26.6205897 L44.166566,27.363038 C44.0766312,27.1240525 43.9096211,26.920119 43.6880072,26.7894711 L48.6470264,11.860702 Z M33.9950033,12.1347396 L35.7004593,17.0578564 C35.5752018,17.1247718 35.4627874,17.2171773 35.3728525,17.3255149 L25.3261034,13.0779889 L33.9950033,12.1347396 Z M24.5583439,13.6674219 L35.0836272,18.1188813 L29.189929,21.3754539 C28.987588,21.209762 28.7370647,21.1205371 28.4736983,21.1205371 L28.3934033,21.1205371 L24.5552639,13.6642405 L24.5552639,13.6674268 L24.5584763,13.6674268 L24.5583439,13.6674219 Z M23.710467,13.8745449 L27.6352688,21.4965985 C27.4489858,21.700532 27.3462079,21.9681905 27.3462079,22.2422282 C27.3462079,22.4907741 27.4297129,22.732941 27.5838798,22.9305036 L22.08526,31.6360149 L22.0820484,31.6360149 L22.0178122,31.6360149 C21.8668602,31.6360149 21.7223215,31.6646928 21.5842209,31.7220503 L15.4015111,23.7845524 C15.5813725,23.580619 15.6809355,23.3193313 15.6809355,23.0452936 C15.6809355,22.7903768 15.591009,22.5418309 15.4304123,22.3410869 L23.710467,13.8745449 Z M60.1579912,18.6606183 L70.2590071,25.3267135 L57.2736311,26.1519914 L60.1578268,18.657437 L60.1579912,18.6606183 Z M4.97939303,18.6892963 L13.0988503,22.6755427 L1.8352103,28.5705247 L1.83199787,28.5705247 C1.72279836,28.4844893 1.6007475,28.4207641 1.46906018,28.379333 L4.06416206,19.1574622 L4.06737366,19.1574622 C4.42709645,19.154276 4.76754632,18.9790204 4.97634176,18.6890515 L4.97939303,18.6892963 Z M35.4822412,18.8613671 L35.4790296,18.8613671 C35.6878003,19.0525588 35.9608032,19.1577069 36.2434425,19.1577069 L36.2659254,19.1577069 L41.9990434,27.5189786 L41.9990434,27.5221648 C41.9829845,27.5954536 41.9765605,27.6719254 41.9765605,27.7484004 C41.9765605,27.8408068 41.9861961,27.9300317 42.008679,28.0192485 L38.1545062,33.8377147 L38.1577178,33.8345276 C38.0613615,33.8345276 37.96822,33.8472735 37.8782934,33.8727652 L29.4315912,22.8415967 C29.5440056,22.663155 29.605031,22.456032 29.605031,22.2457277 C29.605031,22.2011168 29.6018194,22.1596922 29.5953962,22.1150797 L35.4793922,18.8648699 L35.4822412,18.8613671 Z M28.7438728,23.3319963 L37.2004416,34.3729536 L37.1972292,34.3729536 C37.190806,34.3856986 37.1811704,34.3984452 37.1747472,34.4111903 L23.107325,32.461097 C23.06236,32.2890261 22.9756377,32.1328947 22.853595,31.9990572 L28.3168592,23.3506473 C28.3714598,23.3602069 28.422852,23.3633931 28.474241,23.3633931 C28.5641758,23.3633931 28.6541024,23.3506473 28.7408223,23.3315281 L28.7438728,23.3319963 Z M13.4521597,23.4403339 L9.33142212,32.3685406 L9.32821052,32.3685406 C9.14192756,32.4163377 8.97490929,32.5055594 8.83359374,32.6361992 L2.25901225,29.4147032 C2.25901225,29.3764665 2.25580065,29.3382281 2.24937662,29.2999947 L13.4488832,23.4400892 L13.4521597,23.4403339 Z M14.0206533,24.2242052 L16.1018655,38.0663924 L10.6224857,33.9494653 L10.6192733,33.9494653 C10.6963567,33.7965153 10.7349026,33.6276339 10.7381093,33.455563 C10.7348976,33.0668169 10.5325534,32.7035543 10.1985251,32.4996045 L14.0173422,24.223985 L14.0206533,24.2242052 Z M14.9264147,24.5428471 L20.9806932,32.3145879 L20.9774816,32.3145879 C20.916457,32.4547963 20.8875468,32.6045568 20.8875468,32.7543174 C20.8875468,33.305574 21.2954436,33.777166 21.8446972,33.8600446 L25.7438455,44.9230266 C25.6539107,44.9803833 25.5736206,45.050485 25.5029587,45.133331 L17.0653009,38.7923057 L14.9264147,24.5428471 Z M70.5325691,26.1488639 L68.0691052,32.3305763 L57.5536887,27.1143664 L57.550477,27.1175527 C57.5536887,27.092061 57.5536887,27.0697556 57.5536887,27.047451 L57.5536887,26.9773484 L70.529198,26.1520705 L70.5325691,26.1488639 Z M71.2198987,26.7064914 L72.3118937,33.7804535 L72.3086821,33.7836397 C72.1256058,33.888796 71.9778687,34.0385565 71.8782974,34.2233692 L68.8271082,32.7097751 L71.2166542,26.709645 L71.2198987,26.7064914 Z M55.2440957,27.4680523 L53.7409889,36.9892974 L44.1308404,28.213633 L44.1308404,28.2200063 C44.1308404,28.213633 44.134052,28.2104468 44.134052,28.2072605 L55.2406473,27.4711912 L55.2440957,27.4680523 Z M56.0052938,28.0830422 L56.0020822,28.0862284 C56.1369761,28.1403981 56.2815066,28.1690744 56.4228304,28.1690744 C56.5352448,28.1690744 56.6444443,28.1531423 56.7504371,28.1212773 L62.9074935,36.1925555 L54.8940209,37.4607769 C54.7976645,37.365181 54.6852501,37.288706 54.5599926,37.2345413 L56.0020904,28.0860865 L56.0052938,28.0830422 Z M57.8970656,28.2232505 L67.7538812,33.1112907 L66.7710774,35.574399 L63.8547328,36.0364387 L57.8970656,28.2232505 Z M43.508154,28.7904384 L53.1725693,37.6166783 L53.1757809,37.6198646 C53.0440936,37.8078667 52.9734399,38.030921 52.9734399,38.2603461 C52.9734399,38.2699057 52.9734399,38.2826515 52.9766523,38.2922111 L45.2715135,42.9285159 C45.1334046,42.8074283 44.9696013,42.7213929 44.7897399,42.6767886 L43.2608975,28.857442 C43.3476174,28.8446961 43.4311224,28.8255769 43.5114207,28.7937127 L43.508154,28.7904384 Z M42.416159,28.9274572 L43.9064391,42.3903281 L39.1112316,35.5585574 L39.1112316,35.5617445 C39.2268526,35.3833027 39.2910929,35.1698088 39.2910929,34.956315 C39.2910929,34.6567857 39.1690421,34.3700063 38.9570646,34.159702 L42.4193657,28.933948 L42.416159,28.9274572 Z M1.96029516,30.2020413 L8.47707433,33.394905 L8.48028594,33.4012775 C8.47707433,33.4172096 8.47707433,33.4363288 8.47707433,33.455448 C8.47707433,33.7199252 8.5734307,33.9812129 8.75007721,34.1819568 L5.80807923,39.9430769 C5.78559635,39.946264 5.76311347,39.946264 5.74063141,39.9494502 L1.76764737,30.3743667 L1.76764737,30.3775529 C1.83830679,30.3297558 1.90575625,30.2723967 1.96356679,30.2086716 L1.96029516,30.2020413 Z M23.0042839,33.2897569 L36.9401504,35.220762 L31.4897129,41.0074146 L31.4929245,41.0137871 C31.3676669,40.9659908 31.2327647,40.9436854 31.0978707,40.9404991 C30.8248679,40.9436854 30.5582865,41.0424659 30.3527307,41.2240971 L23.004108,33.2994063 L23.0073204,33.2994063 L23.0042839,33.2897569 Z M68.5127113,33.4905009 L71.2780956,34.8638703 L67.7418767,35.4246873 L68.5127113,33.4936822 L68.5127113,33.4905009 Z M22.968925,34.4974427 L29.9674482,42.0461619 L29.9706607,42.0525344 C29.9674482,42.0557206 29.9674482,42.0589069 29.9674482,42.062094 C29.9706607,42.1863629 29.9899311,42.3074504 30.0284728,42.422167 L27.0639459,44.9967861 L27.0671584,44.9935999 C26.9258346,44.8852622 26.7620394,44.8055977 26.5885996,44.7705456 L22.968925,34.5037198 L22.968925,34.4974427 Z M9.96793002,34.5101885 L16.2791533,39.2516414 L16.8187375,42.852372 L16.8187375,42.8555583 C16.7223811,42.9224737 16.6388761,43.0053188 16.5714291,43.0977333 L6.99663622,40.9309811 L6.99342461,40.9309811 C6.96130692,40.6569435 6.82641457,40.4020267 6.6176438,40.2204036 L9.50183946,34.5707943 C9.53716876,34.5739806 9.57249888,34.5771676 9.60783229,34.5771676 C9.72988315,34.5771676 9.85193401,34.5580485 9.96755508,34.5166247 L9.96793002,34.5101885 Z M72.1132281,35.5808392 L72.1164397,35.5872125 C72.1260753,35.5967721 72.1389226,35.6063309 72.1485582,35.6190767 L68.2590298,41.447087 C68.1755248,41.450274 68.0920198,41.4662061 68.0117214,41.4885115 L66.2516698,39.1783534 L67.3854338,36.3328291 L72.1164257,35.5840099 L72.1132281,35.5808392 Z M37.3964844,35.9695853 L36.2915804,42.6866638 L36.294792,42.6898501 C36.1149306,42.7918168 35.9671853,42.938396 35.8644074,43.1168378 L32.2125838,41.8868743 L32.2157963,41.8868743 C32.196525,41.7817181 32.1644073,41.67657 32.1194399,41.5809742 L37.3996771,35.9728042 L37.3964844,35.9695853 Z M38.4146438,36.0428733 L43.4443495,43.2059951 L37.9457297,43.406739 L37.9489413,43.4131123 C37.8590065,43.0179872 37.5603092,42.7057161 37.1684703,42.5910158 L38.2380187,36.0746893 L38.2412303,36.0746893 C38.2990433,36.068316 38.3600662,36.0619435 38.4178768,36.0460114 L38.4146438,36.0428733 Z M66.408888,36.4857922 L65.6508965,38.3912649 L64.4368013,36.7980551 L66.4120289,36.4857841 L66.408888,36.4857922 Z M63.48613,36.947832 L65.284744,39.3057922 L64.5428188,41.1666442 L64.5428188,41.1698313 C64.4625237,41.1507121 64.3790154,41.1411525 64.2955104,41.1411525 C63.964697,41.1411525 63.6499334,41.2845422 63.4379313,41.5362777 L55.9287283,38.1491061 L63.4861136,36.9542192 L63.48613,36.947832 Z M55.4372746,38.8469419 L63.1648873,42.3328988 L63.1680997,42.3360851 C63.1905818,42.6611061 63.351176,42.9606272 63.6113275,43.1550003 L61.7099356,46.1471119 C61.5204378,46.016464 61.295609,45.946368 61.0675735,45.946368 C61.0065489,45.946368 60.9487375,45.9527405 60.8877121,45.9623001 L55.4372746,38.853343 L55.4372746,38.8469419 Z M53.320734,39.0636253 L53.3239456,39.0668116 C53.4556329,39.19427 53.6162214,39.2866763 53.7928679,39.3344701 L54.3709897,45.6468631 C54.0658707,45.8571675 53.8827945,46.2013093 53.8827945,46.5677451 C53.8827945,46.7493763 53.9277602,46.9278181 54.0112669,47.0871391 L52.8582628,48.8046666 C52.684823,48.7026999 52.4889036,48.6517166 52.2865626,48.648527 C52.0617338,48.6517133 51.8401199,48.7186288 51.650622,48.8460896 L45.5803102,44.1460761 C45.6252752,44.0218072 45.6477581,43.8943488 45.6477581,43.7637008 C45.6477581,43.7382092 45.6477581,43.7127175 45.6445465,43.6872258 L53.320743,39.0700092 L53.320734,39.0636253 Z M54.6632605,39.2261358 L60.1586737,46.3957019 L60.1586737,46.4020744 C60.1008615,46.4785495 60.0526808,46.5645849 60.0173581,46.6538017 L56.1246231,46.3638328 C56.0379031,45.9049825 55.6717588,45.5449176 55.2060349,45.4652204 L54.6375414,39.2484314 L54.634329,39.2484314 C54.6439646,39.2420589 54.6536002,39.2356856 54.6664475,39.2293123 L54.6632605,39.2261358 Z M17.2421637,39.9781445 L24.0994034,45.1306456 L18.5943703,43.6138701 L18.5975827,43.6170572 C18.5301341,43.1231548 18.1415036,42.7312518 17.643639,42.6579174 L17.2421637,39.9813316 L17.2421637,39.9781445 Z M65.8816782,40.0896716 L67.3462228,42.0079513 L67.3462228,42.0143246 C67.3205283,42.0621217 67.2948338,42.1131018 67.2755625,42.1640852 L65.4191463,42.1640852 C65.4030874,41.9888329 65.348486,41.8231329 65.2553429,41.6733723 L65.8848537,40.0960694 L65.8816782,40.0896716 Z M43.4251095,44.0472858 L43.4283211,44.0536591 C43.5439421,44.4870177 43.9100947,44.8120387 44.3597359,44.8725743 L44.7933272,51.4557909 L37.798014,44.2734994 C37.8012256,44.2671269 37.8044372,44.2639406 37.8076496,44.2575673 L43.4282874,44.0504443 L43.4251095,44.0472858 Z M45.2108967,44.9235471 L51.1784306,49.543945 L51.1816422,49.5471313 C51.1655825,49.62042 51.1591593,49.6968918 51.1591593,49.7701855 C51.1591593,49.7988634 51.1591593,49.8243551 51.1623709,49.8498468 L46.37037,51.7235058 L46.3671584,51.7266921 C46.1776606,51.5163877 45.9175008,51.3857398 45.6348697,51.3570668 L45.2109148,44.9268002 L45.2108967,44.9235471 Z M51.5349467,50.60497 L51.5381591,50.6081562 C51.5799125,50.6463937 51.6248791,50.6782588 51.6698465,50.710123 L50.895797,52.7590016 L50.895797,52.7558153 C50.5617687,52.781307 50.2534349,52.9533779 50.0575401,53.224226 L46.6498348,52.6092361 C46.6530464,52.5773719 46.6530464,52.548694 46.6562588,52.5168298 L51.5382109,50.6081758 L51.5349467,50.60497 Z M52.5177505,50.8630763 L54.2842155,54.5625923 L52.0969365,53.7596003 L52.1001481,53.7659736 C52.071242,53.4760047 51.9299232,53.2051566 51.7018795,53.0171544 L52.5144665,50.8694904 L52.5208897,50.8694904 L52.5177505,50.8630763 Z M47.0030973,53.5237553 L49.858433,54.0399598 L49.858433,54.0431469 C49.9033979,54.3331158 50.0639888,54.597593 50.3016608,54.7728453 L50.1699734,55.7766057 C50.0318646,55.7989103 49.9001855,55.8498937 49.7813413,55.9231849 L47.0031302,53.5269668 L47.0030973,53.5237553 Z M51.8593139,54.5688735 L54.3195711,55.4706672 L51.2201995,56.1334509 L51.2201995,56.1398234 C51.1559633,56.0665355 51.0820907,56.0028046 51.0018005,55.9486318 L51.1270581,54.9831292 L51.1270581,54.9863163 C51.416119,54.9448925 51.6762787,54.7983141 51.8593468,54.5752598 L51.8593139,54.5688735 Z" id="Shape"></path>
                    </g>
                    <g id="np_database_250321_000000" transform="translate(197.000000, 0.000000)" fill="#999999" fill-rule="nonzero">
                        <path d="M23.5,0 C10.47536,0 0,3.33333333 0,7.33333333 L0,44.6666667 C0,48.6666667 10.47536,52 23.5,52 C36.52464,52 47,48.6666667 47,44.6666667 L47,7.33333333 C47,3.33333333 36.52464,0 23.5,0 Z M45.6571429,44.6666667 C45.6571429,48 35.7221486,50.6666667 23.5,50.6666667 C11.2778514,50.6666667 1.34285714,48 1.34285714,44.6666667 L1.34285714,37.7344 C4.56356571,40.5365333 13.2921371,42.6666667 23.5,42.6666667 C33.7078629,42.6666667 42.4369714,40.6666667 45.6571429,37.7344 L45.6571429,44.6666667 Z M45.6571429,35.3333333 C45.6571429,38.6666667 35.7221486,41.3333333 23.5,41.3333333 C11.2778514,41.3333333 1.34285714,38.6666667 1.34285714,35.3333333 L1.34285714,28.4010667 C4.56356571,31.2032 13.2921371,33.3333333 23.5,33.3333333 C33.7078629,33.3333333 42.4369714,31.3333333 45.6571429,28.4010667 L45.6571429,35.3333333 Z M45.6571429,26 C45.6571429,29.3333333 35.7221486,32 23.5,32 C11.2778514,32 1.34285714,29.3333333 1.34285714,26 L1.34285714,19.0677333 C4.56356571,21.8698667 13.2921371,24 23.5,24 C33.7078629,24 42.4369714,22 45.6571429,19.0677333 L45.6571429,26 Z M45.6571429,16.6666667 C45.6571429,20 35.7221486,22.6666667 23.5,22.6666667 C11.2778514,22.6666667 1.34285714,20 1.34285714,16.6666667 L1.34285714,9.7344 C4.56356571,12.5365333 13.2921371,14.6666667 23.5,14.6666667 C33.7078629,14.6666667 42.4369714,12.6666667 45.6571429,9.7344 L45.6571429,16.6666667 Z M23.5,13.3333333 C11.2778514,13.3333333 1.34285714,10.6666667 1.34285714,7.33333333 C1.34285714,4 11.2778514,1.33333333 23.5,1.33333333 C35.7221486,1.33333333 45.6571429,4 45.6571429,7.33333333 C45.6571429,10.6666667 35.7221486,13.3333333 23.5,13.3333333 Z" id="Shape"></path>
                    </g>
                </g>
            </g>
        </g>
    </g>
</svg>