<?xml version="1.0" encoding="UTF-8"?>
<svg width="47px" height="52px" viewBox="0 0 47 52" version="1.1" xmlns="http://www.w3.org/2000/svg" xmlns:xlink="http://www.w3.org/1999/xlink">
    <!-- Generator: Sketch 49 (51002) - http://www.bohemiancoding.com/sketch -->
    <title>np_database_250321_000000</title>
    <desc>Created with Sketch.</desc>
    <defs></defs>
    <g id="Page-1" stroke="none" stroke-width="1" fill="none" fill-rule="evenodd">
        <g id="Tablet" transform="translate(-485.000000, -2428.000000)" fill="#999999" fill-rule="nonzero">
            <g id="np_database_250321_000000" transform="translate(485.000000, 2428.000000)">
                <path d="M23.5,0 C10.47536,0 0,3.33333333 0,7.33333333 L0,44.6666667 C0,48.6666667 10.47536,52 23.5,52 C36.52464,52 47,48.6666667 47,44.6666667 L47,7.33333333 C47,3.33333333 36.52464,0 23.5,0 Z M45.6571429,44.6666667 C45.6571429,48 35.7221486,50.6666667 23.5,50.6666667 C11.2778514,50.6666667 1.34285714,48 1.34285714,44.6666667 L1.34285714,37.7344 C4.56356571,40.5365333 13.2921371,42.6666667 23.5,42.6666667 C33.7078629,42.6666667 42.4369714,40.6666667 45.6571429,37.7344 L45.6571429,44.6666667 Z M45.6571429,35.3333333 C45.6571429,38.6666667 35.7221486,41.3333333 23.5,41.3333333 C11.2778514,41.3333333 1.34285714,38.6666667 1.34285714,35.3333333 L1.34285714,28.4010667 C4.56356571,31.2032 13.2921371,33.3333333 23.5,33.3333333 C33.7078629,33.3333333 42.4369714,31.3333333 45.6571429,28.4010667 L45.6571429,35.3333333 Z M45.6571429,26 C45.6571429,29.3333333 35.7221486,32 23.5,32 C11.2778514,32 1.34285714,29.3333333 1.34285714,26 L1.34285714,19.0677333 C4.56356571,21.8698667 13.2921371,24 23.5,24 C33.7078629,24 42.4369714,22 45.6571429,19.0677333 L45.6571429,26 Z M45.6571429,16.6666667 C45.6571429,20 35.7221486,22.6666667 23.5,22.6666667 C11.2778514,22.6666667 1.34285714,20 1.34285714,16.6666667 L1.34285714,9.7344 C4.56356571,12.5365333 13.2921371,14.6666667 23.5,14.6666667 C33.7078629,14.6666667 42.4369714,12.6666667 45.6571429,9.7344 L45.6571429,16.6666667 Z M23.5,13.3333333 C11.2778514,13.3333333 1.34285714,10.6666667 1.34285714,7.33333333 C1.34285714,4 11.2778514,1.33333333 23.5,1.33333333 C35.7221486,1.33333333 45.6571429,4 45.6571429,7.33333333 C45.6571429,10.6666667 35.7221486,13.3333333 23.5,13.3333333 Z" id="Shape"></path>
            </g>
        </g>
    </g>
</svg>