<?xml version="1.0" encoding="UTF-8"?>
<svg width="43px" height="56px" viewBox="0 0 43 56" version="1.1" xmlns="http://www.w3.org/2000/svg" xmlns:xlink="http://www.w3.org/1999/xlink">
    <!-- Generator: Sketch 49 (51002) - http://www.bohemiancoding.com/sketch -->
    <title>np_person_751376_000000</title>
    <desc>Created with Sketch.</desc>
    <defs></defs>
    <g id="Page-1" stroke="none" stroke-width="1" fill="none" fill-rule="evenodd">
        <g id="Tablet" transform="translate(-626.000000, -2420.000000)" fill="#999999" fill-rule="nonzero">
            <g id="np_person_751376_000000" transform="translate(626.000000, 2420.000000)">
                <path d="M11.4930178,4.15089162 C10.0293379,6.32164749 9.47023038,8.99644186 9.31187186,11.5121303 C8.13370413,11.7594019 8.08812538,12.7793784 8.01134177,14.0799816 C8.17210822,15.4566074 8.67837636,17.3563232 9.8853533,17.713003 C10.4252404,19.7696335 11.2938719,21.8286378 12.4864135,23.6285318 C14.5739449,26.7741314 17.657329,29.1778857 21.4799243,29.2206751 C25.2879,29.2634724 28.3664928,26.8692055 30.4537785,23.7236668 C31.6655468,21.8976608 32.5437056,19.8006147 33.0932305,17.7130639 C34.5209143,17.296984 34.8232574,15.3568466 34.9480154,14.0800424 C35.024799,12.7795001 34.4129319,11.5621628 33.6858771,11.5121911 C33.5371074,8.98244248 32.9756594,6.30996105 31.5239578,4.15095248 C29.7339168,1.48802714 26.5450013,-0.302310819 21.5562165,0.0424391036 C16.6588349,-0.00273506619 13.4245249,1.55461549 11.4926493,4.15095248 L11.4930178,4.15089162 Z M21.5756274,1.25971553 C26.2954238,0.912585717 28.9106122,2.48654806 30.4923546,4.83564385 C31.6465044,6.55227204 32.2151946,8.73252314 32.4239231,10.9033399 C30.1828245,9.33887885 28.3567874,7.56753134 26.0342981,6.16716738 C25.7703529,6.03402112 25.604789,6.17430037 25.3840331,6.24325096 C19.9011918,10.0521776 15.6374286,12.0565235 10.4978408,12.1206772 C10.6034213,9.57899863 11.1264836,6.88277911 12.5061929,4.83552211 C14.8216795,1.82309924 18.6654671,1.25009857 21.5764874,1.2595938 L21.5756274,1.25971553 Z M25.7843521,7.44135433 C28.05426,8.96539976 30.3265634,10.9055311 32.5007682,12.5199638 C32.5055668,12.7767489 32.5223634,13.0287743 32.5199641,13.2807996 C32.4815723,16.357437 31.361023,20.1307566 29.4198104,23.0572355 C27.4785979,25.9840795 24.767215,28.0383362 21.4797707,28.0026682 C18.1684929,27.9646264 15.4426747,25.8699541 13.5016464,22.9431101 C11.59643,20.0709245 10.5166682,16.4163562 10.4782763,13.3754476 C17.271476,13.3873361 21.7292253,10.5698503 25.7846285,7.44092826 L25.7843521,7.44135433 Z M25.4580218,30.4185958 C24.0039245,31.4885136 23.0033419,33.3026505 21.5540358,34.0824768 C20.0951472,33.1765952 19.351329,31.5551019 18.16837,30.4946794 C17.6212898,29.9858689 17.0717772,29.9145451 16.3879731,30.0001361 C12.1336696,31.8071516 8.16966958,33.3263886 5.19415107,35.2688937 C2.22360815,37.209025 0.219985884,39.6817414 0.258377689,43.1627174 C0.12400637,46.8646401 -0.341492738,50.1337994 0.450336717,53.1107978 C0.747876282,54.1426738 1.3741357,54.9534204 2.34351344,55.3933052 C3.31289117,55.8331901 4.55107297,55.966312 6.24749937,55.9449112 C13.0284136,56.0305022 29.7838262,55.9995964 36.7834202,55.9639321 C38.129529,55.8640739 39.6172268,55.861694 40.7257979,55.3742843 C41.6999669,54.9296701 42.3358581,54.1355219 42.6382012,53.1107674 C43.2428752,51.0612583 42.9069439,48.0726344 42.9069439,43.2576393 C42.9069439,39.7934625 40.7162153,37.3231199 37.7408196,35.3449468 C34.765424,33.3667737 30.9433201,31.7761399 27.3123767,29.9430126 C26.6261155,29.6695864 26.0214292,30.0476305 25.4575918,30.418535 L25.4580218,30.4185958 Z M10.9557476,33.6330967 L14.9725133,40.4428815 C15.1644723,40.7567233 15.668357,40.8161658 15.9299127,40.5570069 L21.1344288,35.3643329 C21.4367658,35.4475501 21.6935117,35.3476895 21.9574262,35.2882494 L27.2194992,40.5570069 C27.4810427,40.8328068 28.0065005,40.7709905 28.1960639,40.4428815 L32.1959987,33.6714428 C33.974,34.5416564 35.6536568,35.4094961 37.0741536,36.3533586 C39.893525,38.2292754 41.6859616,40.2907144 41.6859616,43.2580958 C41.6859616,48.1226973 41.9427076,51.1872223 41.4748067,52.7685434 C41.242054,53.5579258 40.9157237,53.959708 40.231895,54.2712246 C39.5480294,54.5826925 38.4250845,54.746747 36.7886107,54.746747 C29.8037592,54.7824113 13.0071907,54.8133231 6.25268994,54.7277261 C4.63304716,54.7491244 3.54124563,54.5969597 2.8670241,54.2902455 C2.19280256,53.9835312 1.8712328,53.5865028 1.64327761,52.7875643 C1.18497774,51.1898091 1.4489168,48.0869989 1.48971039,43.1821644 C1.35533907,40.1697415 3.86281539,37.6161939 5.87116753,36.2774272 C7.30364258,35.3429991 9.04091786,34.4894631 10.9605081,33.6334923 L10.9557476,33.6330967 Z M21.4800164,40.1762847 C20.8033378,40.1762847 20.25627,40.720757 20.25627,41.393622 C20.25627,42.0665052 20.8033501,42.6109593 21.4800164,42.6109593 C22.1566951,42.6109593 22.7037629,42.0664869 22.7037629,41.393622 C22.7037629,40.7207388 22.1566828,40.1762847 21.4800164,40.1762847 Z M21.4800164,45.0456339 C20.8033378,45.0456339 20.25627,45.5901062 20.25627,46.2629712 C20.25627,46.9358544 20.8033501,47.4803085 21.4800164,47.4803085 C22.1566951,47.4803085 22.7037629,46.9358361 22.7037629,46.2629712 C22.7037629,45.590088 22.1566828,45.0456339 21.4800164,45.0456339 Z M21.4800164,49.9149831 C20.8033378,49.9149831 20.25627,50.4594554 20.25627,51.1323204 C20.25627,51.8052035 20.8033501,52.3496576 21.4800164,52.3496576 C22.1566951,52.3496576 22.7037629,51.8051853 22.7037629,51.1323204 C22.7037629,50.4594372 22.1566828,49.9149831 21.4800164,49.9149831 Z" id="Shape"></path>
            </g>
        </g>
    </g>
</svg>