<?xml version="1.0" encoding="UTF-8"?>
<svg width="53px" height="59px" viewBox="0 0 53 59" version="1.1" xmlns="http://www.w3.org/2000/svg" xmlns:xlink="http://www.w3.org/1999/xlink">
    <!-- Generator: Sketch 49 (51002) - http://www.bohemiancoding.com/sketch -->
    <title>np_legal-document_1132375_000000</title>
    <desc>Created with Sketch.</desc>
    <defs></defs>
    <g id="Page-1" stroke="none" stroke-width="1" fill="none" fill-rule="evenodd">
        <g id="Home" transform="translate(-232.000000, -2035.000000)" fill="#000000" fill-rule="nonzero">
            <g id="np_legal-document_1132375_000000" transform="translate(232.000000, 2035.000000)">
                <path d="M48.500032,2.27373675e-15 L12.500032,2.27373675e-15 C10.180032,2.27373675e-15 8.262528,1.767488 8.025024,4.025024 C5.922496,4.2475264 4.247552,5.922496 4.025024,8.025024 C1.767552,8.2625216 0,10.180032 0,12.500032 L0,54.500032 C0,56.982528 2.019968,59 4.499968,59 L40.499968,59 C42.819968,59 44.737472,57.232512 44.974976,54.974976 C47.077504,54.7524736 48.752448,53.077504 48.974976,50.974976 C51.232448,50.7374784 53,48.819968 53,46.499968 L53,4.499968 C53,2.017472 50.980032,0 48.500032,2.27373675e-15 Z M44.000064,54.49984 C44.000064,56.429824 42.43008,57.999872 40.500032,57.999872 L4.500032,57.999872 C2.570048,57.999872 1,56.429888 1,54.49984 L1,12.49984 C1,10.569856 2.569984,8.999808 4.500032,8.999808 L36.999872,8.999808 L36.999872,15.499648 C36.999872,15.7771456 37.2248704,15.999648 37.499872,15.999648 L43.999712,15.999648 L44.000064,54.49984 Z M38.000064,9.70752 L43.292544,15 L38.000064,15 L38.000064,9.70752 Z M48.000064,50.49984 C48.000064,52.25984 46.692544,53.714816 45.000064,53.959808 L45.000064,15.499648 C45.000064,15.3621504 44.9450637,15.2371456 44.8525632,15.1446464 L37.8522432,8.1443264 C37.7622464,8.0543296 37.6372416,7.999328 37.499744,7.999328 L5.039584,7.999328 C5.2845824,6.306848 6.739552,4.999328 8.499552,4.999328 L44.499552,4.999328 C46.429536,4.999328 47.999584,6.569312 47.999584,8.49936 L48.000064,50.49984 Z M52.000064,46.49984 C52.000064,48.25984 50.692544,49.714816 49.000064,49.959808 L49.000064,8.499968 C49.000064,6.017472 46.980096,4 44.500096,4 L9.040256,4 C9.2852544,2.30752 10.740224,1 12.500224,1 L48.500224,1 C50.430208,1 52.000256,2.569984 52.000256,4.500032 L52.000064,46.49984 Z" id="Shape"></path>
                <path d="M31.6726408,19.2426262 L26.7326146,15.8225579 C26.180116,15.4400515 25.5701199,15.1400547 24.9226327,14.9175243 C24.6601306,13.8200407 23.6776421,13 22.5001075,13 C21.3225729,13 20.34011,13.8199767 20.0750864,14.9175243 C19.4275991,15.1400291 18.8201118,15.4400323 18.2651045,15.8225579 L13.3250783,19.2426262 C11.0450809,20.8226749 8.02006047,20.7651383 5.79996706,19.1001223 L5.19996777,19.9001308 C6.34249443,20.7576119 7.66748488,21.242673 9.0199953,21.3601142 L6.13999867,30.0002058 L5.49999941,30.0002058 C5.22499814,30.0002058 5,30.2227106 5,30.5002111 C5,32.9827335 7.01996564,35.0002269 9.49996273,35.0002269 C11.9799598,35.0002269 13.9999255,32.9827335 13.9999255,30.5002111 C13.9999255,30.2227106 13.7749273,30.0002058 13.4999261,30.0002058 L12.8599268,30.0002058 L9.98492217,21.3773944 C11.3524086,21.3173938 12.709911,20.88489 13.8949336,20.0648685 L18.8349598,16.6448002 C19.212457,16.3847975 19.6174869,16.1647952 20.0474384,15.9898173 C20.0474384,15.9923172 20.0499382,15.9948177 20.0499382,15.9973175 C20.0549385,16.0223175 20.0649379,16.0448176 20.072438,16.0698175 C20.102438,16.1973197 20.1399388,16.3223194 20.1874395,16.4398182 C20.2074395,16.4898188 20.2349396,16.5348208 20.2574426,16.5823221 C20.2999424,16.6723199 20.3449433,16.7598216 20.3999449,16.8448273 C20.4324447,16.8948285 20.4674456,16.9398299 20.5049431,16.9873312 C20.5599434,17.0623336 20.6174422,17.1348336 20.6824405,17.2023351 C20.7249403,17.2473359 20.7674388,17.2898368 20.8124372,17.3298373 C20.8799379,17.3923378 20.9499346,17.4498385 21.0224337,17.5048407 C21.0724337,17.5423413 21.1199312,17.5773407 21.1724368,17.6098402 C21.2524367,17.6598408 21.334939,17.7023404 21.4199373,17.7448433 C21.472437,17.7698439 21.5249355,17.7973443 21.5799371,17.8198457 C21.6749386,17.8573462 21.7749384,17.8873472 21.8774343,17.9123458 C21.9199341,17.9223459 21.9574342,17.9423462 21.9999366,17.9498464 L21.9999366,37.999979 L19.4999715,37.999979 C17.0199744,37.999979 15.0000088,40.0174724 15.0000088,42.4999947 C15.0000088,42.7774952 15.2250069,43 15.5000082,43 L29.4999918,43 C29.7749931,43 29.9999912,42.7774952 29.9999912,42.4999947 C29.9999912,40.0174724 27.9800256,37.999979 25.5000285,37.999979 L23.0000634,37.999979 L23.0000634,17.9498464 C23.0425632,17.9423462 23.0825657,17.9223459 23.1225657,17.9123458 C23.225068,17.8848454 23.3250678,17.8573456 23.4200629,17.8198457 C23.4750632,17.7973456 23.5275636,17.7698451 23.5800627,17.7448433 C23.665061,17.7048428 23.7475633,17.659844 23.8275632,17.6098402 C23.880063,17.5773401 23.9275631,17.5423387 23.9775663,17.5048407 C24.0500654,17.4498405 24.1225645,17.3923403 24.1875628,17.3298373 C24.2325625,17.287337 24.2750635,17.247334 24.3175595,17.2023351 C24.3800592,17.1348336 24.4375593,17.0623336 24.4950569,16.9873312 C24.5300565,16.9398306 24.567556,16.8948311 24.6000551,16.8448273 C24.6525549,16.7623241 24.6975526,16.6723263 24.7425574,16.5823221 C24.7650572,16.5348221 24.7925573,16.489822 24.8125605,16.4398182 C24.8600606,16.319817 24.8975588,16.1973133 24.927562,16.0698175 C24.9325616,16.0448169 24.9450615,16.0223168 24.9500618,15.9973175 C24.9500618,15.9948177 24.9525616,15.9923172 24.9525616,15.9898173 C25.3825643,16.1648208 25.7875686,16.3848231 26.1650402,16.6448002 L31.1050664,20.0648685 C32.290089,20.8848452 33.6450954,21.3198578 35.0125818,21.3798904 L32.1400732,30.0001418 L31.5000739,30.0001418 C31.2250727,30.0001418 31.0000745,30.2226466 31.0000745,30.5001471 C31.0000745,32.9826695 33.0200402,35.0001629 35.5000373,35.0001629 C37.9800344,35.0001629 40,32.9826695 40,30.5001471 C40,30.2226466 39.7750019,30.0001418 39.5000006,30.0001418 L38.8600013,30.0001418 L35.9800047,21.3600502 C37.3325151,21.2425514 38.6575056,20.7575415 39.8000322,19.9000668 L39.2000329,19.1000583 C36.9800035,20.7650999 33.9550471,20.8225725 31.6723617,19.2425622 L31.6726408,19.2426262 Z M9.49986673,34.0005427 C7.73986879,34.0005427 6.2799025,32.6955048 6.03484679,31.0005109 L12.9647587,31.0005109 C12.7197606,32.6955048 11.2597367,34.0005427 9.49973873,34.0005427 L9.49986673,34.0005427 Z M7.19234943,30.0005003 L9.49986673,23.0807469 L11.807384,30.0005003 L7.19234943,30.0005003 Z M28.965252,42.0006275 L16.0352191,42.0006275 C16.2777212,40.3056335 17.7402411,39.0005957 19.500239,39.0005957 L25.500232,39.0005957 C27.2602299,39.0005957 28.7201962,40.3056335 28.965252,42.0006275 Z M22.4998515,14.0003306 C23.2673386,14.0003306 23.8923619,14.5803368 23.9823458,15.3228406 L23.9823458,15.3453407 L23.9923458,15.4253416 C23.9948463,15.4503421 23.9998459,15.4753427 23.9998459,15.500344 C23.9998459,16.3278727 23.3273347,17.0003919 22.4998157,17.0003919 C21.6722966,17.0003919 20.9997854,16.3278727 20.9997854,15.500344 C20.9997854,15.475344 21.0047851,15.4503434 21.0072856,15.427844 L21.0172856,15.3478431 L21.0172856,15.3253424 C21.1072823,14.5803105 21.7322927,14.0003364 22.4997798,14.0003364 L22.4998515,14.0003306 Z M35.4995163,34.0005427 C33.7395184,34.0005427 32.2795521,32.6955048 32.0344964,31.0005109 L38.9644083,31.0005109 C38.7194101,32.6955048 37.2593862,34.0005427 35.4993883,34.0005427 L35.4995163,34.0005427 Z M33.191999,30.0005003 L35.4995163,23.0807469 L37.8070336,30.0005003 L33.191999,30.0005003 Z" id="Shape"></path>
                <polygon id="Shape" points="6 46 21 46 21 47 6 47"></polygon>
                <polygon id="Shape" points="6 50 21 50 21 51 6 51"></polygon>
                <polygon id="Shape" points="25 46 40 46 40 47 25 47"></polygon>
                <polygon id="Shape" points="25 50 40 50 40 51 25 51"></polygon>
            </g>
        </g>
    </g>
</svg>