<?xml version="1.0" encoding="UTF-8"?>
<svg width="64px" height="55px" viewBox="0 0 64 55" version="1.1" xmlns="http://www.w3.org/2000/svg" xmlns:xlink="http://www.w3.org/1999/xlink">
    <!-- Generator: Sketch 49 (51002) - http://www.bohemiancoding.com/sketch -->
    <title>np_bank_1054797_000000</title>
    <desc>Created with Sketch.</desc>
    <defs></defs>
    <g id="Page-1" stroke="none" stroke-width="1" fill="none" fill-rule="evenodd">
        <g id="Home" transform="translate(-226.000000, -1909.000000)" fill="#000000" fill-rule="nonzero">
            <g id="np_bank_1054797_000000" transform="translate(226.000000, 1909.000000)">
                <path d="M31.9302326,0.00178180144 C31.8488335,0.0133946009 31.7703516,0.0366201998 31.6976744,0.0714585981 L0.441860465,13.4494036 C0.174414884,13.5684375 0.00290976744,13.8326222 0,14.1229459 L0,18.5822609 C0,18.9916112 0.334303256,19.3254801 0.744186047,19.3254801 L11.1627907,19.3254801 L11.1627907,41.622055 L5.95348837,41.622055 L5.88372093,41.622055 C5.50000372,41.6568934 5.20639256,41.9791495 5.20930233,42.3652742 L5.20930233,46.8245892 L0.744186047,46.8245892 C0.334303256,46.8245892 0,47.1584581 0,47.5678084 L0,54.2567808 C0,54.6661311 0.334303256,55 0.744186047,55 L63.255814,55 C63.6656967,55 64,54.6661311 64,54.2567808 L64,47.5678084 C64,47.1584581 63.6656967,46.8245892 63.255814,46.8245892 L58.7906977,46.8245892 L58.7906977,42.3652742 C58.7906977,41.9559239 58.4563944,41.622055 58.0465116,41.622055 L52.8372093,41.622055 L52.8372093,19.3254801 L63.255814,19.3254801 C63.6656967,19.3254801 64,18.9916112 64,18.5822609 L64,14.1229459 C63.9970932,13.8326297 63.8255777,13.5684375 63.5581395,13.4494036 L32.3023256,0.0714585981 C32.1860465,0.0162976149 32.0581433,-0.00692872718 31.9302326,0.00178180144 Z M32,1.55793409 L62.5116279,14.6103491 L62.5116279,17.8387445 L1.48837209,17.8387445 L1.48837209,14.6103491 L32,1.55793409 Z M12.6511628,19.3253314 L17.1162791,19.3253314 L17.1162791,41.6219064 L12.6511628,41.6219064 L12.6511628,19.3253314 Z M18.6046512,19.3253314 L28.2790698,19.3253314 L28.2790698,41.6219064 L18.6046512,41.6219064 L18.6046512,19.3253314 Z M29.7674419,19.3253314 L34.2325581,19.3253314 L34.2325581,41.6219064 L29.7674419,41.6219064 L29.7674419,19.3253314 Z M35.7209302,19.3253314 L45.3953488,19.3253314 L45.3953488,41.6219064 L35.7209302,41.6219064 L35.7209302,19.3253314 Z M46.8837209,19.3253314 L51.3488372,19.3253314 L51.3488372,41.6219064 L46.8837209,41.6219064 L46.8837209,19.3253314 Z M6.69767442,43.1083447 L57.3023256,43.1083447 L57.3023256,47.5676597 C57.3023256,47.97701 57.6366288,48.3108789 58.0465116,48.3108789 L62.5116279,48.3108789 L62.5116279,53.513413 L1.48837209,53.513413 L1.48837209,48.3108789 L5.95348837,48.3108789 C6.36337116,48.3108789 6.69767442,47.97701 6.69767442,47.5676597 L6.69767442,43.1083447 Z" id="Shape"></path>
            </g>
        </g>
    </g>
</svg>