<?xml version="1.0" encoding="UTF-8"?>
<svg width="56px" height="42px" viewBox="0 0 56 42" version="1.1" xmlns="http://www.w3.org/2000/svg" xmlns:xlink="http://www.w3.org/1999/xlink">
    <!-- Generator: Sketch 49 (51002) - http://www.bohemiancoding.com/sketch -->
    <title>np_job_119585_000000</title>
    <desc>Created with Sketch.</desc>
    <defs></defs>
    <g id="Page-1" stroke="none" stroke-width="1" fill="none" fill-rule="evenodd">
        <g id="Home" transform="translate(-494.000000, -2041.000000)" fill="#000000" fill-rule="nonzero">
            <g id="np_job_119585_000000" transform="translate(494.000000, 2041.000000)">
                <path d="M50.543,5.746 L39.359,5.746 C39.378531,5.62491 39.359,5.49209 39.280875,5.38272 C37.034775,2.07022 32.730075,0.00772 28.046875,0.00772 C23.367175,0.00772 19.062475,2.06632 16.816875,5.37882 C16.742657,5.4882 16.719219,5.62101 16.73875,5.7421 L5.45775,5.746006 C2.84055,5.746006 0.70775,7.874906 0.70775,10.496006 L0.70775,37.246006 C0.70775,39.863206 2.84055,41.996006 5.45775,41.996006 L50.54375,41.996006 C53.16095,41.996006 55.29375,39.867106 55.29375,37.246006 L55.29375,10.492006 C55.29375,7.874806 53.16095,5.745906 50.54375,5.745906 L50.543,5.746 Z M28.051,1.0077 C32.3049,1.0077 36.1994,2.8202 38.297,5.7421 L17.805,5.746006 C19.9066,2.824106 23.7972,1.007706 28.051,1.007706 L28.051,1.0077 Z M5.457,6.746 L50.543,6.746 C52.6094,6.746 54.293,8.4257 54.293,10.496 L54.293,19.0351 L1.707,19.0351 L1.707,10.496 C1.707,8.4257 3.3906,6.746 5.457,6.746 Z M24,20.035 L32,20.035 L32,27.9998 L24,27.9998 L24,20.035 Z M50.543,40.992 L5.457,40.992 C3.3906,40.992 1.707,39.3123 1.707,37.242 L1.707,20.035 L23,20.035 L23,28.4998 C23,28.77714 23.22266,28.9998 23.5,28.9998 L32.5,28.9998 C32.77734,28.9998 33,28.77714 33,28.4998 L33,20.035 L54.293,20.035 L54.293,37.242 C54.293,39.3084 52.6094,40.992 50.543,40.992 Z" id="Shape"></path>
            </g>
        </g>
    </g>
</svg>