<?xml version="1.0" encoding="UTF-8"?>
<svg width="59px" height="58px" viewBox="0 0 59 58" version="1.1" xmlns="http://www.w3.org/2000/svg" xmlns:xlink="http://www.w3.org/1999/xlink">
    <!-- Generator: Sketch 49 (51002) - http://www.bohemiancoding.com/sketch -->
    <title>np_insurance_465508_000000</title>
    <desc>Created with Sketch.</desc>
    <defs></defs>
    <g id="Page-1" stroke="none" stroke-width="1" fill="none" fill-rule="evenodd">
        <g id="Home" transform="translate(-365.000000, -1781.000000)" fill="#000000" fill-rule="nonzero">
            <g id="np_insurance_465508_000000" transform="translate(365.000000, 1781.000000)">
                <path d="M30,3.453 L30,0.8749 C30,0.44131 29.65234,0.09365 29.21875,0.09365 C28.78516,0.09365 28.4375,0.44131 28.4375,0.8749 L28.4375,3.453 C12.8595,3.84753 0.3125,15.93 0.3125,30.758 C0.3125,31.19159 0.66016,31.53925 1.09375,31.53925 C1.52734,31.53925 1.875,31.19159 1.875,30.758 C1.875,27.6642 4.6797,25.1486 8.125,25.1486 C11.5703,25.1486 14.375,27.6642 14.375,30.758 C14.375,31.19159 14.72266,31.53925 15.15625,31.53925 C15.58984,31.53925 15.9375,31.19159 15.9375,30.758 C15.9375,27.6642 18.7422,25.1486 22.1875,25.1486 C25.6328,25.1486 28.4375,27.6642 28.4375,30.758 L28.4375,52.59 C28.4375,54.4064 26.9766,56.0002 25.3125,56.0002 C23.5039,56.0002 22.1875,54.7854 22.1875,53.1096 C22.1875,52.67601 21.83984,52.32835 21.40625,52.32835 C20.97266,52.32835 20.625,52.67601 20.625,53.1096 C20.625,55.6487 22.6406,57.5627 25.3125,57.5627 C27.8516,57.5627 30,55.2854 30,52.59 L30,30.758 C30,27.6642 32.8047,25.1486 36.25,25.1486 C39.6953,25.1486 42.5,27.6642 42.5,30.758 C42.5,31.19159 42.84766,31.53925 43.28125,31.53925 C43.71484,31.53925 44.0625,31.19159 44.0625,30.758 C44.0625,27.6642 46.8672,25.1486 50.3125,25.1486 C53.7578,25.1486 56.5625,27.6642 56.5625,30.758 C56.5625,31.19159 56.91016,31.53925 57.34375,31.53925 C57.77734,31.53925 58.125,31.19159 58.125,30.758 C58.125,15.93 45.578,3.848 30,3.453 Z M50.312,23.586 C47.2065,23.586 44.5386,25.2735 43.2808,27.6876 C42.023,25.2696 39.355,23.586 36.2496,23.586 C33.1442,23.586 30.4762,25.2735 29.2184,27.6876 C27.9606,25.2696 25.2926,23.586 22.1872,23.586 C19.0818,23.586 16.4138,25.2735 15.156,27.6876 C13.8982,25.2696 11.2302,23.586 8.1248,23.586 C5.8396,23.586 3.8006,24.50787 2.367,25.9493 C4.7654,14.0273 15.887,4.9763 29.219,4.9763 C42.551,4.9763 53.672,14.0271 56.071,25.9493 C54.6374,24.5079 52.5983,23.586 50.3132,23.586 L50.312,23.586 Z" id="Shape"></path>
            </g>
        </g>
    </g>
</svg>