<?xml version="1.0" encoding="UTF-8"?>
<svg width="57px" height="61px" viewBox="0 0 57 61" version="1.1" xmlns="http://www.w3.org/2000/svg" xmlns:xlink="http://www.w3.org/1999/xlink">
    <!-- Generator: Sketch 49 (51002) - http://www.bohemiancoding.com/sketch -->
    <title>np_support_1158844_000000</title>
    <desc>Created with Sketch.</desc>
    <defs></defs>
    <g id="Page-1" stroke="none" stroke-width="1" fill="none" fill-rule="evenodd">
        <g id="Home" transform="translate(-493.000000, -1906.000000)" fill="#000000" fill-rule="nonzero">
            <g id="np_support_1158844_000000" transform="translate(493.000000, 1906.000000)">
                <path d="M28.5,28 C31.531777,28 34,25.7555953 34,22.9987397 C34,20.2418841 31.531777,18 28.5,18 C25.468223,18 23,20.2444047 23,23.0012603 C23,25.7581159 25.468223,28 28.5,28 Z M28.5,19.2924053 C30.7488854,19.2924053 32.5784992,20.9561098 32.5784992,23.0010664 C32.5784992,25.0435024 30.7488854,26.7072069 28.5,26.7072069 C26.2511146,26.7072069 24.4215008,25.0435024 24.4215008,22.9985458 C24.4215008,20.9561098 26.2511146,19.2924053 28.5,19.2924053 Z" id="Shape"></path>
                <path d="M24.0369027,41.9973929 C24.060629,42 24.0817192,42 24.1054441,42 L32.8944749,42 C32.9182012,42 32.9392914,41.9973929 32.9630163,41.9973929 C34.6950418,41.8227032 36,40.388662 36,38.6652602 L36,38.4175695 C36,34.3267262 32.6361019,31 28.5,31 C24.3638981,31 21,34.3269265 21,38.4175695 L21,38.6652602 C21,40.388662 22.3049582,41.8227166 24.0369837,41.9973929 L24.0369027,41.9973929 Z M22.3496896,38.4149597 C22.3496896,35.0593989 25.1098353,32.3321255 28.5001215,32.3321255 C31.8929722,32.3321255 34.6505534,35.0619353 34.6505534,38.4149597 L34.6505534,38.6626504 C34.6505534,39.68995 33.8807793,40.5451098 32.8579232,40.6624506 L24.1424548,40.6650577 C23.1169666,40.5451205 22.3498245,39.6899541 22.3498245,38.6652575 L22.3471878,38.4149571 L22.3496896,38.4149597 Z" id="Shape"></path>
                <path d="M28,47 C37.3739763,47 45,39.3733038 45,30 C45,20.6266962 37.3733038,13 28,13 C18.6266962,13 11,20.6266962 11,30 C11,39.3733038 18.6266962,47 28,47 Z M28,14.3444238 C36.6328283,14.3444238 43.6549037,21.3664992 43.6549037,29.9993275 C43.6549037,38.6321557 36.6328283,45.6542311 28,45.6542311 C19.3671717,45.6542311 12.3450963,38.6321557 12.3450963,29.9993275 C12.3450963,21.3664992 19.3671717,14.3444238 28,14.3444238 Z" id="Shape"></path>
                <path d="M1.61964839,38.5413624 C0.87217401,38.972954 0.336809737,39.669349 0.114114484,40.5007146 C-0.108526486,41.3347916 0.00544028617,42.2032348 0.437477219,42.9499387 L3.67639715,48.555302 C4.10843408,49.3020059 4.80554758,49.8368183 5.637771,50.059284 C5.916079,50.1334257 6.19967957,50.1704898 6.47800114,50.1704898 C7.03726342,50.1704898 7.59120599,50.0222132 8.08952224,49.7362546 L12.7014581,47.0752068 C12.7067589,47.0725585 12.7094099,47.0699109 12.7147106,47.0672632 C15.357266,49.577357 18.5564916,51.420257 22.0262492,52.4370107 C22.0262492,52.4423067 22.0288995,52.4476019 22.0288995,52.4528972 L22.0288995,57.7723492 C22.0288995,59.5516682 23.4787257,61 25.2598806,61 L31.7404346,61 C33.5215895,61 34.9714157,59.5516682 34.9714157,57.7723492 L34.9714157,52.4528972 C34.9714157,52.4476019 34.9714157,52.4423067 34.9740667,52.4370107 C38.4436208,51.4229006 41.6427785,49.577357 44.2856053,47.0672632 C44.2909067,47.0699109 44.293557,47.0725585 44.2988577,47.0752068 L48.9107936,49.7362546 C49.417042,50.0301574 49.9736512,50.1678462 50.5223148,50.1678462 C51.6408122,50.1678462 52.7275542,49.587978 53.326565,48.5553426 L56.565485,42.9499794 C57.4560624,41.4089875 56.9259568,39.4310626 55.3833409,38.5387595 L50.771405,35.8777117 C50.7661036,35.8750634 50.7634533,35.8724158 50.7581526,35.8697682 C51.179584,34.1248832 51.404878,32.3217044 51.404878,30.5000207 C51.404878,28.6756934 51.179584,26.8751581 50.7581526,25.1302732 C50.7634533,25.1276249 50.7661036,25.1249773 50.771405,25.1223296 L55.3833409,22.4612818 C56.1308153,22.0296902 56.6661796,21.3332952 56.8888748,20.5019296 C57.1115158,19.6678527 56.997549,18.7994094 56.5655121,18.0527055 L53.3265922,12.4473423 C52.8945552,11.7006384 52.1974417,11.1658259 51.3652183,10.9433602 C50.532927,10.7209487 49.6609415,10.834798 48.9134671,11.2663896 L44.3015312,13.9274374 C44.2962305,13.9300851 44.2909297,13.9327334 44.2882787,13.935381 C41.6510159,11.4279308 38.4544366,9.58238723 34.9767401,8.56563351 C34.9767401,8.56033758 34.9740898,8.55504233 34.9740898,8.5497464 L34.9714387,3.22765077 C34.9687884,1.44833177 33.5189663,0 31.7378114,0 L25.2572574,0 C23.4761025,0 22.0262763,1.44833177 22.0262763,3.22765077 L22.0262763,8.54710284 C22.0262763,8.55239877 22.0262763,8.55769402 22.0236253,8.56298928 C18.5487787,9.57974299 15.3496209,11.422643 12.7120867,13.9327368 C12.7067853,13.9300885 12.704135,13.9274408 12.6988343,13.9247932 L8.08689835,11.2637454 C6.54431642,10.3740859 4.5643507,10.9036451 3.67112696,12.4446709 L0.432207036,18.0500342 C-0.458370415,19.5910261 0.0717352109,21.568951 1.61435106,22.461254 L6.22628697,25.1223018 C6.23158837,25.1249495 6.23423872,25.1275971 6.23953944,25.1302454 C5.81810801,26.8751303 5.59281397,28.6783091 5.59281397,30.4999929 C5.59281397,32.3190331 5.81810801,34.1222119 6.23953944,35.8697404 C6.23423872,35.872388 6.23158837,35.8750356 6.22628697,35.8776839 L1.61964839,38.5413624 Z M2.29818359,21.2911189 C1.40231356,20.7747979 1.09486926,19.6283199 1.61170953,18.7333733 L4.85062945,13.1280101 C5.36748329,12.2330635 6.51514416,11.9259361 7.41101418,12.4422436 L12.0229501,15.1006479 C12.1846315,15.1959651 12.3542653,15.2754007 12.5212528,15.3468921 C12.6193215,15.3972003 12.7226963,15.4316215 12.8287106,15.4316215 C12.9188269,15.4316215 13.0062969,15.4130868 13.0911138,15.3786656 C13.1759307,15.3442444 13.2501489,15.2939361 13.3164078,15.2277387 C15.966902,12.5958378 19.264176,10.6947117 22.8505059,9.73089698 C22.853157,9.73089698 22.853157,9.72824868 22.8558073,9.72824868 C22.9008661,9.71500987 22.9406242,9.68853225 22.9830327,9.66470157 C23.1791701,9.56144007 23.3196472,9.37874298 23.3461576,9.16161861 C23.3461576,9.15897099 23.3488079,9.15897099 23.3488079,9.15632268 C23.3726625,8.95773713 23.388566,8.75385767 23.388566,8.54732788 L23.3859157,3.22787581 C23.3859157,2.19526074 24.2261458,1.35589666 25.2598263,1.35589666 L31.7403803,1.35589666 C32.7740608,1.35589666 33.614291,2.19526074 33.614291,3.22787581 L33.614291,8.54732788 C33.614291,8.75385767 33.6301945,8.95773713 33.6540491,9.15632268 C33.6540491,9.15897099 33.6566994,9.15897099 33.6566994,9.16161861 C33.6620008,9.19603979 33.6779037,9.22516572 33.6858554,9.25693589 C33.6991079,9.30724418 33.712361,9.36019739 33.7362156,9.40521247 C33.7494681,9.43169009 33.7733234,9.45022483 33.7892262,9.47405347 C33.8210325,9.51906652 33.8528389,9.56143329 33.8952473,9.59585379 C33.9191019,9.61703616 33.9482579,9.62762734 33.9747648,9.64351378 C34.0198243,9.67263971 34.0675342,9.69911801 34.1178951,9.71500512 C34.1284972,9.71765343 34.1364489,9.72559631 34.147051,9.73089224 C37.7332453,10.694707 41.0307907,12.5958331 43.6811492,15.2277339 C43.726208,15.2727463 43.7792178,15.2992253 43.8348781,15.3309954 C43.9382461,15.3892466 44.0495734,15.4316134 44.1661933,15.4316134 C44.2722144,15.4316134 44.3755824,15.3971922 44.4736511,15.3468839 C44.6406319,15.2727422 44.8102657,15.1933134 44.9719538,15.1006397 L49.5838897,12.4395919 C50.0185729,12.1880538 50.5221682,12.1218564 51.007253,12.2516009 C51.4922971,12.3813455 51.8951842,12.6911368 52.1443423,13.1227555 L55.3832622,18.7281187 C55.6324136,19.1623539 55.7013256,19.6654301 55.5714472,20.1500149 C55.4415688,20.634559 55.1314578,21.0370308 54.6967474,21.2859321 L50.0848115,23.94698 C49.9098784,24.0475979 49.7455439,24.161454 49.5891619,24.2753101 C49.4407324,24.3838723 49.3373643,24.545387 49.313507,24.7280841 C49.3002545,24.8181074 49.3055553,24.9107811 49.3294105,25.0008045 C49.8012028,26.7774799 50.039769,28.6283106 50.039769,30.4976462 C50.039769,32.3669818 49.8012232,34.2151689 49.3267642,35.9944879 L49.3267642,35.9997838 C49.2631516,36.2433845 49.3453181,36.5055104 49.5441058,36.6776197 C49.5547079,36.6855632 49.5600087,36.698802 49.5679604,36.7067456 C49.5706115,36.7093932 49.5732618,36.7120408 49.5759122,36.7146885 C49.7349473,36.8338384 49.9045811,36.9503449 50.0821605,37.050956 L54.6940964,39.7120038 C55.5899664,40.2283249 55.8974107,41.3748029 55.3805705,42.2697495 L52.1416505,47.8751127 C51.6247967,48.7700593 50.4771358,49.0771867 49.5812658,48.5608792 L44.9693299,45.9024749 C44.7917437,45.7992134 44.6035587,45.7091833 44.4206731,45.632398 C44.4180228,45.632398 44.4153717,45.632398 44.4153717,45.6297504 C44.3994689,45.6218075 44.380915,45.6244551 44.3623612,45.6191592 C44.1158629,45.5397236 43.8534598,45.6006252 43.6785334,45.77538 C41.0226788,48.4099245 37.7254727,50.3110506 34.1444353,51.2722217 C34.1417849,51.2722217 34.1417849,51.2748694 34.1391346,51.2748694 C34.0755219,51.2934041 34.0172086,51.3278253 33.9615483,51.3622492 C33.8661327,51.423148 33.7839621,51.4946373 33.7309549,51.5899613 C33.7309549,51.5899613 33.7309549,51.592609 33.7283039,51.592609 C33.6858954,51.6693942 33.6567388,51.7514801 33.6461401,51.8415035 C33.6461401,51.8441511 33.643489,51.8441511 33.643489,51.8467988 C33.6196345,52.0453843 33.6037316,52.2492638 33.6037316,52.4557936 L33.6037316,57.7752456 C33.6037316,58.8078607 32.7635015,59.6472248 31.729821,59.6472248 L25.249267,59.6472248 C24.2155864,59.6472248 23.3753563,58.8078607 23.3753563,57.7752456 L23.3753563,52.4557936 C23.3753563,52.2492638 23.3594528,52.0453843 23.3355982,51.8467988 C23.3355982,51.8441511 23.3329478,51.8441511 23.3329478,51.8415035 C23.3223457,51.756774 23.2931898,51.6773384 23.2534303,51.6032035 C23.2507799,51.6005559 23.2507799,51.5952607 23.2481296,51.5899647 C23.1924687,51.4919971 23.1049994,51.4152119 23.0042776,51.3543083 C22.951267,51.3225348 22.9009096,51.2881129 22.8399432,51.2722292 C22.8372928,51.2722292 22.8372928,51.2695816 22.8346425,51.2695816 C19.2538086,50.3084104 15.9590453,48.4072843 13.3005443,45.7727399 C13.138863,45.6112251 12.9056165,45.5529719 12.6776694,45.6032809 C12.6379113,45.6112238 12.6008049,45.6112238 12.5636958,45.6271109 L12.5583944,45.6271109 C12.3755088,45.7038962 12.1899702,45.7939195 12.0097377,45.8971878 L7.39780174,48.5582356 C6.96311852,48.8097737 6.45952327,48.8759712 5.97443845,48.7462266 C5.48939435,48.6164821 5.08650729,48.3066908 4.83734916,47.875072 L1.59842924,42.2697088 C1.34927789,41.8354736 1.28036586,41.3323975 1.41024428,40.8478126 C1.54012271,40.3632685 1.85023365,39.9607967 2.28494401,39.7118954 L6.89687992,37.0508476 C7.07446615,36.9475861 7.24675302,36.8310796 7.40578132,36.7119297 C7.40843236,36.709282 7.41108271,36.7066344 7.41373307,36.7039868 C7.41903447,36.7013385 7.42168483,36.6960432 7.42433518,36.6907473 C7.63637743,36.518638 7.71854126,36.2485679 7.65492859,35.9970501 L7.65492859,35.9917542 C7.18313628,34.2124352 6.9419238,32.3616045 6.9419238,30.4949125 C6.9419238,28.6255769 7.18046963,26.7747462 7.6522823,24.9954272 C7.67613688,24.9054039 7.68408864,24.8127302 7.66818513,24.7227068 C7.64168019,24.5400097 7.54095978,24.378495 7.3925302,24.2725831 C7.2361482,24.1560767 7.07181376,24.0422274 6.8968806,23.944253 L2.29818359,21.2911189 Z" id="Shape"></path>
            </g>
        </g>
    </g>
</svg>