<?xml version="1.0" encoding="UTF-8"?>
<svg width="68px" height="40px" viewBox="0 0 68 40" version="1.1" xmlns="http://www.w3.org/2000/svg" xmlns:xlink="http://www.w3.org/1999/xlink">
    <!-- Generator: Sketch 49 (51002) - http://www.bohemiancoding.com/sketch -->
    <title>np_truck_1204298_000000</title>
    <desc>Created with Sketch.</desc>
    <defs></defs>
    <g id="Page-1" stroke="none" stroke-width="1" fill="none" fill-rule="evenodd">
        <g id="Home" transform="translate(-489.000000, -1790.000000)" fill="#000000" fill-rule="nonzero">
            <g id="np_truck_1204298_000000" transform="translate(489.000000, 1790.000000)">
                <path d="M51.4823404,31 C50.6577593,31 50,31.7198766 50,32.5158715 C50,33.3181988 50.6577429,34 51.4823404,34 C52.3069379,34 53,33.3657484 53,32.5158715 C53,31.6722864 52.3069625,31 51.4823404,31 Z M51.4823404,32.3763159 C51.5785976,32.3763159 51.6427637,32.4555971 51.6427637,32.5158553 C51.6427637,32.5063413 51.5785935,32.6205098 51.4823404,32.6205098 C51.3860831,32.6205098 51.3572117,32.5507418 51.3572117,32.5158553 C51.3572117,32.4080345 51.3860881,32.3763159 51.4823404,32.3763159 Z" id="Shape"></path>
                <path d="M15.4823404,31 C14.6577593,31 14,31.6818174 14,32.4841285 C14,33.2832896 14.6577429,34 15.4823404,34 C16.3005065,34 17,33.2801234 17,32.4841285 C17,31.6818012 16.303751,31 15.4823404,31 Z M15.4823404,32.3763159 C15.5785976,32.3763159 15.6427637,32.4904771 15.6427637,32.4809704 C15.6427637,32.5412245 15.5785935,32.6205098 15.4823404,32.6205098 C15.4566723,32.6205098 15.3572117,32.5412286 15.3572117,32.4809704 C15.3572117,32.4904844 15.4598839,32.3763159 15.4823404,32.3763159 Z" id="Shape"></path>
                <path d="M24.5336703,0 C22.6078881,0 21.0081181,1.58952929 21.0081181,3.53367192 L21.0081181,3.75001683 L12.7739738,3.75001683 C11.7024377,3.75001683 10.845178,4.42909752 10.0211454,5.31246935 C9.19711274,6.19584118 8.40630724,7.3647652 7.65467884,8.62975791 C6.14848569,11.1628202 4.77203285,14.1194955 3.86354153,15.9614079 C3.84543043,16.00047 3.8273201,16.0395305 3.81524629,16.0815995 L2.5354612,16.0815995 C1.14394025,16.0815995 0,17.2234391 0,18.6296618 L0,31.1057436 C0,32.5119663 1.14401753,33.6778826 2.5354612,33.6778826 L8.54817933,33.6778826 C8.92548488,37.2265545 11.9047368,40 15.5026932,40 C19.0735269,40 22.0074818,37.2265545 22.3847255,33.6778826 L44.7458057,33.6778826 C45.1231113,37.2265545 48.0811905,40 51.6520243,40 C55.2469671,40 58.2051082,37.2265545 58.5824292,33.6778826 L64.4744478,33.6778826 C66.40023,33.6778826 68,32.0642766 68,30.1202108 L68,3.53421038 C68,1.59014467 66.40023,0.000538458432 64.4744478,0.000538458432 L24.5336703,0 Z M24.5336703,1.53845266 L64.474216,1.53845266 C65.5397248,1.53845266 66.4543207,2.42183218 66.4543207,3.53367192 L66.4543207,30.1196724 C66.4543207,31.2314352 65.5397248,32.1388915 64.474216,32.1388915 L58.5821974,32.1388915 C58.1898005,28.6112965 55.2558534,25.8167741 51.6517925,25.8167741 C48.0749315,25.8167741 44.7123468,28.5030663 44.7455739,32.1388915 L22.5537202,32.1388915 L22.5537202,3.53290269 C22.5537202,2.42113988 23.4683161,1.53768344 24.5338248,1.53768344 L24.5336703,1.53845266 Z M12.7735874,5.28843103 L21.0077318,5.28843103 L21.0077318,16.0814457 L5.55325658,16.0814457 C6.4648388,14.2064565 7.66016518,11.6433944 8.98221826,9.42286871 C9.70362544,8.20895264 10.4371026,7.11518972 11.1313176,6.36996325 C11.8255326,5.62473678 12.4443298,5.28827718 12.7733556,5.28827718 L12.7735874,5.28843103 Z M2.53499757,17.6198983 L21.0077318,17.6198983 L21.0077318,28.6290656 C19.7400012,26.9343831 17.7508557,25.8166203 15.502075,25.8166203 C11.2460671,25.9668579 8.88261417,28.3106059 8.57167013,32.1387377 L2.53476575,32.1387377 C1.99748319,32.1387377 1.54475207,31.6729942 1.54475207,31.1050513 L1.54475207,18.6289694 C1.54475207,18.061065 1.99752183,17.6193599 2.53476575,17.6193599 L2.53499757,17.6198983 Z M15.502075,27.3552268 C18.4631524,27.3552268 20.8870323,29.8462124 20.8870323,32.9081178 C20.8870323,36.006023 18.4632297,38.4610089 15.502075,38.4610089 C12.5047568,38.4610089 10.0688997,36.0061 10.0688997,32.9081178 C10.1956727,29.4465993 12.4655797,27.4513801 15.502075,27.3552268 Z M51.6508652,27.3552268 C54.6451698,27.3552268 57.029718,29.8402125 57.0599315,32.9081178 C57.0599315,36.0030231 54.6451698,38.4610089 51.6508652,38.4610089 C48.6897878,38.4610089 46.2659079,36.0061 46.2659079,32.9081178 C46.2568523,29.2392929 49.1364221,27.4333802 51.6508652,27.3552268 Z" id="Shape"></path>
            </g>
        </g>
    </g>
</svg>