<?xml version="1.0" encoding="UTF-8"?>
<svg width="42px" height="58px" viewBox="0 0 42 58" version="1.1" xmlns="http://www.w3.org/2000/svg" xmlns:xlink="http://www.w3.org/1999/xlink">
    <!-- Generator: Sketch 49 (51002) - http://www.bohemiancoding.com/sketch -->
    <title>np_shopping-bag_1561746_000000</title>
    <desc>Created with Sketch.</desc>
    <defs></defs>
    <g id="Page-1" stroke="none" stroke-width="1" fill="none" fill-rule="evenodd">
        <g id="Home" transform="translate(-239.000000, -1781.000000)" fill="#000000" fill-rule="nonzero">
            <g id="np_shopping-bag_1561746_000000" transform="translate(239.000000, 1781.000000)">
                <path d="M20.9999992,0 C15.7585317,0 11.5172258,4.2230035 11.5172258,9.44185268 L11.5172258,16.1860332 L4.06647533,16.1860332 C3.64578564,16.1939367 3.42881979,16.4863583 3.38913438,16.7972245 L0.00242961444,57.2623075 C-0.0319664365,57.6364004 0.304056314,58.0026161 0.679770568,57.9999859 L41.3202278,57.9999859 C41.695942,57.9999859 42.0319776,57.6364341 41.9975687,57.2623075 L38.610864,16.7972245 C38.5791136,16.4652827 38.2669034,16.1833962 37.933523,16.1860332 L30.4827725,16.1860332 L30.4827725,9.44185268 C30.4827725,4.2230035 26.2414667,0 20.9999992,0 Z M20.9999992,1.3488361 C25.513867,1.3488361 29.1280906,4.94746336 29.1280906,9.44185268 L29.1280906,16.1860332 L12.8719077,16.1860332 L12.8719077,9.44185268 C12.8719077,4.94746336 16.4861313,1.3488361 20.9999992,1.3488361 Z M4.70182115,17.5348693 L11.5172258,17.5348693 L11.5172258,22.9934741 C9.9773589,23.3096075 8.80786201,24.6795192 8.80786201,26.3023039 C8.80786201,28.1569535 10.3318792,29.6743941 12.1945668,29.6743941 C14.0572544,29.6743941 15.5812715,28.1569535 15.5812715,26.3023039 C15.5812715,24.6795192 14.4117747,23.3095738 12.8719077,22.9934741 L12.8719077,17.5348693 L29.1280906,17.5348693 L29.1280906,22.9934741 C27.5882237,23.3096075 26.4187268,24.6795192 26.4187268,26.3023039 C26.4187268,28.1569535 27.9427439,29.6743941 29.8054316,29.6743941 C31.6681192,29.6743941 33.1921363,28.1569535 33.1921363,26.3023039 C33.1921363,24.6795192 32.0226394,23.3095738 30.4827725,22.9934741 L30.4827725,17.5348693 L37.2981772,17.5348693 L40.5790813,56.6511161 L1.4206461,56.6511161 L4.70182115,17.5348693 Z M12.1945668,24.2790498 C13.3243715,24.2790498 14.2265896,25.1773746 14.2265896,26.3023039 C14.2265896,27.4272332 13.3243715,28.325558 12.1945668,28.325558 C11.0647621,28.325558 10.1625439,27.4272332 10.1625439,26.3023039 C10.1625439,25.1773746 11.0647621,24.2790498 12.1945668,24.2790498 Z M29.8054316,24.2790498 C30.9352363,24.2790498 31.8374544,25.1773746 31.8374544,26.3023039 C31.8374544,27.4272332 30.9352363,28.325558 29.8054316,28.325558 C28.6756269,28.325558 27.7734087,27.4272332 27.7734087,26.3023039 C27.7734087,25.1773746 28.6756269,24.2790498 29.8054316,24.2790498 Z" id="Shape"></path>
            </g>
        </g>
    </g>
</svg>