<?xml version="1.0" encoding="UTF-8"?>
<svg width="62px" height="58px" viewBox="0 0 62 58" version="1.1" xmlns="http://www.w3.org/2000/svg" xmlns:xlink="http://www.w3.org/1999/xlink">
    <!-- Generator: Sketch 49 (51002) - http://www.bohemiancoding.com/sketch -->
    <title>np_headset_215211_000000</title>
    <desc>Created with Sketch.</desc>
    <defs></defs>
    <g id="Page-1" stroke="none" stroke-width="1" fill="none" fill-rule="evenodd">
        <g id="Home" transform="translate(-366.000000, -2029.000000)" fill="#000000" fill-rule="nonzero">
            <g id="np_headset_215211_000000" transform="translate(366.000000, 2029.000000)">
                <path d="M61.9998082,32.6488939 C61.9998082,28.9665374 59.5854615,25.7071486 56.1049109,24.6465422 C55.7503682,23.087948 54.3995984,21.8131807 52.7667041,21.6015693 C52.6967914,9.7028913 42.9669094,0 31.0348349,0 C19.1027604,0 9.37263558,9.7028913 9.30296576,21.6015693 C7.59765321,21.8131998 6.24944639,23.0182819 5.89489734,24.6465422 C2.41441066,25.7096981 0,28.9662824 0,32.6488939 C0,36.3315054 2.41434674,39.5906393 5.89489734,40.6512456 C6.24944,42.2795697 7.6002099,43.4846072 9.30296576,43.6962186 C9.30296576,49.6442828 14.0617977,54.4622658 19.956695,54.743352 C20.1689195,56.5857732 21.7318691,58 23.649387,58 C25.7092486,58 27.342079,56.371676 27.342079,54.3176434 C27.342079,52.2635471 25.7091847,50.6352869 23.649387,50.6352869 C21.8017946,50.6352869 20.3111802,51.9797839 20.0265566,53.7524754 C14.7009703,53.5408449 10.4389673,49.1488445 10.4389673,43.7659483 C12.3564851,43.482115 13.8470357,41.8537974 13.8470357,39.7997011 L13.8470357,25.6351242 C13.8470357,23.6532435 12.3564851,21.9527677 10.4389673,21.668877 C10.4389673,10.2705452 19.6718158,1.06353836 31.0350267,1.06353836 C42.3982375,1.06353836 51.6310861,10.2705452 51.7007559,21.6019517 C49.783238,21.885785 48.2202692,23.5141027 48.2202692,25.568199 L48.2202692,39.7327758 C48.2202692,41.9287537 49.9954433,43.699023 52.1976487,43.699023 C54.1151665,43.699023 55.6781353,42.354526 56.1026099,40.6540501 C59.5855893,39.5908942 62,36.3318241 62,32.6491489 L61.9998082,32.6488939 Z M23.6494509,51.6282669 C25.1400015,51.6282669 26.2760669,52.8333044 26.2760669,54.2475312 C26.2760669,55.6642439 25.0676471,56.8667956 23.6494509,56.8667956 C22.2287619,56.8667956 21.022835,55.6617581 21.022835,54.2475312 C21.0203377,52.8333044 22.1563437,51.6282669 23.6494509,51.6282669 Z M1.06364716,32.6488939 C1.06364716,29.603921 2.98116503,26.8427113 5.82247908,25.7798103 L5.82247908,39.4485027 C2.98116503,38.3853468 1.06364716,35.6939306 1.06364716,32.6488939 Z M12.7112899,25.568199 L12.7112899,39.7327758 C12.7112899,41.3610998 11.3630191,42.6358671 9.80005031,42.6358671 C8.2370815,42.6358671 6.88881077,41.3610998 6.88881077,39.7327758 L6.88881077,25.568199 C6.88881077,23.9398749 8.2370815,22.6651076 9.80005031,22.6651076 C11.3630191,22.662618 12.7112899,23.9373891 12.7112899,25.568199 Z M52.1974569,42.6354209 C50.5645626,42.6354209 49.2862174,41.2909239 49.2862174,39.7323296 L49.2862174,25.5677528 C49.2862174,23.9394288 50.6344881,22.6646615 52.1974569,22.6646615 C53.7604257,22.6646615 55.1086965,24.0091585 55.1086965,25.5677528 L55.1086965,39.7323296 C55.1811019,41.3606536 53.832844,42.6354209 52.1974569,42.6354209 Z M56.2471907,39.4485027 L56.2471907,25.7798103 C59.0885048,26.8429663 61.0060227,29.5343825 61.0060227,32.6488939 C60.9336172,35.6938668 59.0160865,38.3853468 56.2471907,39.4485027 Z" id="Shape"></path>
            </g>
        </g>
    </g>
</svg>